<svg xmlns="http://www.w3.org/2000/svg" viewBox="0 0 118.27 113.55"><defs><style>.a{fill:#1226aa;}.a,.b{fill-rule:evenodd;}.b,.d{fill:#3b54f5;}.c{fill:#73c2fa;}.e{fill:#fff;}</style></defs><path class="a" d="M60.63,32.78H15.84A1.85,1.85,0,0,0,14,34.63V86.32a1.85,1.85,0,0,0,1.85,1.85H41a11.94,11.94,0,0,1,5.78,1.5L54.5,94c1.21.67,2.58,2,4,2H62.8c1.39,0,2.76-1.36,4-2l7.69-4.28a11.94,11.94,0,0,1,5.78-1.5h25.19a1.85,1.85,0,0,0,1.85-1.85V34.63a1.85,1.85,0,0,0-1.85-1.85Z"/><path class="b" d="M80.85,26.78a22.9,22.9,0,0,0-11.21,2.93l-9,5.07-9-5.07a22.9,22.9,0,0,0-11.21-2.93H16.63v59H40.42a22.9,22.9,0,0,1,11.21,2.93l7.51,4.23a3.06,3.06,0,0,0,3,0l7.51-4.23a22.9,22.9,0,0,1,11.21-2.93h23.78v-59H80.85Z"/><path class="c" d="M51.63,24.71a22.9,22.9,0,0,0-11.21-2.93H20.63v59H40.42a22.9,22.9,0,0,1,11.21,2.93l7.51,4.23a3.44,3.44,0,0,0,.53.21V29.23Z"/><path class="c" d="M80.85,21.78a22.9,22.9,0,0,0-11.21,2.93l-8,4.49V88.12a2.92,2.92,0,0,0,.46-.18l7.51-4.23a22.9,22.9,0,0,1,11.21-2.93h19.78v-59H80.85Z"/><path class="d" d="M60.63,29.78l-1-.55V88.15a3,3,0,0,0,2,0V29.2Z"/><path class="e" d="M80.85,49.78H93.63v-3H80.85A24.39,24.39,0,0,0,68.9,49.91l-1.77,1v3.44l3.24-1.82A21.48,21.48,0,0,1,80.85,49.78Z"/><path class="e" d="M80.85,63.78H93.63v-3H80.85A24.39,24.39,0,0,0,68.9,63.91l-1.77,1v3.44l3.24-1.82A21.48,21.48,0,0,1,80.85,63.78Z"/><path class="e" d="M80.85,56.78H93.63v-3H80.85A24.39,24.39,0,0,0,68.9,56.91l-1.77,1v3.44l3.24-1.82A21.48,21.48,0,0,1,80.85,56.78Z"/><path class="e" d="M80.85,35.78H93.63v-3H80.85A24.39,24.39,0,0,0,68.9,35.91l-1.77,1v3.44l3.24-1.82A21.48,21.48,0,0,1,80.85,35.78Z"/><path class="e" d="M80.85,42.78H93.63v-3H80.85A24.39,24.39,0,0,0,68.9,42.91l-1.77,1v3.44l3.24-1.82A21.48,21.48,0,0,1,80.85,42.78Z"/><path class="e" d="M40.42,67.78H27.63v3H40.42A21.48,21.48,0,0,1,50.9,73.52l3.23,1.82V71.9l-1.76-1A24.39,24.39,0,0,0,40.42,67.78Z"/><path class="e" d="M40.42,39.78H27.63v3H40.42A21.48,21.48,0,0,1,50.9,45.52l3.23,1.82V43.9l-1.76-1A24.39,24.39,0,0,0,40.42,39.78Z"/><path class="e" d="M40.42,32.78H27.63v3H40.42A21.48,21.48,0,0,1,50.9,38.52l3.23,1.82V36.9l-1.76-1A24.39,24.39,0,0,0,40.42,32.78Z"/><path class="e" d="M93.63,67.78H80.85A24.39,24.39,0,0,0,68.9,70.91l-1.77,1v3.44l3.24-1.82a21.48,21.48,0,0,1,10.48-2.74H93.63Z"/><path class="e" d="M40.42,53.78H27.63v3H40.42A21.48,21.48,0,0,1,50.9,59.52l3.23,1.82V57.9l-1.76-1A24.39,24.39,0,0,0,40.42,53.78Z"/><path class="e" d="M40.42,46.78H27.63v3H40.42A21.48,21.48,0,0,1,50.9,52.52l3.23,1.82V50.9l-1.76-1A24.39,24.39,0,0,0,40.42,46.78Z"/><path class="e" d="M40.42,60.78H27.63v3H40.42A21.48,21.48,0,0,1,50.9,66.52l3.23,1.82V64.9l-1.76-1A24.39,24.39,0,0,0,40.42,60.78Z"/></svg>