<?xml version="1.0" encoding="UTF-8"?>
<svg width="980px" height="636px" viewBox="0 0 980 636" version="1.1" xmlns="http://www.w3.org/2000/svg" xmlns:xlink="http://www.w3.org/1999/xlink">
    <title>illustration copy</title>
    <g id="1---Login" stroke="none" stroke-width="1" fill="none" fill-rule="evenodd">
        <g id="illustration-copy" transform="translate(0.000000, -0.000000)">
            <path d="M269.661462,14.5334466 L433.404347,14.5334466 C445.299239,14.5334466 455.029355,24.2619374 455.029355,36.1568297 L455.029355,188.700412 C455.029355,189.698289 454.460533,190.548272 453.540666,190.930196 C452.617548,191.31212 451.614795,191.112219 450.909455,190.406879 L414.059505,153.558554 L269.661462,153.558554 C257.766569,153.558554 248.034828,143.826813 248.034828,131.933546 L248.034828,36.1568297 C248.034828,24.2619374 257.766569,14.5334466 269.661462,14.5334466" id="Fill-2" fill="#D2E9F2"></path>
            <path d="M142.651511,623.238588 C142.651511,623.238588 56.7495544,571.553745 77.584712,482.298986 C77.584712,482.298986 78.1941647,480.012319 76.1984101,479.645022 C74.2010304,479.27285 31.5182111,547.932982 91.1584433,610.782999 L142.651511,623.238588 Z M118.442423,589.278256 C118.442423,589.278256 38.0515445,493.415403 131.839007,410.399815 C131.839007,410.399815 47.620765,316.557095 101.215226,210.081639 C154.808062,103.604558 258.16637,112.629334 340.471743,134.285221 C422.775491,155.941108 529.962788,145.112352 612.264911,60.2927832 C694.570284,-24.5267856 790.273866,-6.48048378 826.64113,33.2233305 C863.006768,72.9255195 872.575989,154.137128 832.381362,235.347112 C792.18836,316.55872 815.154165,368.89202 849.608559,408.595835 C884.061329,448.298024 887.888692,558.813745 805.583319,589.278256 L118.442423,589.278256 L118.442423,589.278256 Z" id="Fill-3" fill="#D8E7FD"></path>
            <path d="M597.720931,381.024193 C696.801694,371.684127 678.334463,474.078687 614.442689,538.630296 C602.73307,550.46018 584.059438,566.648869 561.083883,585.797062 L362.169886,585.797062 C439.128327,477.780909 529.671876,387.440511 597.720931,381.024193" id="Fill-4" fill="#B7D2FB"></path>
            <path d="M437.186205,585.797062 C534.68239,488.72343 623.074165,424.459483 623.616984,424.062932 C625.401462,422.753015 627.907531,423.14144 629.215823,424.924292 C630.524115,426.70877 630.13569,429.216465 628.351213,430.524757 C627.82302,430.911556 543.172473,492.453281 448.460268,585.797062 L437.186205,585.797062" id="Fill-5" fill="#609DF6"></path>
            <path d="M529.309455,147.738687 C569.973767,134.930428 571.428327,179.482236 550.459903,212.257792 C530.578742,243.33338 443.293734,339.802435 423.531213,389.416763 L412.817846,383.710661 C418.605209,309.675967 477.24919,164.133778 529.309455,147.738687" id="Fill-6" fill="#8EBAF8"></path>
            <path d="M416.757349,385.808803 C441.678277,277.530992 543.674662,163.829864 544.017581,163.44144 C544.649787,162.734475 545.735425,162.671092 546.444015,163.300047 C547.149355,163.930627 547.212738,165.016266 546.583783,165.724856 C546.239239,166.111656 444.120964,279.941175 419.856619,387.460014 L416.757349,385.808803" id="Fill-7" fill="#2E7EF2"></path>
            <path d="M551.909588,214.949135 C592.213103,209.824856 586.03569,251.851092 560.818974,279.039185 C539.925309,301.566183 462.271279,362.233546 425.057282,405.990627 L407.981229,399.551556 C432.908659,329.077692 504.331644,220.998156 551.909588,214.949135" id="Fill-8" fill="#B7D2FB"></path>
            <path d="M414.218775,401.903231 C461.006868,311.522203 562.678211,232.454243 563.045508,232.166581 C563.757349,231.61076 564.78448,231.735901 565.341926,232.446117 C565.897747,233.156332 565.774231,234.183463 565.064015,234.740909 C564.699969,235.026946 463.681959,313.584591 417.253037,403.047377 L414.218775,401.903231" id="Fill-9" fill="#2E7EF2"></path>
            <path d="M40.4974814,634.891324 C44.4987418,634.891324 47.7702841,631.619782 47.7702841,627.618521 L47.7702841,627.012319 C47.7702841,623.011059 44.4987418,619.739516 40.4974814,619.739516 C36.4978463,619.739516 33.2230536,623.011059 33.2230536,627.012319 L33.2230536,627.618521 C33.2230536,631.619782 36.4978463,634.891324 40.4974814,634.891324 Z M34.8157567,585.797062 L949.558808,585.797062 C955.555823,585.797062 960.468825,590.708438 960.468825,596.705453 L960.468825,596.707078 C960.468825,602.705719 955.559073,607.617095 949.558808,607.617095 L912.749488,607.617095 C909.414563,607.617095 906.687465,610.345818 906.687465,613.675868 C906.687465,617.010793 909.414563,619.739516 912.749488,619.739516 L926.214331,619.739516 C930.381362,619.739516 933.792672,623.149201 933.792672,627.314607 C933.792672,631.481639 930.382987,634.891324 926.214331,634.891324 L59.3628878,634.891324 C55.1958562,634.891324 51.7861713,631.483264 51.7861713,627.314607 C51.7861713,623.149201 55.1958562,619.739516 59.3628878,619.739516 L69.9689906,619.739516 C73.3022907,619.739516 76.0293886,617.010793 76.0293886,613.675868 C76.0293886,610.344193 73.3022907,607.617095 69.9689906,607.617095 L34.8157567,607.617095 C28.8154914,607.617095 23.9057402,602.707344 23.9057402,596.707078 L23.9057402,596.705453 C23.9057402,590.706813 28.820367,585.797062 34.8157567,585.797062 L34.8157567,585.797062 Z" id="Fill-10" fill="#D4D6E5"></path>
            <path d="M873.385342,289.206481 C871.002788,289.893944 868.742125,290.864193 866.643982,292.076597 C864.492208,293.321506 862.50783,294.819947 860.729853,296.532916 C860.383684,296.866083 859.866868,296.916465 859.470317,296.687311 L851.480798,292.073347 L851.436918,292.047344 C850.976984,291.797062 850.455292,291.751556 849.979107,291.879947 C849.486669,292.011589 849.046238,292.328505 848.773203,292.799815 L848.740699,292.853447 L843.119107,302.591689 C842.847697,303.061374 842.794065,303.602568 842.927332,304.096631 C843.057349,304.587443 843.375889,305.027874 843.8472,305.299284 L843.900831,305.333413 L851.825342,309.909997 C852.24302,310.148903 852.43317,310.631589 852.324281,311.075271 L852.327531,311.075271 C852.033369,312.253546 851.80909,313.465951 851.657946,314.707609 C851.511677,315.918389 851.435292,317.155171 851.435292,318.413082 C851.435292,319.670992 851.511677,320.907775 851.657946,322.116929 C851.80909,323.358588 852.034994,324.572617 852.327531,325.749267 C852.447797,326.24008 852.20239,326.734143 851.76846,326.94867 L843.845574,331.523629 L843.8472,331.525254 C843.375889,331.796664 843.057349,332.23872 842.927332,332.729533 C842.794065,333.223596 842.847697,333.76479 843.119107,334.23285 L848.773203,344.026349 C849.046238,344.497659 849.486669,344.814574 849.979107,344.946216 C850.471544,345.077858 851.009488,345.024226 851.477548,344.752816 L851.539306,344.721937 L859.475193,340.138853 C859.889621,339.901573 860.399936,339.976332 860.729853,340.291622 C862.506205,342.004591 864.492208,343.506282 866.643982,344.749566 C868.755127,345.970097 871.028792,346.943596 873.429223,347.631059 C873.894032,347.764326 874.197946,348.188505 874.197946,348.646813 L874.197946,357.866614 C874.197946,358.409433 874.420599,358.905122 874.77977,359.262667 C875.137316,359.621838 875.629753,359.846117 876.174198,359.846117 L887.487266,359.846117 C888.02846,359.846117 888.522523,359.621838 888.883319,359.262667 C889.240865,358.905122 889.463518,358.409433 889.463518,357.866614 L889.463518,348.646813 C889.463518,348.1495 889.811312,347.730196 890.277747,347.618057 C892.660301,346.930594 894.919339,345.961971 897.019107,344.749566 C899.169256,343.506282 901.153634,342.004591 902.929986,340.291622 C903.294032,339.943828 903.841727,339.904823 904.243153,340.172982 L912.180666,344.754442 C912.651976,345.024226 913.189919,345.077858 913.682357,344.946216 C914.174795,344.814574 914.615226,344.497659 914.886636,344.026349 L914.920765,343.972717 L920.543982,334.229599 L920.542357,334.229599 C920.813767,333.761539 920.867399,333.221971 920.734132,332.729533 C920.60249,332.237095 920.285574,331.795039 919.820765,331.525254 L911.836122,326.916166 C911.418443,326.677261 911.229919,326.196199 911.335558,325.749267 C911.628095,324.572617 911.852374,323.360213 912.003518,322.116929 C912.149787,320.907775 912.226171,319.670992 912.226171,318.413082 C912.226171,317.155171 912.149787,315.918389 912.003518,314.705984 C911.852374,313.465951 911.628095,312.253546 911.335558,311.075271 C911.215292,310.584458 911.457448,310.090395 911.894629,309.875868 L919.820765,305.299284 C920.285574,305.0295 920.60249,304.589068 920.734132,304.096631 C920.867399,303.604193 920.813767,303.064624 920.542357,302.594939 L920.511478,302.536432 L914.888261,292.79819 L914.886636,292.799815 C914.615226,292.328505 914.174795,292.011589 913.682357,291.879947 C913.189919,291.748306 912.651976,291.800312 912.182291,292.070097 L912.182291,292.073347 L904.191146,296.687311 C903.763717,296.934342 903.238775,296.848206 902.908858,296.511788 C901.137382,294.805321 899.157879,293.315005 897.017481,292.076597 C894.906337,290.856067 892.631047,289.882568 890.233866,289.19348 C889.769057,289.060213 889.463518,288.637659 889.463518,288.177725 L889.463518,278.957924 C889.463518,278.415105 889.240865,277.922667 888.883319,277.561871 C888.522523,277.2027 888.02846,276.981672 887.487266,276.981672 L876.174198,276.981672 C875.629753,276.981672 875.137316,277.2027 874.77977,277.561871 C874.420599,277.922667 874.197946,278.415105 874.197946,278.957924 L874.197946,288.177725 C874.197946,288.676664 873.851777,289.094342 873.385342,289.206481 Z M869.668493,306.251656 C872.780765,303.141009 877.081064,301.215138 881.831544,301.215138 C886.578775,301.215138 890.879073,303.141009 893.98972,306.251656 C897.103617,309.365553 899.029488,313.664226 899.029488,318.413082 C899.029488,323.161937 897.103617,327.460611 893.98972,330.574508 C890.879073,333.683529 886.578775,335.611025 881.831544,335.611025 C877.081064,335.611025 872.780765,333.683529 869.668493,330.574508 C866.557846,327.460611 864.633601,323.161937 864.633601,318.413082 C864.633601,313.664226 866.557846,309.365553 869.668493,306.251656 Z" id="Fill-11" fill="#D4D6E5"></path>
            <path d="M280.603982,6.19288272 L444.348493,6.19288272 C456.243385,6.19288272 465.973501,15.924624 465.973501,27.817891 L465.973501,180.361473 C465.973501,181.35935 465.404679,182.210959 464.483186,182.592883 C463.561694,182.974806 462.557316,182.774906 461.851976,182.069566 L425.003651,145.219616 L280.603982,145.219616 C268.710715,145.219616 258.980599,135.4895 258.980599,123.594607 L258.980599,27.817891 C258.980599,15.924624 268.710715,6.19288272 280.603982,6.19288272" id="Fill-13" fill="#AFB3CF"></path>
            <path d="M297.852307,117.898256 L382.795392,117.898256 C386.66501,117.898256 389.830914,114.733977 389.830914,110.862733 L389.830914,46.3728827 C389.830914,42.5048894 386.66501,39.3373603 382.795392,39.3373603 L379.343452,39.3373603 L379.343452,36.0641928 C379.343452,34.9980569 378.47234,34.1285709 377.406205,34.1285709 L351.742556,34.1285709 C350.678045,34.1285709 349.805309,34.9996821 349.805309,36.0641928 L349.805309,39.3373603 L297.852307,39.3373603 C293.982689,39.3373603 290.81516,42.5048894 290.81516,46.3728827 L290.81516,110.862733 C290.81516,114.732352 293.982689,117.898256 297.852307,117.898256" id="Fill-14" fill="#172473"></path>
            <path d="M357.130118,117.898256 L303.452772,117.898256 C300.301495,117.898256 297.720666,115.319052 297.720666,112.16615 L297.720666,57.3804117 C297.720666,54.2275096 300.301495,51.6499308 303.452772,51.6499308 L357.130118,51.6499308 C360.28302,51.6499308 362.862224,54.2275096 362.862224,57.3804117 L362.862224,112.16615 C362.862224,115.319052 360.28302,117.898256 357.130118,117.898256" id="Fill-15" fill="#FFFFFE"></path>
            <path d="M306.319637,117.898256 L384.748891,117.898256 C388.620135,117.898256 393.195093,114.733977 394.919438,110.862733 L419.642092,55.3635295 C421.366437,51.4939109 419.609588,48.3280071 415.739969,48.3280071 L411.618443,48.3280071 L413.168891,44.8451879 C413.797846,43.4312575 413.157515,42.2757351 411.745209,42.2757351 L383.118808,42.2757351 C381.706503,42.2757351 380.03579,43.4312575 379.406835,44.8451879 L377.856387,48.3280071 L337.310715,48.3280071 C333.441097,48.3280071 328.866138,51.4939109 327.141793,55.3635295 L302.41914,110.862733 C300.694795,114.733977 302.451644,117.898256 306.319637,117.898256" id="Fill-16" fill="#4F5995"></path>
            <path d="M365.425176,60.7478413 C359.436287,60.7478413 353.444148,63.0312575 348.87244,67.6029656 C344.302357,72.1746738 342.01569,78.1668131 342.01569,84.1573272 C342.01569,90.1478413 344.302357,96.1383554 348.87244,100.710063 C353.444148,105.280146 359.436287,107.565188 365.425176,107.565188 C371.41569,107.565188 377.40783,105.280146 381.977913,100.710063 C386.549621,96.1383554 388.834662,90.1478413 388.834662,84.1573272 C388.834662,78.1668131 386.549621,72.1746738 381.977913,67.6029656 C377.40783,63.0312575 371.41569,60.7478413 365.425176,60.7478413 Z M346.106337,64.8368628 C351.440268,59.5029325 358.433535,56.8343421 365.425176,56.8343421 C372.416818,56.8343421 379.410085,59.5029325 384.745641,64.8368628 C390.081196,70.1724184 392.748161,77.1640602 392.746537,84.1573272 C392.746537,91.148969 390.079571,98.1406107 384.745641,103.476166 C379.410085,108.810097 372.416818,111.478687 365.425176,111.478687 C358.433535,111.478687 351.440268,108.810097 346.106337,103.476166 C340.770782,98.1406107 338.103816,91.148969 338.103816,84.1573272 C338.103816,77.1640602 340.770782,70.1724184 346.106337,64.8368628 L346.106337,64.8368628 Z" id="Fill-17" fill="#D4D6E5"></path>
            <path d="M381.977913,103.476166 C381.214065,102.712319 381.214065,101.472286 381.977913,100.710063 C382.743385,99.9445908 383.981793,99.9445908 384.745641,100.710063 L391.210715,107.176763 C391.976188,107.938986 391.976188,109.179019 391.210715,109.942866 C390.446868,110.706714 389.210085,110.706714 388.444612,109.942866 L381.977913,103.476166" id="Fill-18" fill="#D4D6E5"></path>
            <path d="M388.709521,112.973878 C387.180201,111.446183 387.180201,108.967742 388.709521,107.440047 C390.235591,105.910727 392.714032,105.910727 394.243352,107.440047 L415.08501,128.281705 C416.612705,129.8094 416.612705,132.287841 415.08501,133.815536 C413.557316,135.344856 411.078874,135.344856 409.55118,133.815536 L388.709521,112.973878" id="Fill-19" fill="#D4D6E5"></path>
            <path d="M349.920699,72.9986539 C349.504646,73.5756025 348.700168,73.705619 348.123219,73.2911912 C347.546271,72.8767633 347.414629,72.0722857 347.830682,71.4937119 C348.175226,71.015901 348.536022,70.5543421 348.911445,70.1155361 L348.971578,70.0489026 C349.361627,69.5954698 349.73705,69.1859175 350.096221,68.8267467 C350.601661,68.3229325 351.41914,68.3229325 351.924579,68.8267467 C352.428394,69.330561 352.428394,70.1496655 351.924579,70.6534797 C351.54103,71.0354035 351.209488,71.3913239 350.925077,71.7196157 L350.868195,71.7911248 C350.526901,72.192551 350.209986,72.5956025 349.920699,72.9986539 Z M351.924579,97.6595494 C352.428394,98.1617384 352.428394,98.9808429 351.924579,99.4846572 C351.41914,99.9900967 350.601661,99.9900967 350.096221,99.4846572 C348.025707,97.4141431 346.459007,95.0202127 345.397747,92.4572608 C344.295856,89.8016721 343.746536,86.9754366 343.746536,84.1573272 C343.746536,82.8425345 343.870052,81.5131149 344.113833,80.1901962 C344.354364,78.8949059 344.716785,77.6142426 345.197846,76.3612078 C345.451379,75.6981232 346.194098,75.3649557 346.858808,75.6201132 C347.521893,75.8736456 347.85506,76.6179905 347.599903,77.2810751 C347.178974,78.3748396 346.862059,79.5043587 346.649156,80.6533802 C346.437879,81.7975262 346.330616,82.9709258 346.330616,84.1573272 C346.330616,86.6536456 346.814928,89.1450884 347.780301,91.478886 C348.708294,93.7184217 350.08972,95.8246904 351.924579,97.6595494 Z M381.498476,94.4757683 C381.883651,93.8760668 382.681627,93.7021696 383.281329,94.0857185 C383.88103,94.4725179 384.054928,95.2688695 383.669753,95.8685709 C383.256951,96.5105278 382.803518,97.1394831 382.31108,97.7489358 C381.815392,98.3632641 381.295326,98.9434632 380.755757,99.4846572 C380.250317,99.9900967 379.431213,99.9900967 378.925773,99.4846572 C378.423584,98.9808429 378.423584,98.1617384 378.925773,97.6595494 C379.431213,97.1541099 379.891146,96.64542 380.302324,96.1351049 C380.733004,95.602037 381.13118,95.0462161 381.498476,94.4757683 Z M378.925773,70.6534797 C378.423584,70.1496655 378.423584,69.330561 378.925773,68.8267467 C379.431213,68.3229325 380.250317,68.3229325 380.755757,68.8267467 C382.826271,70.8972608 384.392971,73.2928164 385.454231,75.8557683 C386.549621,78.5048562 387.098941,81.3294665 387.098941,84.1573272 L387.103816,84.1573272 C387.103816,86.1758346 386.822656,88.1992177 386.258709,90.1592177 C386.063684,90.8450552 385.350218,91.243231 384.662755,91.0482061 C383.976918,90.8531812 383.580367,90.1397152 383.773767,89.4522525 C384.27108,87.7262824 384.519737,85.94343 384.519737,84.1573272 L384.524612,84.1573272 C384.524612,81.6658844 384.038675,79.1760668 383.070052,76.8341431 C382.142059,74.5929822 380.762258,72.4883388 378.925773,70.6534797 L378.925773,70.6534797 Z" id="Fill-20" fill="#FFFFFE"></path>
            <path d="M379.832639,23.8995162 L441.588891,23.8995162 C442.377117,23.8995162 443.022324,24.5447235 443.022324,25.3313239 C443.022324,26.1195494 442.377117,26.7647567 441.588891,26.7647567 L379.832639,26.7647567 C379.046039,26.7647567 378.399206,26.1195494 378.399206,25.3313239 C378.399206,24.5447235 379.046039,23.8995162 379.832639,23.8995162" id="Fill-21" fill="#F1EFF3"></path>
            <path d="M379.832639,32.8885378 L441.588891,32.8885378 C442.377117,32.8885378 443.022324,33.5337451 443.022324,34.3203454 C443.022324,35.1085709 442.377117,35.7537782 441.588891,35.7537782 L379.832639,35.7537782 C379.046039,35.7537782 378.399206,35.1085709 378.399206,34.3203454 C378.399206,33.5337451 379.046039,32.8885378 379.832639,32.8885378" id="Fill-22" fill="#F1EFF3"></path>
            <path d="M429.928029,42.7893006 L441.588891,42.7893006 C442.377117,42.7893006 443.022324,43.4345079 443.022324,44.2227335 C443.022324,45.010959 442.377117,45.6561663 441.588891,45.6561663 L429.928029,45.6561663 C429.139803,45.6561663 428.496221,45.010959 428.496221,44.2227335 C428.496221,43.4345079 429.139803,42.7893006 429.928029,42.7893006" id="Fill-23" fill="#F1EFF3"></path>
            <path d="M429.928029,52.9517219 L441.588891,52.9517219 C442.377117,52.9517219 443.022324,53.5969292 443.022324,54.3851547 C443.022324,55.1733802 442.377117,55.8185875 441.588891,55.8185875 L429.928029,55.8185875 C429.139803,55.8185875 428.496221,55.1733802 428.496221,54.3851547 C428.496221,53.5969292 429.139803,52.9517219 429.928029,52.9517219" id="Fill-24" fill="#F1EFF3"></path>
            <path d="M429.928029,63.1141431 L441.588891,63.1141431 C442.377117,63.1141431 443.022324,63.7593504 443.022324,64.5475759 C443.022324,65.3358015 442.377117,65.9793836 441.588891,65.9793836 L429.928029,65.9793836 C429.139803,65.9793836 428.496221,65.3358015 428.496221,64.5475759 C428.496221,63.7593504 429.139803,63.1141431 429.928029,63.1141431" id="Fill-25" fill="#F1EFF3"></path>
            <path d="M429.928029,73.2765643 L441.588891,73.2765643 C442.377117,73.2765643 443.022324,73.9217716 443.022324,74.7099972 C443.022324,75.4965975 442.377117,76.1418048 441.588891,76.1418048 L429.928029,76.1418048 C429.139803,76.1418048 428.496221,75.4965975 428.496221,74.7099972 C428.496221,73.9217716 429.139803,73.2765643 429.928029,73.2765643" id="Fill-26" fill="#F1EFF3"></path>
            <path d="M429.928029,83.4389855 L441.588891,83.4389855 C442.377117,83.4389855 443.022324,84.0825676 443.022324,84.8707932 C443.022324,85.6590187 442.377117,86.3026008 441.588891,86.3026008 L429.928029,86.3026008 C429.139803,86.3026008 428.496221,85.6590187 428.496221,84.8707932 C428.496221,84.0825676 429.139803,83.4389855 429.928029,83.4389855" id="Fill-27" fill="#F1EFF3"></path>
            <path d="M429.928029,93.5997816 L441.588891,93.5997816 C442.377117,93.5997816 443.022324,94.2449889 443.022324,95.0315892 C443.022324,95.8214399 442.377117,96.4666472 441.588891,96.4666472 L429.928029,96.4666472 C429.139803,96.4666472 428.496221,95.8214399 428.496221,95.0315892 C428.496221,94.2449889 429.139803,93.5997816 429.928029,93.5997816" id="Fill-28" fill="#F1EFF3"></path>
            <path d="M412.011743,103.762203 L441.588891,103.762203 C442.377117,103.762203 443.022324,104.40741 443.022324,105.19401 L443.022324,105.195636 C443.022324,105.982236 442.377117,106.627443 441.588891,106.627443 L412.011743,106.627443 C411.225143,106.627443 410.579936,105.982236 410.579936,105.195636 L410.579936,105.19401 C410.579936,104.40741 411.225143,103.762203 412.011743,103.762203" id="Fill-29" fill="#F1EFF3"></path>
            <path d="M414.943617,93.5997816 L423.674231,93.5997816 C424.462457,93.5997816 425.107664,94.2449889 425.107664,95.0315892 C425.107664,95.8214399 424.462457,96.4666472 423.674231,96.4666472 L414.943617,96.4666472 C414.155392,96.4666472 413.510185,95.8214399 413.510185,95.0315892 C413.510185,94.2449889 414.155392,93.5997816 414.943617,93.5997816" id="Fill-30" fill="#F1EFF3"></path>
            <path d="M418.853866,83.4389855 L423.251677,83.4389855 C424.039903,83.4389855 424.68511,84.0825676 424.68511,84.8707932 C424.68511,85.6590187 424.039903,86.3026008 423.251677,86.3026008 L418.853866,86.3026008 C418.065641,86.3026008 417.422059,85.6590187 417.422059,84.8707932 C417.422059,84.0825676 418.065641,83.4389855 418.853866,83.4389855" id="Fill-31" fill="#F1EFF3"></path>
            <path d="M421.919007,73.2765643 L425.136918,73.2765643 C425.926768,73.2765643 426.571976,73.9217716 426.571976,74.7099972 C426.571976,75.4965975 425.926768,76.1418048 425.136918,76.1418048 L421.919007,76.1418048 C421.129156,76.1418048 420.485574,75.4965975 420.485574,74.7099972 C420.485574,73.9217716 421.129156,73.2765643 421.919007,73.2765643" id="Fill-32" fill="#F1EFF3"></path>
            <path d="M300.709422,183.226714 L307.619803,183.226714 C308.884214,183.226714 309.921097,184.260345 309.921097,185.528007 L309.921097,192.436763 C309.921097,193.701175 308.884214,194.739682 307.619803,194.739682 L300.709422,194.739682 C299.443385,194.739682 298.408128,193.701175 298.408128,192.436763 L298.408128,185.528007 C298.408128,184.260345 299.443385,183.226714 300.709422,183.226714" id="Fill-33" fill="#7FB3D5"></path>
            <path d="M324.309057,183.226714 L331.219438,183.226714 C332.48385,183.226714 333.519107,184.260345 333.519107,185.528007 L333.519107,192.436763 C333.519107,193.701175 332.48385,194.739682 331.219438,194.739682 L324.309057,194.739682 C323.04302,194.739682 322.009389,193.701175 322.009389,192.436763 L322.009389,185.528007 C322.009389,184.260345 323.04302,183.226714 324.309057,183.226714" id="Fill-34" fill="#FFFFFE"></path>
            <path d="M347.908692,183.226714 L354.817448,183.226714 C356.083485,183.226714 357.118742,184.260345 357.118742,185.528007 L357.118742,192.436763 C357.118742,193.701175 356.083485,194.739682 354.817448,194.739682 L347.908692,194.739682 C346.642656,194.739682 345.607399,193.701175 345.607399,192.436763 L345.607399,185.528007 C345.607399,184.260345 346.642656,183.226714 347.908692,183.226714" id="Fill-35" fill="#7FB3D5"></path>
            <path d="M371.506702,183.226714 L378.418709,183.226714 C379.68312,183.226714 380.718377,184.260345 380.718377,185.528007 L380.718377,192.436763 C380.718377,193.701175 379.68312,194.739682 378.418709,194.739682 L371.506702,194.739682 C370.242291,194.739682 369.207034,193.701175 369.207034,192.436763 L369.207034,185.528007 C369.207034,184.260345 370.242291,183.226714 371.506702,183.226714" id="Fill-36" fill="#7FB3D5"></path>
            <path d="M107.924082,77.1331812 C108.796818,77.1331812 109.503783,78.1440602 109.503783,79.3873438 C109.503783,80.6322525 108.796818,81.6431315 107.924082,81.6431315 L101.764546,81.6431315 C100.893435,81.6431315 100.18647,80.6322525 100.18647,79.3873438 C100.18647,78.1440602 100.893435,77.1331812 101.764546,77.1331812 L107.924082,77.1331812 Z M117.94836,81.6431315 C117.077249,81.6431315 116.370284,80.6322525 116.370284,79.3873438 C116.370284,78.1440602 117.077249,77.1331812 117.94836,77.1331812 L191.896918,77.1331812 C192.768029,77.1331812 193.474994,78.1440602 193.474994,79.3873438 C193.474994,80.6322525 192.768029,81.6431315 191.896918,81.6431315 L117.94836,81.6431315 L117.94836,81.6431315 Z" id="Fill-37" fill="#A3AAAF"></path>
            <path d="M213.391909,168.638853 C213.764082,168.265055 214.368659,168.265055 214.740831,168.638853 C215.113004,169.011025 215.113004,169.615602 214.740831,169.987775 L211.708195,173.020412 C211.334397,173.392584 210.731445,173.392584 210.359272,173.020412 C209.9871,172.648239 209.9871,172.043662 210.359272,171.67149 L213.391909,168.638853 Z M216.874729,175.139682 C217.402921,175.139682 217.828725,175.565486 217.828725,176.092054 C217.828725,176.618621 217.402921,177.04605 216.874729,177.04605 L212.584181,177.04605 C212.059239,177.04605 211.63181,176.618621 211.63181,176.092054 C211.63181,175.565486 212.059239,175.139682 212.584181,175.139682 L216.874729,175.139682 Z M214.740831,182.197957 C215.113004,182.57013 215.113004,183.174707 214.740831,183.546879 C214.368659,183.919052 213.764082,183.919052 213.391909,183.546879 L210.359272,180.514243 C209.9871,180.140445 209.9871,179.537493 210.359272,179.163695 C210.731445,178.793148 211.334397,178.793148 211.708195,179.163695 L214.740831,182.197957 Z M208.240002,185.680777 C208.240002,186.207344 207.814198,186.634773 207.287631,186.634773 C206.759438,186.634773 206.335259,186.207344 206.335259,185.680777 L206.335259,181.390229 C206.335259,180.863662 206.759438,180.436233 207.287631,180.436233 C207.814198,180.436233 208.240002,180.863662 208.240002,181.390229 L208.240002,185.680777 Z M201.181727,183.546879 C200.809554,183.919052 200.204977,183.919052 199.832805,183.546879 C199.460632,183.174707 199.460632,182.57013 199.832805,182.197957 L202.865442,179.163695 C203.237614,178.793148 203.842191,178.793148 204.214364,179.163695 C204.588161,179.537493 204.588161,180.140445 204.214364,180.514243 L201.181727,183.546879 Z M197.698908,177.04605 C197.17234,177.04605 196.746536,176.618621 196.746536,176.092054 C196.746536,175.565486 197.17234,175.139682 197.698908,175.139682 L201.989455,175.139682 C202.516022,175.139682 202.941826,175.565486 202.941826,176.092054 C202.941826,176.618621 202.516022,177.04605 201.989455,177.04605 L197.698908,177.04605 Z M199.832805,169.987775 C199.460632,169.615602 199.460632,169.011025 199.832805,168.638853 C200.204977,168.265055 200.809554,168.265055 201.181727,168.638853 L204.214364,171.67149 C204.588161,172.043662 204.588161,172.648239 204.214364,173.020412 C203.842191,173.392584 203.237614,173.392584 202.865442,173.020412 L199.832805,169.987775 Z M206.335259,166.504956 C206.335259,165.978389 206.759438,165.550959 207.287631,165.550959 C207.814198,165.550959 208.240002,165.978389 208.240002,166.504956 L208.240002,170.793878 C208.240002,171.320445 207.814198,171.747874 207.287631,171.747874 C206.759438,171.747874 206.335259,171.320445 206.335259,170.793878 L206.335259,166.504956 L206.335259,166.504956 Z" id="Fill-38" fill="#7FB3D5"></path>
            <path d="M775.001793,54.1316224 C775.37234,53.7594499 775.978543,53.7594499 776.350715,54.1316224 C776.722888,54.50542 776.722888,55.1083719 776.350715,55.4805444 L773.318078,58.5148064 C772.945906,58.8869789 772.341329,58.8869789 771.967531,58.5148064 C771.598609,58.142634 771.598609,57.5396821 771.967531,57.1658844 L775.001793,54.1316224 Z M778.484612,60.6324515 C779.01118,60.6324515 779.438609,61.0598811 779.438609,61.5864482 C779.438609,62.1130154 779.01118,62.5404449 778.484612,62.5404449 L774.194065,62.5404449 C773.669123,62.5404449 773.240069,62.1130154 773.240069,61.5864482 C773.240069,61.0598811 773.669123,60.6324515 774.194065,60.6324515 L778.484612,60.6324515 Z M776.350715,67.692352 C776.722888,68.0628993 776.722888,68.6691016 776.350715,69.0396489 C775.978543,69.4118214 775.37234,69.4118214 775.001793,69.0396489 L771.967531,66.0086373 C771.598609,65.6348396 771.598609,65.0318877 771.967531,64.65809 C772.341329,64.2859175 772.945906,64.2859175 773.318078,64.65809 L776.350715,67.692352 Z M769.849886,71.1751713 C769.849886,71.7017384 769.424082,72.1275428 768.897515,72.1275428 C768.369322,72.1275428 767.943518,71.7017384 767.943518,71.1751713 L767.943518,66.884624 C767.943518,66.3580569 768.369322,65.9322525 768.897515,65.9322525 C769.424082,65.9322525 769.849886,66.3580569 769.849886,66.884624 L769.849886,71.1751713 Z M762.791611,69.0396489 C762.419438,69.4118214 761.813236,69.4118214 761.444314,69.0396489 C761.068891,68.6691016 761.068891,68.0628993 761.444314,67.692352 L764.475326,64.65809 C764.849123,64.2859175 765.45045,64.2859175 765.825873,64.65809 C766.19642,65.0318877 766.19642,65.6348396 765.825873,66.0086373 L762.791611,69.0396489 Z M759.310417,62.5404449 C758.782224,62.5404449 758.35642,62.1130154 758.35642,61.5864482 C758.35642,61.0598811 758.782224,60.6324515 759.310417,60.6324515 L763.599339,60.6324515 C764.124281,60.6324515 764.553336,61.0598811 764.553336,61.5864482 C764.553336,62.1130154 764.124281,62.5404449 763.599339,62.5404449 L759.310417,62.5404449 Z M761.444314,55.4805444 C761.068891,55.1083719 761.068891,54.50542 761.444314,54.1316224 C761.813236,53.7594499 762.419438,53.7594499 762.791611,54.1316224 L765.825873,57.1658844 C766.19642,57.5396821 766.19642,58.142634 765.825873,58.5148064 C765.45045,58.8869789 764.849123,58.8869789 764.475326,58.5148064 L761.444314,55.4805444 Z M767.943518,51.9993504 C767.943518,51.4727832 768.369322,51.0453537 768.897515,51.0453537 C769.424082,51.0453537 769.849886,51.4727832 769.849886,51.9993504 L769.849886,56.2882724 C769.849886,56.8148396 769.424082,57.2422691 768.897515,57.2422691 C768.369322,57.2422691 767.943518,56.8148396 767.943518,56.2882724 L767.943518,51.9993504 L767.943518,51.9993504 Z" id="Fill-39" fill="#7FB3D5"></path>
            <path d="M847.958974,489.792816 C848.332772,489.422269 848.935724,489.422269 849.307896,489.792816 C849.681694,490.164989 849.681694,490.767941 849.307896,491.143364 L846.275259,494.174375 C845.903087,494.548173 845.296884,494.548173 844.926337,494.174375 C844.552539,493.803828 844.552539,493.199251 844.926337,492.827078 L847.958974,489.792816 Z M851.443418,496.293646 C851.96836,496.293646 852.39579,496.7227 852.39579,497.247642 C852.39579,497.772584 851.96836,498.201639 851.443418,498.201639 L847.152871,498.201639 C846.624679,498.201639 846.198874,497.772584 846.198874,497.247642 C846.198874,496.7227 846.624679,496.293646 847.152871,496.293646 L851.443418,496.293646 Z M849.307896,503.351921 C849.681694,503.725719 849.681694,504.327045 849.307896,504.702468 C848.935724,505.073015 848.332772,505.073015 847.958974,504.702468 L844.926337,501.669831 C844.552539,501.296034 844.552539,500.689831 844.926337,500.319284 C845.296884,499.945486 845.903087,499.945486 846.275259,500.319284 L849.307896,503.351921 Z M842.808692,506.83474 C842.808692,507.362932 842.379637,507.788737 841.85307,507.788737 C841.328128,507.788737 840.900699,507.362932 840.900699,506.83474 L840.900699,502.545818 C840.900699,502.019251 841.328128,501.591821 841.85307,501.591821 C842.379637,501.591821 842.808692,502.019251 842.808692,502.545818 L842.808692,506.83474 Z M835.748792,504.702468 C835.376619,505.073015 834.773667,505.073015 834.398244,504.702468 C834.029322,504.327045 834.029322,503.725719 834.398244,503.351921 L837.434132,500.319284 C837.806304,499.945486 838.410881,499.945486 838.783054,500.319284 C839.155226,500.689831 839.155226,501.296034 838.783054,501.669831 L835.748792,504.702468 Z M832.267598,498.201639 C831.742656,498.201639 831.311976,497.772584 831.311976,497.247642 C831.311976,496.7227 831.742656,496.293646 832.267598,496.293646 L836.554894,496.293646 C837.083087,496.293646 837.508891,496.7227 837.508891,497.247642 C837.508891,497.772584 837.083087,498.201639 836.554894,498.201639 L832.267598,498.201639 Z M834.398244,491.143364 C834.029322,490.767941 834.029322,490.164989 834.398244,489.792816 C834.773667,489.422269 835.376619,489.422269 835.748792,489.792816 L838.783054,492.827078 C839.155226,493.199251 839.155226,493.803828 838.783054,494.174375 C838.410881,494.548173 837.806304,494.548173 837.434132,494.174375 L834.398244,491.143364 Z M840.900699,487.658919 C840.900699,487.132352 841.328128,486.704923 841.85307,486.704923 C842.379637,486.704923 842.808692,487.132352 842.808692,487.658919 L842.808692,491.949466 C842.808692,492.474408 842.379637,492.903463 841.85307,492.903463 C841.328128,492.903463 840.900699,492.474408 840.900699,491.949466 L840.900699,487.658919 L840.900699,487.658919 Z" id="Fill-40" fill="#609DF6"></path>
            <path d="M28.7163538,338.328372 C29.0885262,337.956199 29.6947285,337.956199 30.0652758,338.328372 C30.4374483,338.698919 30.4374483,339.303496 30.0652758,339.678919 L27.0310138,342.709931 C26.6604665,343.082103 26.0558894,343.082103 25.6820917,342.709931 C25.3115445,342.339384 25.3115445,341.734806 25.6820917,341.361009 L28.7163538,338.328372 Z M32.199173,344.829201 C32.7257402,344.829201 33.1531697,345.256631 33.1531697,345.783198 C33.1531697,346.30814 32.7257402,346.735569 32.199173,346.735569 L27.9102509,346.735569 C27.3836838,346.735569 26.9562543,346.30814 26.9562543,345.783198 C26.9562543,345.256631 27.3836838,344.829201 27.9102509,344.829201 L32.199173,344.829201 Z M30.0652758,351.885851 C30.4374483,352.261274 30.4374483,352.864226 30.0652758,353.236398 C29.6947285,353.606946 29.0885262,353.606946 28.7163538,353.236398 L25.6820917,350.202136 C25.3115445,349.831589 25.3115445,349.225387 25.6820917,348.85484 C26.0558894,348.482667 26.6604665,348.482667 27.0310138,348.85484 L30.0652758,351.885851 Z M23.5660718,355.370296 C23.5660718,355.896863 23.1370171,356.324292 22.6120751,356.324292 C22.085508,356.324292 21.6580785,355.896863 21.6580785,355.370296 L21.6580785,351.079748 C21.6580785,350.554806 22.085508,350.125752 22.6120751,350.125752 C23.1370171,350.125752 23.5660718,350.554806 23.5660718,351.079748 L23.5660718,355.370296 Z M16.5061713,353.236398 C16.1339989,353.606946 15.5294217,353.606946 15.1572493,353.236398 C14.7850768,352.864226 14.7850768,352.261274 15.1572493,351.885851 L18.1898861,348.85484 C18.5636838,348.482667 19.1682609,348.482667 19.5388081,348.85484 C19.9126058,349.225387 19.9126058,349.831589 19.5388081,350.202136 L16.5061713,353.236398 Z M13.0233521,346.735569 C12.4967849,346.735569 12.0693554,346.30814 12.0693554,345.783198 C12.0693554,345.256631 12.4967849,344.829201 13.0233521,344.829201 L17.3138994,344.829201 C17.8404665,344.829201 18.267896,345.256631 18.267896,345.783198 C18.267896,346.30814 17.8404665,346.735569 17.3138994,346.735569 L13.0233521,346.735569 Z M15.1572493,339.678919 C14.7850768,339.303496 14.7850768,338.698919 15.1572493,338.328372 C15.5294217,337.956199 16.1339989,337.956199 16.5061713,338.328372 L19.5388081,341.361009 C19.9126058,341.734806 19.9126058,342.339384 19.5388081,342.709931 C19.1682609,343.082103 18.5636838,343.082103 18.1898861,342.709931 L15.1572493,339.678919 Z M21.6580785,336.1961 C21.6580785,335.667908 22.085508,335.240478 22.6120751,335.240478 C23.1370171,335.240478 23.5660718,335.667908 23.5660718,336.1961 L23.5660718,340.485022 C23.5660718,341.009964 23.1370171,341.439019 22.6120751,341.439019 C22.085508,341.439019 21.6580785,341.009964 21.6580785,340.485022 L21.6580785,336.1961 L21.6580785,336.1961 Z" id="Fill-41" fill="#7FB3D5"></path>
            <path d="M969.696752,428.213712 C970.067299,427.839914 970.671876,427.839914 971.044049,428.213712 C971.417846,428.584259 971.417846,429.190461 971.044049,429.562634 L968.011412,432.596896 C967.639239,432.967443 967.034662,432.967443 966.66249,432.596896 C966.288692,432.221473 966.288692,431.620146 966.66249,431.244724 L969.696752,428.213712 Z M973.179571,434.712916 C973.702888,434.712916 974.131942,435.140345 974.131942,435.666913 C974.131942,436.19348 973.702888,436.620909 973.179571,436.620909 L968.889024,436.620909 C968.362457,436.620909 967.935027,436.19348 967.935027,435.666913 C967.935027,435.140345 968.362457,434.712916 968.889024,434.712916 L973.179571,434.712916 Z M971.044049,441.772816 C971.417846,442.146614 971.417846,442.749566 971.044049,443.121738 C970.671876,443.493911 970.067299,443.493911 969.696752,443.121738 L966.66249,440.087476 C966.288692,439.715304 966.288692,439.110727 966.66249,438.74018 C967.034662,438.366382 967.639239,438.366382 968.011412,438.74018 L971.044049,441.772816 Z M964.543219,445.255636 C964.543219,445.782203 964.117415,446.209632 963.589223,446.209632 C963.062656,446.209632 962.638476,445.782203 962.638476,445.255636 L962.638476,440.966714 C962.638476,440.440146 963.062656,440.011092 963.589223,440.011092 C964.117415,440.011092 964.543219,440.440146 964.543219,440.966714 L964.543219,445.255636 Z M957.484944,443.121738 C957.112772,443.493911 956.508195,443.493911 956.137647,443.121738 C955.76385,442.749566 955.76385,442.146614 956.137647,441.772816 L959.170284,438.74018 C959.542457,438.366382 960.145408,438.366382 960.519206,438.74018 C960.889753,439.110727 960.889753,439.715304 960.519206,440.087476 L957.484944,443.121738 Z M954.002125,436.620909 C953.477183,436.620909 953.046503,436.19348 953.046503,435.666913 C953.046503,435.140345 953.477183,434.712916 954.002125,434.712916 L958.292672,434.712916 C958.819239,434.712916 959.245044,435.140345 959.245044,435.666913 C959.245044,436.19348 958.819239,436.620909 958.292672,436.620909 L954.002125,436.620909 Z M956.137647,429.562634 C955.76385,429.190461 955.76385,428.584259 956.137647,428.213712 C956.508195,427.839914 957.112772,427.839914 957.484944,428.213712 L960.519206,431.244724 C960.889753,431.620146 960.889753,432.221473 960.519206,432.596896 C960.145408,432.967443 959.542457,432.967443 959.170284,432.596896 L956.137647,429.562634 Z M962.638476,426.079815 C962.638476,425.553248 963.062656,425.127443 963.589223,425.127443 C964.117415,425.127443 964.543219,425.553248 964.543219,426.079815 L964.543219,430.368737 C964.543219,430.895304 964.117415,431.322733 963.589223,431.322733 C963.062656,431.322733 962.638476,430.895304 962.638476,430.368737 L962.638476,426.079815 L962.638476,426.079815 Z" id="Fill-42" fill="#747F86"></path>
            <path d="M899.63244,53.9886041 L906.542821,53.9886041 C907.805607,53.9886041 908.84249,55.0206107 908.84249,56.2882724 L908.84249,63.1986539 C908.84249,64.4614399 907.805607,65.4983222 906.542821,65.4983222 L899.63244,65.4983222 C898.364778,65.4983222 897.331146,64.4614399 897.331146,63.1986539 L897.331146,56.2882724 C897.331146,55.0206107 898.364778,53.9886041 899.63244,53.9886041" id="Fill-43" fill="#AFB3CF"></path>
            <path d="M923.23045,53.9886041 L930.140831,53.9886041 C931.403617,53.9886041 932.4405,55.0206107 932.4405,56.2882724 L932.4405,63.1986539 C932.4405,64.4614399 931.403617,65.4983222 930.140831,65.4983222 L923.23045,65.4983222 C921.964413,65.4983222 920.929156,64.4614399 920.929156,63.1986539 L920.929156,56.2882724 C920.929156,55.0206107 921.964413,53.9886041 923.23045,53.9886041" id="Fill-44" fill="#FFFFFE"></path>
            <path d="M946.830085,53.9886041 L953.740467,53.9886041 C955.004878,53.9886041 956.04176,55.0206107 956.04176,56.2882724 L956.04176,63.1986539 C956.04176,64.4614399 955.004878,65.4983222 953.740467,65.4983222 L946.830085,65.4983222 C945.564049,65.4983222 944.530417,64.4614399 944.530417,63.1986539 L944.530417,56.2882724 C944.530417,55.0206107 945.564049,53.9886041 946.830085,53.9886041" id="Fill-45" fill="#AFB3CF"></path>
            <path d="M970.42972,53.9886041 L977.338476,53.9886041 C978.604513,53.9886041 979.63977,55.0206107 979.63977,56.2882724 L979.63977,63.1986539 C979.63977,64.4614399 978.604513,65.4983222 977.338476,65.4983222 L970.42972,65.4983222 C969.163684,65.4983222 968.128427,64.4614399 968.128427,63.1986539 L968.128427,56.2882724 C968.128427,55.0206107 969.163684,53.9886041 970.42972,53.9886041" id="Fill-46" fill="#AFB3CF"></path>
            <path d="M30.5268347,106.622568 C28.1442808,107.31003 25.8836174,108.278654 23.7871,109.491059 C21.6353256,110.735967 19.6493222,112.234408 17.8729707,113.949002 C17.5251763,114.28217 17.0099856,114.332551 16.613435,114.101772 L8.62066553,109.487808 L8.57841014,109.461805 C8.11847647,109.214773 7.59841014,109.167642 7.1222244,109.296034 C6.62978659,109.42605 6.18773021,109.744591 5.91794579,110.214276 L5.88381644,110.269533 L0.260599194,120.007775 C-0.00918521742,120.47746 -0.0628170582,121.018654 0.0688247328,121.511092 C0.200466524,122.003529 0.517381947,122.443961 0.987066856,122.71537 L1.0423239,122.7495 L8.96845989,127.326083 C9.38451296,127.564989 9.57628742,128.04605 9.46577332,128.489732 L9.46739853,128.489732 C9.17486122,129.668007 8.95220782,130.882037 8.80106354,132.123695 C8.65316967,133.334475 8.57678493,134.571258 8.57678493,135.829168 C8.57678493,137.087078 8.65316967,138.323861 8.80106354,139.534641 C8.95220782,140.774674 9.17648642,141.988704 9.46902374,143.166979 C9.58928908,143.657792 9.34713319,144.151855 8.91157763,144.364757 L0.987066856,148.94134 L0.987066856,148.942966 C0.517381947,149.21275 0.200466524,149.654806 0.0688247328,150.147244 C-0.0628170582,150.639682 -0.00918521742,151.182501 0.260599194,151.650561 L5.91632059,161.44406 L5.91794579,161.44406 C6.18773021,161.913745 6.62978659,162.232286 7.12059919,162.363927 C7.613037,162.493944 8.15260583,162.441937 8.62066553,162.170528 L8.6807982,162.138024 L16.6166854,157.556564 C17.0327385,157.317659 17.5430536,157.394044 17.8729707,157.709334 C19.6493222,159.422302 21.6353256,160.922369 23.7854748,162.167277 C25.8966191,163.386183 28.1735345,164.359682 30.5707153,165.04877 C31.0355246,165.182037 31.3394383,165.604591 31.3394383,166.064525 L31.3394383,175.284326 C31.3394383,175.82552 31.5620917,176.321208 31.9212625,176.678753 C32.2804334,177.037924 32.7744964,177.262203 33.3173156,177.262203 L44.6287584,177.262203 C45.1715776,177.262203 45.6656407,177.037924 46.0231863,176.678753 C46.3839823,176.321208 46.6066357,175.82552 46.6066357,175.284326 L46.6066357,166.064525 C46.6066357,165.565586 46.9528048,165.147908 47.4176141,165.035768 C49.8034184,164.348306 52.0624566,163.379682 54.158974,162.167277 C56.3123737,160.922369 58.2967518,159.422302 60.0731033,157.709334 C60.4355246,157.361539 60.9848446,157.322534 61.3862708,157.589068 L69.3221581,162.170528 C69.791843,162.441937 70.333037,162.495569 70.8254748,162.363927 C71.3162874,162.232286 71.7567186,161.913745 72.0281282,161.44406 L72.0622576,161.388803 L77.6854748,151.647311 C77.9552592,151.177626 78.0088911,150.638057 77.8772493,150.145619 C77.7456075,149.653181 77.4303173,149.21275 76.9638828,148.942966 L68.9776141,144.332253 C68.5615611,144.093347 68.3697866,143.612286 68.4803007,143.168604 L68.4770503,143.168604 C68.7695876,141.988704 68.9954914,140.776299 69.1450105,139.534641 C69.2929043,138.323861 69.3692891,137.087078 69.3692891,135.829168 C69.3692891,134.571258 69.2929043,133.33285 69.1450105,132.123695 C68.9954914,130.882037 68.7712128,129.668007 68.4770503,128.489732 C68.3584101,128.000544 68.6021912,127.506481 69.0361216,127.291954 L76.9638828,122.71537 C77.4303173,122.445586 77.7456075,122.005155 77.8772493,121.511092 C78.0088911,121.020279 77.9552592,120.48071 77.6854748,120.012651 L77.6529707,119.952518 L72.0313786,110.214276 L72.0281282,110.214276 C71.7567186,109.744591 71.3162874,109.42605 70.8254748,109.296034 C70.333037,109.164392 69.791843,109.218024 69.3221581,109.487808 L69.3254085,109.487808 L61.332639,114.101772 C60.9068347,114.348803 60.3786423,114.264292 60.0503504,113.926249 C58.2788745,112.223032 56.3009972,110.729466 54.158974,109.491059 C52.0494549,108.270528 49.7741647,107.297029 47.3737335,106.609566 C46.9105494,106.476299 46.6066357,106.05537 46.6066357,105.593811 L46.6066357,96.3756356 C46.6066357,95.8328164 46.3839823,95.3371282 46.0231863,94.9795826 C45.6656407,94.6204117 45.1715776,94.3977583 44.6287584,94.3977583 L33.3173156,94.3977583 C32.7744964,94.3977583 32.2804334,94.6204117 31.9212625,94.9795826 C31.5620917,95.3371282 31.3394383,95.8328164 31.3394383,96.3756356 L31.3394383,105.593811 C31.3394383,106.09275 30.991644,106.512054 30.5268347,106.622568 Z M26.813236,123.669367 C29.9238828,120.557095 34.2241813,118.631224 38.973037,118.631224 C43.7218927,118.631224 48.0221912,120.557095 51.1344632,123.669367 C54.2467352,126.780014 56.1709806,131.080312 56.1709806,135.829168 C56.1709806,140.578024 54.2467352,144.876697 51.1344632,147.990594 C48.0221912,151.101241 43.7218927,153.028737 38.973037,153.028737 C34.2241813,153.028737 29.9238828,151.101241 26.813236,147.990594 C23.6993388,144.876697 21.7750934,140.578024 21.7750934,135.829168 C21.7750934,131.080312 23.6993388,126.780014 26.813236,123.669367 Z" id="Fill-47" fill="#D4D6E5"></path>
            <path d="M561.670583,279.632385 C551.626802,288.782302 550.058476,289.867941 550.058476,289.867941 C550.058476,289.867941 543.426005,302.461672 545.977581,302.450303 C548.530782,302.44217 550.565541,300.137626 550.565541,300.137626 C550.565541,300.137626 553.052108,303.31003 555.286768,301.987112 C557.519803,300.662568 558.698078,300.168505 558.698078,300.168505 C558.698078,300.168505 561.26103,302.711954 563.375425,301.055868 C565.48982,299.398156 575.585607,288.499516 575.585607,288.499516 L588.928559,279.752651 L583.609256,274.959914 L561.670583,279.632385" id="Fill-48" fill="#E086A3"></path>
            <path d="M724.387962,548.488803 C724.184811,549.897858 722.540102,556.985387 722.56773,557.162534 C722.857017,559.249301 723.368957,563.432584 723.368957,563.432584 C723.368957,563.432584 719.284811,568.129433 715.493203,568.813646 C711.704845,569.496233 694.5004,570.264956 694.282622,569.323961 C694.064845,568.384591 698.582921,560.955768 698.582921,560.955768 C698.582921,560.955768 703.468294,556.858621 704.123253,547.380412 C704.778211,537.900578 724.387962,548.488803 724.387962,548.488803" id="Fill-49" fill="#EFC3CC"></path>
            <path d="M702.044612,562.878389 L704.152506,562.122667 C704.152506,562.122667 708.927365,564.636863 714.932506,562.587476 C720.940898,560.533214 722.56773,557.162534 722.56773,557.162534 C722.56773,557.162534 722.858642,556.478322 723.5071,556.478322 C724.150682,556.478322 724.358709,556.478322 724.922656,556.478322 C725.486603,556.478322 727.050052,556.723728 727.696884,558.261175 C728.342092,559.800246 729.697515,569.185818 727.852904,574.388107 C726.008294,579.58877 723.422589,578.904558 723.422589,578.904558 C723.422589,578.904558 713.159405,575.876796 706.236022,578.317858 C699.312639,580.76217 692.972705,583.302369 692.972705,583.302369 C692.972705,583.302369 693.304248,569.522236 702.044612,562.878389" id="Fill-50" fill="#0D181F"></path>
            <path d="M655.308526,581.893314 L654.546304,579.652153 C654.546304,579.652153 654.546304,577.945685 654.546304,576.929931 C654.546304,575.910926 654.972108,572.845785 657.933236,572.845785 C660.892738,572.845785 666.650848,572.845785 669.278808,572.845785 C671.908394,572.845785 686.130583,565.615238 697.060102,556.723728 C697.060102,556.723728 697.832075,555.818488 698.977846,556.478322 C700.123617,557.138156 703.609687,559.923762 703.962357,560.214674 C704.316652,560.510461 704.360533,561.706614 704.152506,562.122667 C703.941229,562.537095 693.825939,582.5694 693.825939,582.5694 C693.825939,582.5694 664.044015,586.478024 655.308526,581.893314" id="Fill-51" fill="#172935"></path>
            <path d="M654.546304,579.652153 C654.546304,579.652153 653.876719,580.206349 653.876719,580.825553 C653.876719,581.443131 653.876719,582.519019 653.876719,583.006581 C653.876719,583.497394 655.193137,585.785685 658.128261,585.785685 C661.063385,585.785685 685.508128,585.785685 689.615027,585.785685 C693.720301,585.785685 698.053103,584.745553 700.856586,583.336498 C703.660069,581.932319 708.96637,580.367244 708.96637,580.367244 C708.96637,580.367244 709.715591,580.113712 709.715591,581.404127 C709.715591,582.694541 709.715591,583.277991 709.715591,583.905321 C709.715591,584.531025 709.333667,586.232617 711.901495,586.232617 C714.469322,586.232617 726.050549,586.232617 727.219073,586.232617 C728.385972,586.232617 729.721893,585.567908 729.721893,583.182103 C729.721893,580.797924 729.721893,578.53076 729.721893,577.045321 C729.721893,575.561506 728.819903,574.388107 727.852904,574.388107 C726.884281,574.388107 721.014032,574.388107 716.075027,574.388107 C711.136022,574.388107 707.198145,575.598886 701.056486,578.491755 C694.918078,581.384624 689.312738,582.245984 682.902921,582.245984 C676.497979,582.245984 668.38982,582.245984 665.287299,582.245984 C662.181528,582.245984 656.642821,581.540644 654.546304,579.652153" id="Fill-52" fill="#0D181F"></path>
            <path d="M791.169355,548.488803 C790.964579,549.897858 789.321495,556.985387 789.349123,557.162534 C789.63841,559.249301 790.15035,563.432584 790.15035,563.432584 C790.15035,563.432584 786.066205,568.129433 782.274596,568.813646 C778.484612,569.496233 761.283418,570.264956 761.06239,569.323961 C760.842987,568.384591 765.364314,560.955768 765.364314,560.955768 C765.364314,560.955768 770.249687,556.858621 770.904646,547.380412 C771.559604,537.900578 791.169355,548.488803 791.169355,548.488803" id="Fill-53" fill="#EFC3CC"></path>
            <path d="M768.826005,562.878389 L770.932274,562.122667 C770.932274,562.122667 775.707133,564.636863 781.712274,562.587476 C787.722291,560.533214 789.347498,557.162534 789.347498,557.162534 C789.347498,557.162534 789.640035,556.478322 790.286868,556.478322 C790.932075,556.478322 791.141727,556.478322 791.704049,556.478322 C792.26637,556.478322 793.831445,556.723728 794.478277,558.261175 C795.123485,559.800246 796.478908,569.185818 794.632672,574.388107 C792.788062,579.58877 790.202357,578.904558 790.202357,578.904558 C790.202357,578.904558 779.940798,575.876796 773.01904,578.317858 C766.094032,580.76217 759.754098,583.302369 759.754098,583.302369 C759.754098,583.302369 760.087266,569.522236 768.826005,562.878389" id="Fill-54" fill="#0D181F"></path>
            <path d="M722.088294,581.893314 L721.326072,579.652153 C721.326072,579.652153 721.326072,577.945685 721.326072,576.929931 C721.326072,575.910926 721.753501,572.845785 724.713004,572.845785 C727.675757,572.845785 733.430616,572.845785 736.060201,572.845785 C738.688161,572.845785 752.911976,565.615238 763.83987,556.723728 C763.83987,556.723728 764.611843,555.818488 765.757614,556.478322 C766.90501,557.138156 770.389455,559.923762 770.74375,560.214674 C771.098045,560.510461 771.138675,561.706614 770.932274,562.122667 C770.724248,562.537095 760.608957,582.5694 760.608957,582.5694 C760.608957,582.5694 730.825408,586.478024 722.088294,581.893314" id="Fill-55" fill="#12202A"></path>
            <path d="M721.326072,579.652153 C721.326072,579.652153 720.659737,580.206349 720.659737,580.825553 C720.659737,581.443131 720.659737,582.519019 720.659737,583.006581 C720.659737,583.497394 721.972904,585.785685 724.909654,585.785685 C727.846404,585.785685 752.289521,585.785685 756.394795,585.785685 C760.501694,585.785685 764.834496,584.745553 767.637979,583.336498 C770.443087,581.932319 775.746138,580.367244 775.746138,580.367244 C775.746138,580.367244 776.496984,580.113712 776.496984,581.404127 C776.496984,582.694541 776.496984,583.277991 776.496984,583.905321 C776.496984,584.531025 776.11506,586.232617 778.682888,586.232617 C781.253966,586.232617 792.830317,586.232617 794.000467,586.232617 C795.167365,586.232617 796.501661,585.567908 796.501661,583.182103 C796.501661,580.797924 796.501661,578.53076 796.501661,577.045321 C796.501661,575.561506 795.601296,574.388107 794.632672,574.388107 C793.665674,574.388107 787.7938,574.388107 782.85317,574.388107 C777.91579,574.388107 773.979538,575.598886 767.837879,578.491755 C761.697846,581.384624 756.092506,582.245984 749.685939,582.245984 C743.279372,582.245984 735.169588,582.245984 732.065442,582.245984 C728.962921,582.245984 723.424214,581.540644 721.326072,579.652153" id="Fill-56" fill="#0D181F"></path>
            <path d="M604.312772,120.63673 C604.312772,120.63673 597.215491,132.546249 601.670185,159.625453 C606.121627,186.703032 636.854297,292.091224 615.983385,347.084989 C615.983385,347.084989 614.694596,350.857095 618.281428,352.932485 C621.869886,355.0095 672.558476,363.806747 709.618078,348.021108 C746.67768,332.230594 681.589753,128.666879 604.312772,120.63673" id="Fill-57" fill="#2975AD"></path>
            <path d="M702.855591,553.40668 C702.855591,553.40668 711.15715,558.448073 725.200566,555.402435 C725.200566,555.402435 728.776022,554.077891 729.572374,550.369168 C730.368725,546.657194 756.607697,325.791523 759.784977,286.581772 C762.965508,247.373646 739.006702,223.429466 702.307896,198.261506 C665.610715,173.093546 696.323883,194.343131 693.478145,192.729301 C684.380234,226.416597 673.694496,248.085486 673.694496,248.085486 L673.613205,264.690229 C673.60836,265.834375 674.177183,266.895636 674.448593,267.979649 C685.633269,312.432319 686.954563,347.900843 688.633402,392.618422 C688.701661,393.923463 687.976818,359.053015 688.786171,396.523795 C689.593899,433.997825 698.083982,541.750694 698.6138,545.989234 C699.146868,550.227775 700.997979,553.008505 702.855591,553.40668" id="Fill-58" fill="#172935"></path>
            <path d="M611.076884,162.849864 L621.684612,180.06406 C621.684612,180.06406 666.632971,257.276034 672.86239,268.273811 C679.09181,279.269964 705.728957,277.709765 705.728957,277.709765 L648.828825,112.32217 C648.828825,112.32217 628.952539,109.175768 621.245806,109.339914 C613.535823,109.50406 608.587067,121.303065 608.587067,121.303065 L611.076884,162.849864" id="Fill-59" fill="#130E24"></path>
            <path d="M604.312772,120.63673 C604.312772,120.63673 597.215491,132.546249 601.670185,159.625453 C605.112374,180.553248 624.244314,248.256133 623.124546,303.321407 L623.132672,303.324657 C632.921296,203.096498 614.884745,139.689035 608.587067,121.303065 C607.168261,121.021904 605.742954,120.784624 604.312772,120.63673" id="Fill-60" fill="#4584B8"></path>
            <path d="M769.012904,553.557825 C769.012904,553.557825 776.724513,557.871125 790.766304,554.825486 C790.766304,554.825486 794.34176,553.499317 795.136486,549.792219 C795.929588,546.080246 806.433302,472.027675 809.610583,432.819549 C812.789488,393.609798 839.438012,246.509035 769.090914,198.261506 C698.742191,150.013977 683.577382,233.25872 683.577382,233.25872 C683.577382,233.25872 749.208128,260.883994 750.795956,334.533513 C752.385408,408.181407 764.242921,541.901838 764.771113,546.142004 C765.302556,550.377294 767.155292,553.161274 769.012904,553.557825" id="Fill-61" fill="#12202A"></path>
            <path d="M774.792141,555.36668 C778.469986,556.041141 783.851047,556.323927 790.766304,554.825486 C790.766304,554.825486 794.34176,553.499317 795.136486,549.792219 C795.929588,546.083496 806.433302,472.027675 809.610583,432.819549 C812.024015,403.07338 827.93317,311.219914 804.747962,247.550793 C804.431047,247.773447 768.218178,273.151059 747.37652,308.749599 C749.367399,316.63348 750.596055,325.212949 750.795956,334.533513 C751.064115,346.961473 751.628062,361.100777 752.375657,376.041307 C761.315923,366.446083 773.196188,353.533811 779.227332,346.295138 C789.649787,333.789168 801.375657,338.217858 805.544314,344.211622 C809.712971,350.203762 793.818443,501.068505 791.734928,520.349964 C790.26574,533.91882 780.468991,548.134508 774.792141,555.36668" id="Fill-62" fill="#22333F"></path>
            <path d="M593.160599,78.7470121 C593.267863,78.7356356 593.578277,80.0358015 594.870317,82.2168297 L588.483253,88.938687 C588.483253,88.938687 590.110085,91.0027003 592.453634,93.3527501 C589.551014,94.3538777 587.054695,96.0944748 585.470118,98.416896 C585.470118,98.416896 578.616619,119.536465 580.605873,121.584226 C580.535989,121.670362 580.46448,121.754873 580.38972,121.842634 C568.046271,136.419118 560.467929,131.592253 558.923982,130.283961 C557.380035,128.977294 549.796818,122.023032 548.977714,121.862136 C548.16186,121.699616 545.231611,125.159682 543.258609,123.485719 C541.279107,121.811755 531.692009,110.085884 521.254928,93.6095328 C510.814596,77.1299308 516.707598,58.1491348 516.707598,58.1491348 C542.156719,37.4878744 563.300666,76.3953371 565.860367,69.8652542 C568.420069,63.3367965 575.7205,62.7305942 579.767266,69.9773935 C580.332838,70.9898976 593.01108,77.664624 593.160599,78.7470121" id="Fill-63" fill="#EFC3CC"></path>
            <path d="M593.160599,78.7470121 C593.267863,78.7356356 593.578277,80.0358015 594.870317,82.2168297 L588.483253,88.938687 C588.483253,88.938687 590.110085,91.0027003 592.453634,93.3527501 C591.738543,93.5997816 591.042954,93.8923189 590.38637,94.2271116 C590.269355,93.0065809 590.066205,92.1013404 589.739538,91.7242923 C588.005442,89.7236622 584.547001,85.4314897 584.547001,85.4314897 C584.547001,85.4314897 579.707133,87.684027 578.797017,82.3435958 C577.883651,77.0031646 573.780002,71.7911248 569.479704,72.6378578 C565.182656,73.4845908 567.64972,79.0801796 567.64972,79.0801796 L577.818642,93.7427998 L576.125176,111.200777 C576.125176,111.200777 560.232274,114.067642 563.49244,107.297029 C566.755856,100.526415 558.407166,95.3062492 548.766437,84.3637285 C539.127332,73.4195826 533.783651,74.591357 531.306835,76.284823 C529.762888,77.3412078 522.592473,82.1501962 517.414563,85.6183885 C514.791478,78.0449225 514.788228,70.6648562 515.344049,65.4625676 C521.163916,60.9997484 529.418344,56.1891348 537.125077,52.5811746 C552.717316,56.010362 564.030384,74.5295991 565.860367,69.8652542 C568.420069,63.3367965 575.7205,62.7305942 579.767266,69.9773935 C580.332838,70.9898976 593.01108,77.664624 593.160599,78.7470121" id="Fill-64" fill="#E086A3"></path>
            <path d="M596.586536,78.7242592 C596.586536,78.7242592 601.541793,79.052551 605.315525,79.216697 C609.089256,79.3808429 612.191777,101.399151 612.191777,101.399151 L605.760831,111.178024 L604.260765,113.454939 L599.393269,120.857758 L598.93171,118.574342 C598.93171,118.574342 593.836685,114.626714 590.626901,119.07003 C587.418742,123.511722 579.385342,111.610329 579.385342,111.610329 C579.385342,111.610329 577.925906,85.5094996 596.586536,78.7242592" id="Fill-65" fill="#EFC3CC"></path>
            <path d="M596.586536,78.7242592 C596.586536,78.7242592 601.541793,79.052551 605.315525,79.216697 C609.089256,79.3808429 612.191777,101.400777 612.191777,101.400777 L605.760831,111.178024 L604.260765,113.454939 L599.393269,120.859384 L598.93171,118.574342 C598.93171,118.574342 593.836685,114.626714 590.626901,119.07003 C589.828924,120.175171 588.731909,120.267808 587.535757,119.783496 L589.739538,110.615702 C589.739538,110.615702 591.475259,93.7249225 589.739538,91.7242923 C588.684778,90.5053869 586.989687,88.4381232 585.824413,87.0079408 C588.330483,83.4844913 591.792175,80.4681066 596.586536,78.7242592" id="Fill-66" fill="#E086A3"></path>
            <path d="M557.011113,78.6690021 C556.998112,78.6738777 545.38113,84.344226 536.185707,66.8976257 C536.185707,66.8976257 524.279438,79.5173603 516.519073,82.6735129 C516.366304,82.736896 516.200533,82.7872774 516.036387,82.8360336 L516.519073,82.6735129 C516.519073,82.6735129 513.203651,82.792153 509.564811,81.1880734 C504.939471,79.538488 499.054596,76.0589192 495.391379,68.7292343 C488.617515,55.1798811 496.69317,48.2743753 503.988725,49.1861166 C503.988725,49.1861166 514.931246,25.3443255 521.055027,18.3104283 C527.178808,11.2749059 541.508261,14.2717882 541.508261,14.2717882 C541.508261,14.2717882 539.42312,8.14638189 541.899936,6.71457426 C544.373501,5.28114143 557.789588,7.93347974 563.003253,23.4785875 C563.003253,23.4785875 573.425707,21.7769955 578.905906,27.0849225 C584.371478,32.3798479 596.523153,78.4821033 596.586536,78.7242592 C596.848195,81.6658844 595.684546,84.6286373 592.721793,84.735901 C588.177714,84.744027 583.345972,83.3739773 579.905408,78.7470121 C579.905408,78.7470121 576.050417,64.9912575 569.271677,67.0715229 C569.271677,67.0715229 563.510317,67.1251547 566.208161,76.8081398 C566.208161,76.8081398 568.538709,81.0060502 571.738742,83.8014068 C574.946901,86.5951381 583.695392,92.4166306 589.788294,106.640445 C595.876321,120.865884 583.01118,129.858156 579.477979,134.026813 C575.948029,138.19547 570.016022,141.445884 565.754729,137.834674 C561.490185,134.226714 551.878709,126.0828 550.419272,124.850893 C548.964712,123.61411 548.623418,122.260312 548.977714,121.862136 C548.977714,121.862136 555.18113,115.280047 559.889355,110.75872 C564.595956,106.232518 568.2738,103.299019 568.27705,98.1292343 C568.278675,92.9627003 568.15516,88.8801796 563.409554,83.5885046 C561.462556,81.4139772 559.195392,79.8066472 557.011113,78.6690021" id="Fill-67" fill="#130E24"></path>
            <path d="M536.185707,66.8976257 C536.185707,66.8976257 524.279438,79.5173603 516.519073,82.6735129 C516.366304,82.736896 516.200533,82.7872774 516.036387,82.8360336 L516.519073,82.6735129 C516.519073,82.6735129 513.203651,82.792153 509.564811,81.1880734 C504.939471,79.538488 499.054596,76.0589192 495.391379,68.7292343 C488.617515,55.1798811 496.69317,48.2743753 503.988725,49.1861166 C503.988725,49.1861166 514.931246,25.3443255 521.055027,18.3104283 C527.178808,11.2749059 541.508261,14.2717882 541.508261,14.2717882 C541.508261,14.2717882 539.42312,8.14638189 541.899936,6.71457426 C544.373501,5.28114143 557.789588,7.93347974 563.003253,23.4785875 C563.003253,23.4785875 563.043883,39.0090685 536.185707,66.8976257" id="Fill-68" fill="#16122F"></path>
            <path d="M493.951445,65.3423023 C490.018443,54.0389855 497.328626,48.3540104 503.988725,49.1861166 C503.988725,49.1861166 546.20186,59.1275096 551.935591,9.02724425 C552.580798,9.41404358 553.229256,9.84472352 553.879339,10.3290353 C554.436785,31.0569292 548.254496,69.4101962 493.951445,65.3423023" id="Fill-69" fill="#1E1D43"></path>
            <path d="M541.017448,101.758322 L541.017448,101.758322 C542.150218,100.79945 543.861561,100.942468 544.820433,102.075238 L547.090848,104.761705 C548.048095,105.894475 547.908327,107.605818 546.773933,108.56469 C545.639538,109.521937 543.92982,109.378919 542.972573,108.24615 L540.698908,105.559682 C539.743286,104.426913 539.884679,102.715569 541.017448,101.758322" id="Fill-70" fill="#130E24"></path>
            <path d="M549.232871,108.748339 C550.914961,107.326282 553.430782,107.537559 554.854463,109.218024 C556.27652,110.900113 556.065243,113.414309 554.383153,114.837991 C552.701064,116.260047 550.186868,116.050395 548.763186,114.368306 C547.34113,112.687841 547.552407,110.170395 549.232871,108.748339" id="Fill-71" fill="#E06F87"></path>
            <path d="M541.555392,96.4763985 C541.995823,96.378886 542.273734,95.9417053 542.176221,95.5012741 C542.077083,95.0624681 541.641528,94.7845577 541.201097,94.8820701 C541.184845,94.8853205 535.794032,95.9530817 534.068062,100.72144 C533.915292,101.145619 534.134695,101.616929 534.558874,101.769699 C534.983054,101.924093 535.452738,101.70469 535.607133,101.280511 C537.017813,97.3783885 541.54239,96.4812741 541.555392,96.4763985" id="Fill-72" fill="#130E24"></path>
            <path d="M622.147797,272.312452 C622.147797,272.312452 587.75841,285.143463 584.161826,286.879185 C580.561992,288.614906 576.617614,274.285453 576.282821,271.951656 C575.946404,269.619483 578.411843,266.884259 583.074563,264.214044 C587.738908,261.542203 613.657714,246.520412 613.657714,246.520412 L622.147797,272.312452" id="Fill-73" fill="#FFFFFE"></path>
            <path d="M627.54511,271.267443 C614.966005,275.991921 593.16385,284.226846 590.062954,285.722037 C585.668394,287.841307 580.851279,270.345951 580.441727,267.495337 C580.032175,264.647974 583.040433,261.306548 588.73841,258.046382 C591.956321,256.201772 603.474165,249.535171 612.879239,244.090727 C612.879239,244.090727 621.27506,238.254607 622.532971,225.387841 C623.792506,212.521075 628.221196,153.490296 628.221196,153.490296 L662.677216,168.814375 L668.789621,177.82615 C668.789621,177.82615 655.870848,233.715403 650.801826,246.707311 C645.736055,259.699218 638.695657,267.067908 627.54511,271.267443" id="Fill-74" fill="#130E24"></path>
            <path d="M803.319405,193.421639 C803.319405,193.421639 827.809654,235.789168 832.433369,299.240511 C832.433369,299.240511 832.83317,301.389035 830.380732,302.434044 C827.928294,303.477427 807.419803,302.492551 783.319604,332.076199 C759.219405,361.661473 720.705243,388.241738 698.621926,384.773546 C698.621926,384.773546 696.234496,384.758919 695.938709,380.892551 C695.642921,377.026183 691.019206,203.439417 620.077282,140.70804 C620.077282,140.70804 613.191279,135.055569 613.443186,125.440843 C613.695093,115.824491 724.586238,76.4798479 803.319405,193.421639" id="Fill-75" fill="#194584"></path>
            <path d="M783.337481,236.790296 L778.201826,253.990043 C778.201826,253.990043 767.259306,254.521307 738.879936,197.58542 C738.879936,197.58542 727.58637,175.649997 694.986337,168.946017 L709.505939,148.283131 C709.505939,148.283131 771.475093,159.227277 771.153302,164.515702 C770.831511,169.805752 783.337481,236.790296 783.337481,236.790296" id="Fill-76" fill="#609DF6"></path>
            <path d="M638.381992,191.499019 L658.835226,177.764392 C660.891113,176.384591 663.946503,176.773015 665.626967,178.627377 L701.373402,218.129665 C703.052241,219.984027 702.741826,222.633115 700.687564,224.014541 L680.234331,237.747543 C678.176818,239.130594 675.119803,238.740544 673.440964,236.884558 L637.69453,197.383894 C636.01569,195.527908 636.322855,192.880445 638.381992,191.499019" id="Fill-77" fill="#130E24"></path>
            <path d="M635.412738,193.493148 L655.867598,179.758521 C657.920234,178.377095 660.977249,178.76552 662.656088,180.623131 L698.404148,220.123795 C700.082987,221.978156 699.772573,224.627244 697.719936,226.007045 L677.265077,239.741672 C675.207564,241.123098 672.148924,240.734674 670.470085,238.878687 L634.725276,199.378024 C633.046437,197.522037 633.353601,194.872949 635.412738,193.493148" id="Fill-78" fill="#1D1C40"></path>
            <path d="M638.323485,198.326515 L641.616155,196.114607 C641.946072,195.893579 642.43851,195.955337 642.709919,196.254375 L651.559173,206.028372 C651.828957,206.32741 651.781826,206.753214 651.450284,206.975868 L648.157614,209.18615 C647.824447,209.408803 647.333634,209.347045 647.06385,209.048007 L638.211345,199.27401 C637.943186,198.974972 637.991942,198.547543 638.323485,198.326515" id="Fill-79" fill="#5E4988"></path>
            <path d="M641.096088,198.33139 C641.962324,197.749566 643.215359,197.926714 643.894695,198.72469 C644.575657,199.524292 644.427763,200.642435 643.559903,201.224259 C642.695292,201.804458 641.443883,201.628936 640.762921,200.829334 C640.080334,200.029732 640.231478,198.911589 641.096088,198.33139" id="Fill-80" fill="#D2E9F2"></path>
            <path d="M644.47977,202.122999 C645.34438,201.541175 646.59904,201.716697 647.280002,202.516299 C647.957714,203.314276 647.80982,204.434044 646.941959,205.014243 C646.078974,205.596067 644.825939,205.418919 644.144977,204.620942 C643.464015,203.82134 643.613535,202.703198 644.47977,202.122999" id="Fill-81" fill="#D2E9F2"></path>
            <path d="M645.012838,202.748704 C645.505276,202.418787 646.215491,202.519549 646.600666,202.971357 C646.98584,203.42479 646.899704,204.058621 646.408891,204.388538 C645.921329,204.718455 645.207863,204.617692 644.824314,204.165884 C644.437515,203.712452 644.523651,203.076995 645.012838,202.748704" id="Fill-82" fill="#FFFFFE"></path>
            <path d="M641.586901,198.906714 C642.106967,198.557294 642.862689,198.662932 643.272241,199.143994 C643.681793,199.625055 643.590782,200.297891 643.070715,200.648936 C642.549024,200.998355 641.796553,200.891092 641.387001,200.41003 C640.977448,199.930594 641.065209,199.256133 641.586901,198.906714" id="Fill-83" fill="#FFFFFE"></path>
            <path d="M647.709057,205.735835 C648.229123,205.386415 648.983219,205.492054 649.392772,205.973115 C649.802324,206.454176 649.714563,207.127012 649.191246,207.476432 C648.67118,207.825851 647.915458,207.718588 647.507531,207.239151 C647.097979,206.759715 647.190616,206.085254 647.709057,205.735835" id="Fill-84" fill="#D2E9F2"></path>
            <path d="M615.525077,64.1136456 C615.112274,64.3541763 606.61569,66.5547069 605.183883,67.198289 C603.752075,67.8402459 603.301893,70.8663819 602.988228,76.0231646 C602.672938,81.1799474 598.483153,119.408073 598.283253,121.585851 C598.084977,123.765254 598.865077,125.073546 600.751942,125.718753 C602.637183,126.363961 624.390583,134.194209 624.390583,134.194209 L615.525077,64.1136456" id="Fill-85" fill="#130E24"></path>
            <path d="M733.258344,171.816133 C733.258344,171.816133 700.388526,193.597161 696.608294,195.62867 C692.824811,197.658554 702.787332,210.138521 704.602689,211.903496 C706.418045,213.668471 710.352672,213.254044 715.619969,210.887742 C720.887266,208.52144 750.310019,195.482402 750.310019,195.482402 L733.258344,171.816133" id="Fill-86" fill="#FFFFFE"></path>
            <path d="M747.93234,159.071258 C747.93234,159.071258 704.948858,187.559516 700.001727,190.215105 C695.056221,192.870694 708.083883,209.191025 710.458311,211.500445 C712.831113,213.806614 717.97652,213.26542 724.864148,210.171025 C731.753402,207.075005 770.236685,190.02333 770.236685,190.02333 L747.93234,159.071258" id="Fill-87" fill="#1D1C40"></path>
            <path d="M656.733833,163.040014 C656.733833,163.040014 677.018045,167.927012 701.08249,169.394574 C725.145309,170.862136 775.107432,174.174309 778.201826,253.989864 C778.201826,253.989864 778.577249,254.409168 779.864413,253.95736 C781.153203,253.505553 815.945641,222.647742 820.831014,207.817725 C825.716387,192.986083 797.458908,138.445752 781.964181,131.395602 C766.464579,124.347078 737.6204,118.606846 706.107631,86.9575593 C674.594861,55.3098976 631.235956,59.1015063 631.235956,59.1015063 L621.804878,94.0272111 C621.804878,94.0272111 626.110052,154.008737 656.733833,163.040014" id="Fill-88" fill="#276BCD"></path>
            <path d="M784.540135,132.920047 C783.649521,132.289466 782.786536,131.771025 781.964181,131.395602 C766.464579,124.347078 737.6204,118.606846 706.107631,86.9575593 C705.454297,86.3026008 704.794463,85.6671447 704.133004,85.0414399 C704.367034,85.5696323 724.478974,131.129068 674.221064,141.231357 C674.221064,141.231357 670.965773,141.883065 671.875889,144.619914 C672.787631,147.353513 764.2738,120.014276 784.540135,132.920047 Z M769.430583,209.964624 C774.257448,221.162302 777.486735,235.525884 778.201826,253.989864 C778.201826,253.989864 778.577249,254.409168 779.864413,253.95736 C781.153203,253.505553 815.945641,222.647742 820.831014,207.817725 C822.787763,201.880843 819.42846,189.576398 813.706105,176.506481 C813.683352,186.067576 812.427067,196.659052 807.647332,201.934475 C800.943352,209.337294 781.398609,210.188903 769.430583,209.964624 L769.430583,209.964624 Z" id="Fill-89" fill="#1F56A7"></path>
            <path d="M633.044811,59.0039938 C631.874662,59.0462492 631.235956,59.1015063 631.235956,59.1015063 L625.476221,80.4339772 L633.836287,138.756166 L641.177349,141.779052 C641.177349,141.779052 639.960069,133.61076 640.610151,133.02406 C641.26186,132.43736 656.634695,124.881772 658.58982,123.838389 C660.546569,122.796631 660.154894,120.90814 660.154894,120.90814 C658.649952,117.779616 637.670151,69.6263487 633.044811,59.0039938" id="Fill-90" fill="#2975AD"></path>
            <path d="M615.801362,57.3625345 C615.801362,57.3625345 613.82836,58.1718877 613.223783,60.4569292 C612.620831,62.7419706 613.490317,110.505188 613.695093,115.824491 C613.89987,121.147045 635.336354,148.331888 640.657282,154.627941 C645.981462,160.923994 653.84909,162.466316 656.733833,163.040014 C656.733833,163.040014 656.984115,163.022136 657.016619,162.775105 C657.045873,162.528073 648.663054,159.064757 646.113103,155.193513 C643.561528,151.322269 639.134463,134.728903 638.616022,132.308969 C638.616022,132.308969 653.350151,125.211689 655.89035,123.77338 C658.435425,122.335072 658.836851,121.166548 657.874729,119.515337 C656.914231,117.864127 632.965176,61.1980237 631.235956,59.1015063 C629.506735,57.0049889 623.23506,56.4897981 615.801362,57.3625345" id="Fill-91" fill="#D2E9F2"></path>
            <path d="M546.619538,15.0356356 C546.95108,15.2680403 547.03234,15.7295991 546.798311,16.0627666 C546.564281,16.3959341 546.104347,16.4755693 545.77118,16.2415394 C545.748427,16.2252874 537.680898,10.4265477 524.701992,12.8448562 C524.302191,12.9196157 523.917017,12.6547069 523.843883,12.2532807 C523.770748,11.8534797 524.035657,11.4699308 524.437083,11.3967965 C538.031942,8.86472352 546.593535,15.0193836 546.619538,15.0356356" id="Fill-92" fill="#16122F"></path>
            <path d="M515.685342,79.8700303 C516.049389,79.6912575 516.494695,79.8391514 516.671843,80.204823 C516.853866,80.5688695 516.704347,81.0109258 516.338675,81.1913239 C516.298045,81.2108263 502.501661,88.2772277 493.824679,72.1389192 C493.631279,71.7797484 493.766171,71.3344416 494.123717,71.1394167 C494.482888,70.9476423 494.92982,71.0825345 495.123219,71.4417053 C503.119239,86.3091016 515.649588,79.8879076 515.685342,79.8700303" id="Fill-93" fill="#16122F"></path>
            <path d="M695.823319,196.689931 C693.650417,195.914707 689.12584,193.454143 687.928062,192.854442 C686.57914,192.181606 675.298576,189.654408 675.298576,189.654408 L681.360599,196.390893 C681.360599,196.390893 662.834861,204.474674 658.792971,207.674707 C654.75108,210.873115 657.279903,212.387808 660.816354,212.387808 C664.35118,212.387808 664.35118,212.387808 664.35118,212.387808 C664.35118,212.387808 663.676719,218.451457 668.225674,218.618853 C672.769753,218.787874 673.106171,218.618853 673.106171,218.618853 C673.106171,218.618853 674.791511,223.671622 678.498609,223.166183 C682.200831,222.660743 688.602523,221.14605 696.010218,216.935138 C702.000732,213.531954 703.588559,211.779981 703.975359,211.233911 C701.537548,208.48081 695.061097,199.998853 695.823319,196.689931" id="Fill-94" fill="#EBB6BF"></path>
            <path d="M695.823319,196.689931 C695.207365,196.472153 694.409389,196.117858 693.548029,195.711556 C693.162855,202.384657 698.335889,207.687709 690.100964,212.08877 C681.035558,216.935138 675.0938,215.685354 664.775359,205.834972 C664.295923,205.508306 663.832738,205.202767 663.37443,204.903728 C661.364049,205.977991 659.707962,206.95149 658.792971,207.674707 C654.75108,210.873115 657.279903,212.387808 660.816354,212.387808 C664.35118,212.387808 664.35118,212.387808 664.35118,212.387808 C664.35118,212.387808 663.676719,218.451457 668.225674,218.618853 C672.769753,218.787874 673.106171,218.618853 673.106171,218.618853 C673.106171,218.618853 674.791511,223.671622 678.498609,223.166183 C682.200831,222.660743 688.602523,221.14605 696.010218,216.935138 C702.000732,213.531954 703.588559,211.779981 703.975359,211.233911 C701.537548,208.48081 695.061097,199.998853 695.823319,196.689931" id="Fill-95" fill="#E086A3"></path>
            <path d="M426.5671,220.187178 L192.522622,220.187178 C180.86176,220.187178 171.321793,228.163695 171.321793,237.913314 L171.321793,585.797062 L447.767929,585.797062 L447.767929,237.913314 C447.767929,228.163695 438.227962,220.187178 426.5671,220.187178" id="Fill-96" fill="#276BCD"></path>
            <path d="M464.993501,220.187178 L268.921992,220.187178 C259.152871,220.187178 251.160102,226.87003 251.160102,235.036697 L251.160102,585.797062 L482.757017,585.797062 L482.757017,235.036697 C482.757017,226.87003 474.764248,220.187178 464.993501,220.187178" id="Fill-97" fill="#609DF6"></path>
            <path d="M464.993501,229.33547 L268.921992,229.33547 C266.781594,229.33547 265.029621,230.801407 265.029621,232.59076 L265.029621,585.797062 L468.887498,585.797062 L468.887498,232.59076 C468.887498,230.799782 467.135525,229.33547 464.993501,229.33547" id="Fill-98" fill="#FFFFFE"></path>
            <path d="M340.229588,229.333845 L393.687531,229.333845 C396.182224,229.333845 398.22186,231.038687 398.22186,233.125453 L398.22186,233.130329 C398.22186,235.21547 396.182224,236.920312 393.687531,236.920312 L340.229588,236.920312 C337.734894,236.920312 335.695259,235.21547 335.695259,233.130329 L335.695259,233.125453 C335.695259,231.038687 337.734894,229.333845 340.229588,229.333845" id="Fill-99" fill="#1D1C40"></path>
            <path d="M268.921992,229.33547 L464.993501,229.33547 C467.135525,229.33547 468.887498,230.799782 468.887498,232.59076 L468.887498,233.127078 L265.029621,233.127078 L265.029621,232.59076 C265.029621,230.799782 266.781594,229.33547 268.921992,229.33547" id="Fill-100" fill="#1D1C40"></path>
            <path d="M340.229588,499.383165 L393.687531,499.383165 C396.182224,499.383165 398.22186,501.089632 398.22186,503.174773 L398.22186,503.178024 C398.22186,505.263165 396.182224,506.969632 393.687531,506.969632 L340.229588,506.969632 C337.734894,506.969632 335.695259,505.263165 335.695259,503.178024 L335.695259,503.174773 C335.695259,501.089632 337.734894,499.383165 340.229588,499.383165" id="Fill-101" fill="#1D1C40"></path>
            <path d="M268.921992,499.383165 L464.993501,499.383165 C467.135525,499.383165 468.887498,500.849102 468.887498,502.63683 L468.887498,503.176398 L265.029621,503.176398 L265.029621,502.63683 C265.029621,500.849102 266.781594,499.383165 268.921992,499.383165" id="Fill-102" fill="#1D1C40"></path>
            <polygon id="Fill-103" fill="#4F5995" points="265.029621 359.389433 311.500798 359.389433 311.500798 286.367244 265.029621 286.367244"></polygon>
            <polygon id="Fill-104" fill="#4F5995" points="265.029621 359.389433 311.500798 359.389433 311.500798 297.174873 265.029621 297.174873"></polygon>
            <polygon id="Fill-105" fill="#FFFFFE" points="265.029621 359.389433 311.500798 359.389433 311.500798 303.758588 265.029621 303.758588"></polygon>
            <polygon id="Fill-106" fill="#FFF3CE" points="265.029621 359.389433 311.500798 359.389433 311.500798 303.758588 265.029621 303.758588"></polygon>
            <path d="M311.500798,299.068239 L277.109787,299.068239 C272.029389,299.068239 266.840102,302.929732 265.029621,307.862236 L265.029621,359.389433 L311.500798,359.389433 L311.500798,299.068239" id="Fill-107" fill="#4F5995"></path>
            <polygon id="Fill-108" fill="#172473" points="279.714994 350.920478 311.500798 350.920478 311.500798 286.367244 279.714994 286.367244"></polygon>
            <polygon id="Fill-109" fill="#E07642" points="279.714994 350.920478 311.500798 350.920478 311.500798 297.174873 279.714994 297.174873"></polygon>
            <polygon id="Fill-110" fill="#EBB6B7" points="279.714994 350.920478 311.500798 350.920478 311.500798 303.758588 279.714994 303.758588"></polygon>
            <polygon id="Fill-111" fill="#EBAC9D" points="279.714994 350.920478 311.500798 350.920478 311.500798 303.758588 279.714994 303.758588"></polygon>
            <polygon id="Fill-112" fill="#172473" points="279.714994 350.920478 311.500798 350.920478 311.500798 299.068239 279.714994 299.068239"></polygon>
            <path d="M372.730483,286.367244 L301.704049,286.367244 C296.236851,286.367244 291.764281,290.839815 291.764281,296.307012 L291.764281,359.389433 L372.730483,359.389433 L372.730483,286.367244" id="Fill-113" fill="#4F5995"></path>
            <path d="M372.730483,297.174873 L307.224878,297.174873 C301.759306,297.174873 297.28511,301.647443 297.28511,307.116266 L297.28511,359.389433 L372.730483,359.389433 L372.730483,297.174873" id="Fill-114" fill="#4F5995"></path>
            <path d="M301.518775,359.389433 L301.518775,311.858621 C301.518775,307.403927 305.164115,303.758588 309.617183,303.758588 L372.730483,303.758588 L372.730483,359.389433 L301.518775,359.389433" id="Fill-115" fill="#FFFFFE"></path>
            <path d="M306.46103,359.389433 L319.103518,309.008007 C319.58783,307.083762 320.593833,305.284657 321.931379,303.758588 L372.730483,303.758588 L372.730483,359.389433 L306.46103,359.389433" id="Fill-116" fill="#FFF3CE"></path>
            <path d="M372.730483,299.068239 L338.339471,299.068239 C332.872274,299.068239 327.276685,303.54081 325.90501,309.008007 L313.260898,359.389433 L372.730483,359.389433 L372.730483,299.068239" id="Fill-117" fill="#8289B4"></path>
            <polygon id="Fill-118" fill="#172473" points="340.944679 350.920478 372.730483 350.920478 372.730483 286.367244 340.944679 286.367244"></polygon>
            <polygon id="Fill-119" fill="#E07642" points="340.944679 350.920478 372.730483 350.920478 372.730483 297.174873 340.944679 297.174873"></polygon>
            <polygon id="Fill-120" fill="#EBB6B7" points="340.944679 350.920478 372.730483 350.920478 372.730483 303.758588 340.944679 303.758588"></polygon>
            <polygon id="Fill-121" fill="#EBAC9D" points="340.944679 350.920478 372.730483 350.920478 372.730483 303.758588 340.944679 303.758588"></polygon>
            <polygon id="Fill-122" fill="#172473" points="340.944679 350.920478 372.730483 350.920478 372.730483 299.068239 340.944679 299.068239"></polygon>
            <path d="M433.960168,286.367244 L362.933734,286.367244 C357.464911,286.367244 352.99234,290.839815 352.99234,296.307012 L352.99234,359.389433 L433.960168,359.389433 L433.960168,286.367244" id="Fill-123" fill="#4F5995"></path>
            <path d="M433.960168,297.174873 L368.456188,297.174873 C362.988991,297.174873 358.514795,301.647443 358.514795,307.116266 L358.514795,359.389433 L433.960168,359.389433 L433.960168,297.174873" id="Fill-124" fill="#4F5995"></path>
            <path d="M362.74846,359.389433 L362.74846,311.858621 C362.74846,307.403927 366.392175,303.758588 370.848493,303.758588 L433.960168,303.758588 L433.960168,359.389433 L362.74846,359.389433" id="Fill-125" fill="#FFFFFE"></path>
            <path d="M367.68909,359.389433 L380.334828,309.008007 C380.815889,307.083762 381.821893,305.284657 383.159438,303.758588 L433.960168,303.758588 L433.960168,359.389433 L367.68909,359.389433" id="Fill-126" fill="#FFF3CE"></path>
            <path d="M433.960168,299.068239 L399.569156,299.068239 C394.101959,299.068239 388.50637,303.54081 387.134695,309.008007 L374.488957,359.389433 L433.960168,359.389433 L433.960168,299.068239" id="Fill-127" fill="#8289B4"></path>
            <polygon id="Fill-128" fill="#172473" points="402.174364 350.920478 433.960168 350.920478 433.960168 286.367244 402.174364 286.367244"></polygon>
            <polygon id="Fill-129" fill="#4F5995" points="402.174364 350.920478 433.960168 350.920478 433.960168 297.174873 402.174364 297.174873"></polygon>
            <polygon id="Fill-130" fill="#EBB6B7" points="402.174364 350.920478 433.960168 350.920478 433.960168 303.758588 402.174364 303.758588"></polygon>
            <polygon id="Fill-131" fill="#EBAC9D" points="402.174364 350.920478 433.960168 350.920478 433.960168 303.758588 402.174364 303.758588"></polygon>
            <polygon id="Fill-132" fill="#8289B4" points="402.174364 350.920478 433.960168 350.920478 433.960168 299.068239 402.174364 299.068239"></polygon>
            <path d="M422.343186,397.365652 L542.36637,397.365652 C547.831942,397.365652 552.304513,392.891457 552.304513,387.425884 L552.304513,296.307012 C552.304513,290.83819 547.831942,286.367244 542.36637,286.367244 L537.485873,286.367244 L537.485873,281.738654 C537.485873,280.233712 536.253966,279.001805 534.749024,279.001805 L498.487399,279.001805 C496.984082,279.001805 495.7538,280.233712 495.7538,281.738654 L495.7538,286.367244 L422.343186,286.367244 C416.875989,286.367244 412.403418,290.839815 412.403418,296.307012 L412.403418,387.425884 C412.403418,392.891457 416.875989,397.365652 422.343186,397.365652" id="Fill-133" fill="#8289B4"></path>
            <path d="M422.343186,397.365652 L542.36637,397.365652 C547.831942,397.365652 552.304513,392.891457 552.304513,387.425884 L552.304513,298.216631 C550.971843,297.550296 549.471777,297.174873 547.8872,297.174873 L543.006702,297.174873 L543.006702,292.547908 C543.006702,291.04134 541.778045,289.812684 540.273103,289.812684 L504.011478,289.812684 C502.506536,289.812684 501.276254,291.04134 501.276254,292.547908 L501.276254,297.174873 L427.865641,297.174873 C422.398443,297.174873 417.925873,301.647443 417.925873,307.116266 L417.925873,396.323894 C419.258543,396.990229 420.760234,397.365652 422.343186,397.365652" id="Fill-134" fill="#172473"></path>
            <path d="M506.09987,397.365652 L430.259571,397.365652 C425.804878,397.365652 422.159538,393.721937 422.159538,389.265619 L422.159538,311.858621 C422.159538,307.403927 425.804878,303.758588 430.259571,303.758588 L506.09987,303.758588 C510.554563,303.758588 514.201528,307.403927 514.201528,311.858621 L514.201528,389.265619 C514.201528,393.721937 510.554563,397.365652 506.09987,397.365652" id="Fill-135" fill="#FFFFFE"></path>
            <path d="M506.09987,397.365652 L430.259571,397.365652 C425.804878,397.365652 422.159538,393.721937 422.159538,389.265619 L422.159538,379.075569 L439.744281,309.008007 C440.226967,307.083762 441.232971,305.284657 442.572141,303.758588 L506.09987,303.758588 C510.554563,303.758588 514.201528,307.403927 514.201528,311.858621 L514.201528,389.265619 C514.201528,393.721937 510.554563,397.365652 506.09987,397.365652" id="Fill-136" fill="#FFF3CE"></path>
            <path d="M434.309588,397.365652 L545.125972,397.365652 C550.59317,397.365652 556.190384,392.891457 557.560433,387.425884 L577.243319,309.008007 C578.614994,303.54081 575.263816,299.068239 569.794994,299.068239 L563.971876,299.068239 L565.208659,294.143861 C565.707598,292.148107 564.485442,290.514773 562.489687,290.514773 L522.041528,290.514773 C520.045773,290.514773 518.004513,292.148107 517.500699,294.143861 L516.267166,299.068239 L458.980234,299.068239 C453.511412,299.068239 447.917448,303.54081 446.544148,309.008007 L426.862888,387.425884 C425.491213,392.891457 428.84239,397.365652 434.309588,397.365652" id="Fill-137" fill="#4F5995"></path>
            <path d="M552.304513,313.339185 L536.575757,376.012054 C535.202457,381.479251 529.606868,385.953447 524.139671,385.953447 L427.233435,385.953447 L426.862888,387.425884 C425.491213,392.891457 428.84239,397.365652 434.309588,397.365652 L545.125972,397.365652 C550.59317,397.365652 556.190384,392.891457 557.560433,387.425884 L577.241694,309.008007 C578.614994,303.54081 575.263816,299.068239 569.794994,299.068239 L563.971876,299.068239 L565.208659,294.143861 C565.707598,292.148107 564.485442,290.514773 562.489687,290.514773 L555.052738,290.514773 C556.43579,292.322004 556.949355,294.831324 556.258642,297.594176 L552.304513,313.339185" id="Fill-138" fill="#8289B4"></path>
            <polygon id="Fill-139" fill="#FFFFFE" points="401.6738 409.367808 605.530052 409.367808 605.530052 323.142435 401.6738 323.142435"></polygon>
            <path d="M340.229588,409.366183 L393.687531,409.366183 C396.182224,409.366183 398.22186,411.071025 398.22186,413.157792 L398.22186,413.162667 C398.22186,415.249433 396.182224,416.952651 393.687531,416.952651 L340.229588,416.952651 C337.734894,416.952651 335.695259,415.249433 335.695259,413.162667 L335.695259,413.157792 C335.695259,411.071025 337.734894,409.366183 340.229588,409.366183" id="Fill-140" fill="#1D1C40"></path>
            <path d="M268.921992,409.367808 L464.993501,409.367808 C467.135525,409.367808 468.887498,410.83212 468.887498,412.623098 L468.887498,413.162667 L265.029621,413.162667 L265.029621,412.623098 C265.029621,410.83212 266.781594,409.367808 268.921992,409.367808" id="Fill-141" fill="#1D1C40"></path>
            <path d="M405.566171,319.350826 L601.639306,319.350826 C603.779704,319.350826 605.530052,320.815138 605.530052,322.604491 L605.530052,323.142435 L534.867664,323.142435 L534.867664,323.14406 C534.867664,325.229201 532.826404,326.937294 530.33171,326.937294 L476.873767,326.937294 C474.380699,326.937294 472.341064,325.229201 472.341064,323.14406 L472.341064,323.142435 L401.6738,323.142435 L401.6738,322.604491 C401.6738,320.815138 403.427399,319.350826 405.566171,319.350826" id="Fill-142" fill="#1D1C40"></path>
            <path d="M401.6738,409.367808 L401.6738,323.142435 L265.029621,323.142435 L265.029621,412.623098 C265.029621,410.83212 266.781594,409.367808 268.921992,409.367808 L340.149952,409.367808 C340.175956,409.366183 340.203584,409.366183 340.229588,409.366183 L393.687531,409.366183 C393.71516,409.366183 393.741163,409.366183 393.768792,409.367808 L401.6738,409.367808" id="Fill-143" fill="#B7D2FB"></path>
            <path d="M176.376188,314.691357 C153.034961,288.826183 135.671246,321.679748 138.09443,354.661705 C140.394098,385.932319 165.160632,493.218753 160.567797,538.355636 L170.050881,538.355636 C193.24909,480.475503 206.257249,347.80333 176.376188,314.691357" id="Fill-144" fill="#8EBAF8"></path>
            <path d="M166.564811,538.355636 C189.143816,447.1295 160.561296,321.026415 160.463783,320.59736 C160.289886,319.81401 159.565044,319.332949 158.845077,319.521473 C158.12511,319.714873 157.684679,320.503098 157.856951,321.283198 C157.954463,321.715503 186.572738,447.959981 163.821462,538.355636 L166.564811,538.355636" id="Fill-145" fill="#2E7EF2"></path>
            <path d="M118.793468,371.692253 C94.1959557,357.509068 87.9941647,388.454641 97.5828878,414.056531 C105.530151,435.273612 140.636254,498.032617 153.909322,538.355636 L166.412042,538.355636 C167.474928,482.632153 147.827797,388.433513 118.793468,371.692253" id="Fill-146" fill="#B7D2FB"></path>
            <path d="M161.845209,538.355636 C153.709422,462.991523 107.655923,381.068073 107.490151,380.773911 C107.169986,380.196962 106.479272,380.013314 105.95108,380.362733 C105.422888,380.712153 105.253866,381.462999 105.575657,382.038322 C105.739803,382.33411 151.495889,463.722866 159.621926,538.355636 L161.845209,538.355636" id="Fill-147" fill="#4584B8"></path>
            <path d="M222.748228,407.46144 C246.588394,396.128869 250.367001,425.441108 239.775525,448.566183 C232.611611,464.213679 206.785442,504.276664 189.395724,538.355636 L169.545442,538.355636 C176.333933,486.797559 198.10846,419.179185 222.748228,407.46144" id="Fill-148" fill="#B7D2FB"></path>
            <path d="M176.634596,538.355636 C193.559505,475.890793 232.538476,417.025785 232.694496,416.79013 C233.030914,416.27819 233.685873,416.159549 234.155558,416.526846 C234.625243,416.890893 234.734132,417.602733 234.399339,418.114674 C234.243319,418.351954 195.67715,476.604259 178.789621,538.355636 L176.634596,538.355636" id="Fill-149" fill="#8EBAF8"></path>
            <path d="M139.001296,517.731755 L208.84783,517.731755 C210.937846,517.731755 212.644314,519.590992 212.644314,521.866282 L212.644314,540.634176 C212.644314,542.909466 210.937846,544.768704 208.84783,544.768704 L139.001296,544.768704 C136.911279,544.768704 135.203186,542.909466 135.203186,540.634176 L135.203186,521.866282 C135.203186,519.590992 136.911279,517.731755 139.001296,517.731755" id="Fill-150" fill="#292756"></path>
            <polyline id="Fill-151" fill="#292756" points="150.982324 533.000578 196.866802 533.000578 208.84783 544.767078 199.060831 585.797062 148.788294 585.797062 139.001296 544.767078 150.982324 533.000578"></polyline>
            <polyline id="Fill-152" fill="#1D1C40" points="208.84783 544.767078 206.835823 553.203529 141.014928 553.203529 139.001296 544.767078 208.84783 544.767078"></polyline>
            <path d="M576.264944,271.246316 C575.016785,272.164558 574.340699,272.77076 574.340699,272.77076 C574.340699,272.77076 563.391677,271.774508 560.073004,275.590495 C556.757581,279.406481 549.458775,288.694541 546.309123,290.186481 C543.156221,291.680047 546.63904,294.335636 553.273137,292.013214 C559.910483,289.689168 567.373435,284.049699 567.373435,284.049699 C567.373435,284.049699 574.261064,285.696034 579.64375,282.445619 C577.83977,278.514243 576.472971,273.2827 576.282821,271.951656 C576.248692,271.720876 576.243816,271.485221 576.264944,271.246316" id="Fill-153" fill="#EBB6BF"></path>
        </g>
    </g>
</svg>