<?xml version="1.0" encoding="utf-8"?>
<!-- Generator: Adobe Illustrator 26.3.1, SVG Export Plug-In . SVG Version: 6.00 Build 0)  -->
<svg version="1.1" id="_x3C_Layer_x3E_" xmlns="http://www.w3.org/2000/svg" xmlns:xlink="http://www.w3.org/1999/xlink" x="0px"
	 y="0px" viewBox="0 0 500 410.1" style="enable-background:new 0 0 500 410.1;" xml:space="preserve">
<style type="text/css">
	.st0{fill:#D3E7FE;}
	.st1{fill:#FFFFFF;}
	.st2{fill:#438AFA;}
	.st3{fill:#E8F2FF;}
	.st4{opacity:0.49;}
	.st5{fill:#3245A9;}
	.st6{fill:#EBF4FF;}
	.st7{fill:#A1CEF6;}
	.st8{fill:#D9EAFE;}
	.st9{clip-path:url(#SVGID_00000145742567962297133020000007162827796327810971_);}
	.st10{fill:#6D9EEA;}
	.st11{clip-path:url(#SVGID_00000012435313699364336730000003657395925150153381_);}
	.st12{clip-path:url(#SVGID_00000049197330532190508510000016596507155686006461_);}
	.st13{fill:#6FB6F6;}
	.st14{clip-path:url(#SVGID_00000140725830443293890250000018170675764363882929_);}
	.st15{fill:#BCDAFE;}
	.st16{fill:#3772CE;}
	.st17{fill:#2B54AE;}
	.st18{fill:#FE8658;}
	.st19{fill:#E9511E;}
	.st20{fill:#1B2B80;}
	.st21{opacity:0.24;}
	.st22{fill:#60AFF6;}
	.st23{fill:#4DA4F2;}
	.st24{fill:#133F9E;}
	.st25{opacity:0.25;}
</style>
<g>
	<g id="Fon_21_">
		<g>
			<path class="st0" d="M356.3,141.2c-13.5-11.9-24.8-22.9-29.5-27.5c-36.3-35.5-47-52.4-60.3-65.5C224.1,6.3,140.7-10.9,80.5,20
				c-32.9,16.9-50.6,44-57,55C-20.8,151.5,7,269.3,73.3,337c57.5,58.6,134.6,59.8,288.9,62.2c45.6,0.7,90.5-2.5,114.6-33.4
				c17.2-22.1,18.9-51.9,19-61.6c0.1-5.8,0-34.4-18.3-64.8C453.2,199.1,424.5,201.3,356.3,141.2z"/>
		</g>
		<g>
			<g>
				<path class="st1" d="M16.1,221.2c-6.1-26-7.6-52.4-4.5-78.7c2.2-18.8,6.7-37.2,13.5-55l1.3,0.5c-6.7,17.6-11.2,36-13.4,54.6
					c-3,26.1-1.5,52.4,4.5,78.2L16.1,221.2z"/>
			</g>
			<g>
				<path class="st1" d="M20.7,210.1c-1.1-5.1-1.9-10.3-2.4-15.5c-1.2-12-0.8-24.2,1-36.2l1.4,0.2c-1.9,11.9-2.2,24-1,35.9
					c0.5,5.1,1.3,10.3,2.4,15.3L20.7,210.1z"/>
			</g>
			<g>
				<path class="st1" d="M465.3,366.3l-1-0.9c14.3-16.4,22.1-38.2,21.3-59.9l1.4-0.1C487.7,327.5,479.8,349.7,465.3,366.3z"/>
			</g>
		</g>
	</g>
	<g id="Monitor_3_">
		<g>
			<polygon class="st2" points="246.3,371.9 182.1,371.9 189.9,321.8 254.1,321.8 			"/>
		</g>
		<g>
			<polygon class="st3" points="238.8,371.5 174.6,371.5 182.3,321.5 246.5,321.5 			"/>
		</g>
		<g>
			<g class="st4">
				<path d="M177.5,352.7l-2.9,18.9c23.9,0.1,47.8,0.2,71.7,0.3c-1.8-5-3.5-10-5.3-15c0.2-1.4,0.5-2.8,0.7-4.2
					C220.3,352.7,198.9,352.7,177.5,352.7z"/>
			</g>
			<g class="st4">
				<path d="M244.9,331.7c0.5-3.3,1.1-6.7,1.6-10c-21.4-0.1-42.8-0.2-64.2-0.2l-1.6,10.3C202.2,331.7,223.5,331.7,244.9,331.7z"/>
			</g>
		</g>
		<g>
			<g>
				<polygon class="st5" points="238.4,367.7 238,370.6 175.7,370.6 183.2,322.4 245.5,322.4 242.3,342.7 244.2,342.7 247.6,320.6 
					181.6,320.6 173.5,372.5 239.6,372.5 240.3,367.7 				"/>
			</g>
		</g>
		<g>
			<path class="st2" d="M394.5,86H119.8c-4.5,0-8.4,3.3-9.1,7.8c-11.3,73-22.7,146-34,219c-0.9,5.6,3.4,10.6,9.1,10.6h274.7
				c4.5,0,8.4-3.3,9.1-7.8l34-219C404.4,91.1,400.1,86,394.5,86z"/>
		</g>
		<g>
			<path class="st6" d="M386.3,86H111.6c-4.5,0-8.4,3.3-9.1,7.8c-11.3,73-22.7,146-34,219c-0.9,5.6,3.4,10.6,9.1,10.6h274.7
				c4.5,0,8.4-3.3,9.1-7.8l34-219C396.3,91.1,392,86,386.3,86z"/>
		</g>
		<g>
			<g>
				<path class="st5" d="M77.6,322.5c-2.4,0-4.7-1-6.3-2.9c-1.6-1.8-2.3-4.2-1.9-6.6l4.3-27.8h-1.9l-4.3,27.5
					c-0.5,2.9,0.4,5.9,2.3,8.1c1.9,2.2,4.7,3.5,7.7,3.5h206.2v-1.9L77.6,322.5L77.6,322.5z"/>
			</g>
			<g>
				<polygon class="st5" points="98.7,112.8 90.6,164.7 92.5,164.7 100.5,112.8 				"/>
			</g>
			<g>
				<path class="st5" d="M394,88.6c-1.9-2.2-4.7-3.5-7.7-3.5H198.1V87h188.2c2.4,0,4.7,1,6.3,2.9c1.6,1.8,2.3,4.2,1.9,6.6l-17.2,111
					h1.9l17.2-110.7C396.8,93.9,395.9,90.9,394,88.6z"/>
			</g>
		</g>
		<g>
			<path class="st7" d="M354,296.9c10.3-66.6,20.7-133.1,31-199.7H112.2c-10.3,66.6-20.7,133.1-31,199.7H354z"/>
		</g>
		<g>
			<g>
				<g>
					<rect x="184.8" y="193.6" class="st8" width="42.8" height="1.9"/>
				</g>
			</g>
			<g>
				<g>
					<polygon class="st8" points="242.9,123.4 186.1,123.4 178.7,105.5 180.4,104.8 187.4,121.5 242.2,121.5 256.8,108.7 
						258.1,110.2 					"/>
				</g>
			</g>
			<g>
				<g>
					<polygon class="st8" points="247.7,134.9 163,134.9 163,133 247,133 275.6,108.5 276.8,109.9 					"/>
				</g>
			</g>
			<g>
				<g>
					<polygon class="st8" points="229.9,250.2 229.2,248.4 268.2,233.4 278.9,212.8 280.6,213.7 269.6,234.9 269.3,235.1 					"/>
				</g>
			</g>
			<g>
				<g>
					<polygon class="st8" points="226.5,202.2 189.4,202.2 189.4,200.3 225.8,200.3 229.9,196.9 231.1,198.4 					"/>
				</g>
			</g>
			<g>
				<g>
					<polygon class="st8" points="141,174.8 139.7,173.4 168.9,148.4 169.5,148.4 318,148.2 318,150.1 169.6,150.3 					"/>
				</g>
			</g>
			<g>
				<g>
					<polygon class="st8" points="146.3,182.8 145,181.3 174.2,156.3 221.1,156.3 221.1,158.2 174.9,158.2 					"/>
				</g>
			</g>
			<g>
				<g>
					<circle class="st8" cx="168.4" cy="149.5" r="4.2"/>
				</g>
			</g>
		</g>
		<g>
			<g>
				<defs>
					<path id="SVGID_1_" d="M354,296.9c10.3-66.6,20.7-133.1,31-199.7H112.2c-10.3,66.6-20.7,133.1-31,199.7H354z"/>
				</defs>
				<clipPath id="SVGID_00000027578948421101625750000010784318550268726692_">
					<use xlink:href="#SVGID_1_"  style="overflow:visible;"/>
				</clipPath>
				<g style="clip-path:url(#SVGID_00000027578948421101625750000010784318550268726692_);">
					<path class="st10" d="M236.9,293c3.4-0.9,6.8-1.8,10.2-2.7c3.4-0.9,5.9-4.1,5.8-7.4c0-2.8-0.2-5.7-0.4-8.7
						c-0.3-3.1-0.6-6.1-1.1-8.9c-0.5-3.2-3.4-5.2-6.8-4.6c-3.4,0.6-6.9,1.2-10.3,1.8c-3.1,0.6-5.9-1.1-6.7-3.9
						c-1.6-5.6-3.6-10.9-6.1-15.9c-1.3-2.6-0.5-6,2-8.2c2.7-2.4,5.5-4.8,8.2-7.3c2.7-2.4,3.4-6.1,1.7-8.8c-1.4-2.2-3-4.4-4.8-6.7
						c-1.8-2.4-3.7-4.5-5.5-6.5c-2.1-2.3-5.9-2.4-8.7-0.2c-2.9,2.2-5.8,4.4-8.7,6.6c-2.6,2-6.1,2.1-8.3,0.2c-4.3-3.6-9-6.8-13.9-9.6
						c-2.5-1.4-3.5-4.5-2.3-7.5c1.3-3.3,2.7-6.6,4-9.8c1.3-3.2,0.1-6.6-2.8-7.8c-2.5-1-5.1-2-8-2.9c-2.9-0.9-5.8-1.7-8.5-2.4
						c-3.2-0.8-6.7,1.1-8.3,4.2c-1.6,3.2-3.2,6.3-4.8,9.5c-1.5,2.9-4.6,4.7-7.7,4.3c-5.8-0.7-11.9-0.9-18-0.7
						c-3.1,0.1-5.6-1.8-6-4.8c-0.4-3.2-0.9-6.5-1.3-9.7s-3.3-5.3-6.7-4.7c-2.9,0.4-6,1-9.3,1.7c-3.1,0.7-6.1,1.5-9,2.3
						c-3.3,1-5.7,4.2-5.6,7.5c0.1,3.3,0.2,6.6,0.4,9.9c0.1,3-2,6-5,7.3c-6,2.4-11.7,5.3-17.3,8.5c-2.8,1.7-6.2,1.3-8.1-0.8
						c-2-2.3-4.1-4.7-6.1-7c-2.1-2.3-5.8-2.5-8.7-0.4c-2.5,1.8-5.1,3.8-7.8,6c-2.6,2.1-5,4.3-7.2,6.3c-2.6,2.4-3.2,6.2-1.4,8.7
						c1.8,2.5,3.6,5.1,5.4,7.6c1.7,2.4,1.2,5.8-1,8.2c-4.3,4.9-8.3,10-11.9,15.4c-1.8,2.7-5.1,4.2-8,3.4c-3.1-0.8-6.2-1.7-9.3-2.5
						c-3.1-0.8-6.7,0.9-8.4,4c-1.4,2.7-2.9,5.6-4.3,8.7c-1.3,3-2.5,5.8-3.5,8.6c-1.2,3.3,0.1,6.6,3.1,7.7c2.9,1.1,5.9,2.2,8.8,3.3
						c2.8,1,4.1,4,3.3,7c-1.6,6-2.7,12-3.3,18.2c-0.3,3.1-2.7,5.9-5.8,6.7c-3.3,0.9-6.6,1.8-9.9,2.7c-3.4,0.9-5.9,4.1-5.8,7.4
						c0,2.8,0.2,5.9,0.4,9c0.3,3,0.6,5.9,1.1,8.6c0.5,3.2,3.5,5.1,6.8,4.5c3.3-0.6,6.7-1.2,10-1.8c3.1-0.6,5.9,1.1,6.7,3.9
						c1.6,5.6,3.7,11,6.2,16.1c1.3,2.6,0.5,6-2,8.2l-7.9,7.1c-2.7,2.4-3.4,6.2-1.7,8.8c1.5,2.2,3.1,4.6,5,6.9
						c1.8,2.3,3.6,4.4,5.4,6.3c2.1,2.3,5.9,2.3,8.7,0.2c2.9-2.2,5.7-4.3,8.6-6.5c2.6-2,6.1-2.1,8.3-0.2c4.3,3.6,9,6.8,14,9.6
						c2.5,1.4,3.5,4.5,2.3,7.5c-1.3,3.2-2.6,6.5-3.9,9.7c-1.3,3.2-0.1,6.6,2.9,7.8c2.5,1,5.3,2.1,8.2,3c2.8,0.9,5.6,1.7,8.2,2.3
						c3.1,0.8,6.7-1.1,8.3-4.2c1.6-3.1,3.2-6.3,4.7-9.4c1.5-2.9,4.6-4.7,7.6-4.3c5.9,0.7,11.9,0.9,18,0.6c3.1-0.1,5.6,1.8,6,4.8
						c0.4,3.2,0.9,6.5,1.3,9.7c0.4,3.2,3.3,5.3,6.7,4.8c2.8-0.4,5.8-1,8.9-1.7c3.3-0.7,6.3-1.5,9.2-2.4c3.3-1,5.8-4.2,5.6-7.5
						c-0.1-3.3-0.2-6.6-0.4-9.9c-0.1-3,2-6,5-7.3c6-2.4,11.7-5.3,17.2-8.5c2.8-1.7,6.2-1.4,8.1,0.8c2.1,2.4,4.1,4.7,6.2,7.1
						c2.1,2.3,5.8,2.5,8.7,0.4c2.4-1.7,5-3.7,7.5-5.8c2.7-2.2,5.2-4.4,7.4-6.5c2.6-2.4,3.3-6.2,1.5-8.8c-1.8-2.6-3.6-5.2-5.5-7.8
						c-1.7-2.3-1.2-5.8,1-8.2c4.3-4.8,8.2-10,11.8-15.3c1.8-2.7,5.1-4.2,8-3.4c3.2,0.9,6.3,1.7,9.5,2.6c3.1,0.8,6.7-0.9,8.4-4
						c1.4-2.6,2.8-5.4,4.2-8.4c1.4-3.1,2.6-6,3.7-8.9c1.2-3.3-0.1-6.6-3.1-7.7c-3-1.1-6.1-2.3-9.1-3.4c-2.8-1-4.1-4-3.3-7
						c1.5-5.9,2.6-11.9,3.3-18C231.4,296.6,233.8,293.8,236.9,293z"/>
				</g>
			</g>
			<g>
				<defs>
					<path id="SVGID_00000065037665234829783190000003188795184955769521_" d="M354,296.9c10.3-66.6,20.7-133.1,31-199.7H112.2
						c-10.3,66.6-20.7,133.1-31,199.7H354z"/>
				</defs>
				<clipPath id="SVGID_00000086687014253785053960000000483322006422938553_">
					<use xlink:href="#SVGID_00000065037665234829783190000003188795184955769521_"  style="overflow:visible;"/>
				</clipPath>
				<g style="clip-path:url(#SVGID_00000086687014253785053960000000483322006422938553_);">
					<g>
						<path class="st7" d="M148.6,218.9c-1.2,8.3-9,15.1-17.3,15.1c-8.3,0-14.1-6.8-12.9-15.1c1.2-8.3,9-15.1,17.3-15.1
							C144,203.8,149.8,210.6,148.6,218.9z"/>
					</g>
					<g>
						<path class="st7" d="M212.1,265.1c-1.2,8.3-9,15.1-17.3,15.1c-8.3,0-14.1-6.8-12.9-15.1c1.2-8.3,9-15.1,17.3-15.1
							C207.5,250,213.3,256.7,212.1,265.1z"/>
					</g>
				</g>
			</g>
			<g>
				<defs>
					<path id="SVGID_00000026160323818292961020000007761724092544253596_" d="M354,296.9c10.3-66.6,20.7-133.1,31-199.7H112.2
						c-10.3,66.6-20.7,133.1-31,199.7H354z"/>
				</defs>
				<clipPath id="SVGID_00000116949797662901588750000011868480912409033359_">
					<use xlink:href="#SVGID_00000026160323818292961020000007761724092544253596_"  style="overflow:visible;"/>
				</clipPath>
				<g style="clip-path:url(#SVGID_00000116949797662901588750000011868480912409033359_);">
					<path class="st13" d="M108.6,410.2c-1.9,0-3.7-0.1-5.6-0.1l0.1-2c6.3,0.3,12.8,0.1,19.2-0.7l0.3,2
						C118,409.9,113.3,410.2,108.6,410.2z M83.7,407.2c-6.4-1.6-12.6-3.8-18.4-6.6l0.9-1.8c5.7,2.7,11.8,4.9,18,6.4L83.7,407.2z
						 M141.6,405.1l-0.6-1.9c6.1-1.9,12-4.4,17.7-7.3l0.9,1.8C153.9,400.7,147.8,403.2,141.6,405.1z M48.6,390.5
						c-5.2-3.9-10-8.4-14.3-13.4l1.5-1.3c4.2,4.8,8.9,9.2,14,13.1L48.6,390.5z M176.2,387.3l-1.2-1.6c5.1-3.8,9.9-8.1,14.4-12.7
						l1.4,1.4C186.4,379,181.4,383.4,176.2,387.3z M23.1,361.1c-3.2-5.7-5.8-11.7-7.7-18l1.9-0.6c1.9,6.1,4.5,12,7.6,17.6
						L23.1,361.1z M203.2,359.2l-1.6-1.1c3.6-5.3,6.8-10.9,9.5-16.7l1.8,0.8C210.1,348.1,206.9,353.8,203.2,359.2z M11.4,324
						c-0.4-3.7-0.6-7.5-0.6-11.2c0-2.8,0.1-5.5,0.3-8.3l2,0.2c-0.2,2.7-0.3,5.5-0.3,8.2c0,3.7,0.2,7.4,0.6,11L11.4,324z
						 M219.4,323.8l-1.9-0.5c1.6-6.2,2.7-12.6,3.2-18.9l0-0.2l2,0.2l0,0.2C222.2,311,221.1,317.5,219.4,323.8z M16.3,285.7l-1.9-0.5
						c1.6-6.3,3.9-12.4,6.6-18.4l1.8,0.8C20.1,273.5,17.9,279.6,16.3,285.7z M220.4,285c-0.7-6.4-2-12.7-3.9-18.7l1.9-0.6
						c2,6.2,3.3,12.6,4,19.1L220.4,285z M32.2,250.9l-1.6-1.1c3.7-5.4,7.8-10.5,12.3-15.2l1.4,1.4C39.9,240.7,35.8,245.7,32.2,250.9
						z M208.9,248.7c-3.1-5.6-6.8-10.9-11-15.7l1.5-1.3c4.3,4.9,8.1,10.3,11.2,16L208.9,248.7z M58.7,223.3l-1.2-1.6
						c5.2-3.9,10.8-7.4,16.5-10.4l0.9,1.8C69.3,216,63.8,219.4,58.7,223.3z M183.9,219.9c-5.1-3.9-10.6-7.2-16.4-9.9l0.8-1.8
						c5.9,2.8,11.5,6.2,16.7,10.1L183.9,219.9z M92.7,205.7l-0.6-1.9c6.2-2,12.6-3.4,19.1-4.2l0.3,2
						C105.1,202.4,98.8,203.8,92.7,205.7z M149.5,203.6c-6.1-1.5-12.5-2.4-19-2.8l0.1-2c6.6,0.3,13.1,1.3,19.3,2.8L149.5,203.6z"/>
				</g>
			</g>
			<g>
				<defs>
					<path id="SVGID_00000059304108258123163330000018324121694931125915_" d="M354,296.9c10.3-66.6,20.7-133.1,31-199.7H112.2
						c-10.3,66.6-20.7,133.1-31,199.7H354z"/>
				</defs>
				<clipPath id="SVGID_00000056398514269600969620000012190798772557023917_">
					<use xlink:href="#SVGID_00000059304108258123163330000018324121694931125915_"  style="overflow:visible;"/>
				</clipPath>
				<g style="clip-path:url(#SVGID_00000056398514269600969620000012190798772557023917_);">
					<path class="st13" d="M111.5,373.3c-18.4,0-35.1-7.2-47.1-20.1c-12-13-17.9-30.4-16.4-48.8c3-37.9,36.3-68.8,74.2-68.8
						c18.4,0,35.1,7.2,47.1,20.1c12,13,17.9,30.4,16.4,48.8C182.8,342.5,149.5,373.3,111.5,373.3z M122.3,237.6
						c-36.9,0-69.3,30-72.3,67c-1.4,17.9,4.2,34.7,15.9,47.3c11.6,12.6,27.8,19.5,45.6,19.5c36.9,0,69.3-30,72.3-67
						c1.4-17.9-4.2-34.7-15.9-47.3C156.3,244.5,140.1,237.6,122.3,237.6z"/>
				</g>
			</g>
		</g>
		<g>
			<path class="st15" d="M226.2,310.1c-0.8,5-5.4,9-10.3,9.1c-4.9,0-8.2-4-7.4-8.9c0.8-5,5.4-9,10.3-9.1
				C223.7,301.1,227,305.1,226.2,310.1z"/>
		</g>
		<g>
			<path class="st2" d="M279.7,378H147.4l1.3-7.9c1.2-7.6,8.4-13.8,16-13.8h104.8c7.6,0,12.8,6.2,11.6,13.8L279.7,378z"/>
		</g>
		<g>
			<path class="st3" d="M272.7,378H140.4l1.3-7.9c1.2-7.6,8.4-13.8,16-13.8h104.8c7.6,0,12.8,6.2,11.6,13.8L272.7,378z"/>
		</g>
		<g>
			<g>
				<path class="st5" d="M272.2,359.7c-2.4-2.8-5.8-4.3-9.7-4.3H157.6c-8,0-15.6,6.5-16.9,14.5l-1.4,8.9h13v-1.9h-10.9l1.1-6.8
					c1.1-7.2,7.9-13,15-13h104.8c3.4,0,6.3,1.3,8.3,3.6c2,2.4,2.9,5.6,2.3,9l-1.1,7.1h-78.2v1.9h79.8l1.4-8.6
					C275.5,366.3,274.6,362.6,272.2,359.7z"/>
			</g>
		</g>
	</g>
	<g id="Devushka_16_">
		<g>
			<path class="st16" d="M122.1,327.2h-55c-1.3,2.2-3,5.4-4.6,9.5c-4.1,10.8-3.9,19.9-3.6,27.5c0.5,14.3,1.1,28.7,2,43.6
				c19.3,0,38.6,0,58,0L122.1,327.2z"/>
		</g>
		<g>
			<path class="st17" d="M70.6,327.2c-1,4.9-0.7,10-0.9,15c-0.1,3.1-0.5,6.2-0.9,9.2c-0.5,3.5-1,7-0.9,10.6c0.1,7,1.4,14,2.6,20.9
				c0.6,3.4,1.2,6.8,1.5,10.3c0.3,3.5,0.5,7,1.4,10.4c0.4,1.4,0.8,2.8,1.3,4.2h44.3l3.3-80.6L70.6,327.2L70.6,327.2z"/>
		</g>
		<g>
			<path class="st16" d="M132,407.7H85c-5.4-9.6-8.9-18.2-11.3-24.8c-3.2-8.9-6.7-19-7.7-32.7c-0.8-10.5,0.2-19.3,1.4-25.4
				c19.4,0.5,38.9,1,58.3,1.4C127.7,353.4,129.9,380.5,132,407.7z"/>
		</g>
		<g>
			<g>
				<path class="st1" d="M166.1,285.5l-24.3-11.1c-2-0.9-2.5-3-1.1-4.7l29.3-35.3c1.4-1.7,4.2-2.3,6.2-1.4l24.3,11.1
					c2,0.9,2.5,3,1.1,4.7l-29.3,35.3C170.9,285.8,168.1,286.4,166.1,285.5z"/>
			</g>
			<g>
				<path class="st15" d="M168.1,283.7l-24.8-11.3c-0.8-0.4-1.1-1.3-0.5-2L172,235c0.6-0.7,1.8-1,2.6-0.6l24.8,11.3
					c0.8,0.4,1.1,1.3,0.5,2l-29.3,35.3C170.1,283.8,168.9,284.1,168.1,283.7z"/>
			</g>
			<g>
				<g>
					<path class="st1" d="M191.2,249.6l-17.5-8c-0.5-0.3-0.7-0.8-0.3-1.3l0.8-0.9c0.4-0.5,1.1-0.6,1.7-0.4l17.5,8
						c0.5,0.3,0.7,0.8,0.3,1.3l-0.8,0.9C192.5,249.7,191.8,249.9,191.2,249.6z"/>
				</g>
				<g>
					<path class="st1" d="M189.5,251.7l-17.5-8c-0.5-0.3-1.3-0.1-1.7,0.4l-8.2,9.9c-0.4,0.5-0.3,1,0.3,1.3l17.5,8
						c0.5,0.3,1.3,0.1,1.7-0.4l8.2-9.9C190.2,252.6,190,252,189.5,251.7z"/>
				</g>
				<g>
					<path class="st1" d="M167.4,278.4l-17.5-8c-0.5-0.3-0.7-0.8-0.3-1.3l3.5-4.2c0.4-0.5,1.1-0.6,1.7-0.4l17.5,8
						c0.5,0.3,0.7,0.8,0.3,1.3l-3.5,4.2C168.7,278.4,168,278.6,167.4,278.4z"/>
				</g>
				<g>
					<path class="st1" d="M165.4,267.1l-1.1-0.5c-0.5-0.3-0.7-0.8-0.3-1.3l1.2-1.4c0.4-0.5,1.1-0.6,1.7-0.4l1.1,0.5
						c0.5,0.3,0.7,0.8,0.3,1.3l-1.2,1.4C166.7,267.2,166,267.4,165.4,267.1z"/>
				</g>
				<g>
					<path class="st1" d="M157.2,263.4l-1.1-0.5c-0.5-0.3-0.7-0.8-0.3-1.3l1.2-1.4c0.4-0.5,1.1-0.6,1.7-0.4l1.1,0.5
						c0.5,0.3,0.7,0.8,0.3,1.3l-1.2,1.4C158.5,263.4,157.8,263.6,157.2,263.4z"/>
				</g>
				<g>
					<path class="st1" d="M173.6,270.8l-1.1-0.5c-0.5-0.3-0.7-0.8-0.3-1.3l1.2-1.4c0.4-0.5,1.1-0.6,1.7-0.4l1.1,0.5
						c0.5,0.3,0.7,0.8,0.3,1.3l-1.2,1.4C174.9,270.9,174.1,271.1,173.6,270.8z"/>
				</g>
			</g>
			<g>
				<g>
					<path class="st15" d="M185.3,254.2l-14.4-6.6c-0.6-0.3-0.7-0.8-0.3-1.3l0,0c0.4-0.5,1.2-0.7,1.7-0.4l14.4,6.6
						c0.6,0.3,0.7,0.8,0.3,1.3l0,0C186.6,254.3,185.8,254.4,185.3,254.2z"/>
				</g>
				<g>
					<path class="st15" d="M182.4,257.7l-14.4-6.6c-0.6-0.3-0.7-0.8-0.3-1.3l0,0c0.4-0.5,1.2-0.7,1.7-0.4l14.4,6.6
						c0.6,0.3,0.7,0.8,0.3,1.3l0,0C183.7,257.7,182.9,257.9,182.4,257.7z"/>
				</g>
				<g>
					<path class="st15" d="M179.6,261.1l-14.4-6.6c-0.6-0.3-0.7-0.8-0.3-1.3l0,0c0.4-0.5,1.2-0.7,1.7-0.4l14.4,6.6
						c0.6,0.3,0.7,0.8,0.3,1.3l0,0C180.9,261.2,180.1,261.3,179.6,261.1z"/>
				</g>
			</g>
		</g>
		<g>
			<g>
				<path class="st18" d="M70.6,230.7c-0.1,0.3-0.1,0.6,0,0.9c0.1,0.3,0.4,0.5,0.7,0.7c5.1,2.5,10.4,1.6,16,1.2
					c2.3-0.2,6.2,0.1,7.6-2.2c0.5-0.9,0.8-1.9,1-2.9c1.2-5.2,2.2-10.3,3-15.6c0.3-2,1.1-4.5,0.4-6.5c-0.6-1.7-2.2-3.5-3.5-4.7
					c-1.7-1.6-3.5-3.1-5.7-4c-3.1-1.3-6.8-1.1-9.9,0.4c-2.9,1.4-3,5.9-3.8,8.7C74.2,214.7,72.3,222.7,70.6,230.7z"/>
			</g>
			<g>
				<path class="st18" d="M123.9,262.3l22.4-7.9c1.1-1.1,2.6-2.6,4.6-3.9c2.5-1.6,4.8-2.4,6.5-2.9c0.9-0.3,1.6-0.3,2,0.2
					c0.1,0.1,0.2,0.2,0.2,0.4c0.2-0.1,1.1-0.4,2.1,0.1c0.6,0.3,0.9,0.7,1,0.9c0.2,0,1.2-0.1,2,0.6c0.2,0.2,0.4,0.5,0.5,0.7
					c2.1,0.2,4.1,0.3,6.2,0.5c0.8,1.4-7,2.4-10.5,3.5c-1.3,0.7-2.7,1.3-4,2c2.4,0.3,4.2,0.5,5.1,0.6c0.3,0,1,0.1,1.5,0.5
					c0.2,0.2,0.3,0.3,0.3,0.4c-3.9,0.9-7.9,1.7-11.8,2.6l-23.5,21L123.9,262.3z"/>
			</g>
		</g>
		<g>
			<path class="st19" d="M89.3,203.1c0.2,2.1,0.7,4.1,1.5,6.1c0.8,1.8,1.7,3.4,2.6,5.1c0.8,1.6,1.5,3.3,2.2,4.9
				c0.4,0.8,0.9,1.7,1.6,2.4c0.6-2.9,1.1-5.8,1.5-8.8c0.3-2,1.1-4.5,0.4-6.5c-0.6-1.7-2.2-3.5-3.5-4.7c-1.7-1.6-3.5-3.1-5.7-4
				c-0.3-0.1-0.6-0.2-0.9-0.3C89.1,199.3,89.1,201.2,89.3,203.1z"/>
		</g>
		<g>
			<path class="st1" d="M101.4,227.4c-2-0.8-3.7-1.4-4.8-1.7c-0.7,0.1-1.6,0.2-2.7,0.2c-5.7,0.4-14.6,0.1-19-0.2
				c-0.4,0-1.5-0.1-2.7,0.3c-1.1,0.4-1.9,1.2-2.8,1.9c-4.6,4-10.8,6.9-12.8,12.6c-0.5,1.6-0.7,3.3-0.8,5c-1,13.4,0.3,26.9,1.5,40.3
				c1.1,12.3,2.3,24.6,3.4,36.8c0.2,1.9,0.4,3.9,1.7,5.3c1.4,1.5,3.6,1.7,5.6,1.8c2.5,0.2,47.4,0.4,53.5,0.7c0.8,0,3.3,0.2,4.8-1.3
				c1.5-1.5,1.3-3.8,1.2-4.9c-0.3-5.2-0.1-10.5-0.5-15.7c-0.5-7-1-10.5,0.2-14.5c1.2-4.1,3.9-7.6,4.9-11.7
				c1.2-5.1-0.3-10.5-2.4-15.3c-2.1-4.8-4.7-9.5-5.8-14.7c-1.3-6.4-0.1-6-1.5-9.4C119.1,234.4,108.4,230.2,101.4,227.4z"/>
		</g>
		<g>
			<path class="st8" d="M127.4,294.3c0.3-1.1,0.7-2.1,1.2-3.1c-0.4-1.1-0.8-2.2-1.2-3.3c-0.5-1.6-0.7-3.3-0.8-5
				c-0.2-3.9-0.9-7.8-1.5-11.7c-1-6.3-2.1-12.9-1.3-19.3c-1.1-5.7,0-5.4-1.3-8.7c-1.1-2.6-2.8-4.8-4.8-6.7c-0.2,0-0.5,0-0.7-0.1
				c-5.1-0.5-10.3-2.2-15.3-0.6c-2.9,0.9-5.4,2.7-7.3,5.1c-1.8,2.2-3.1,4.9-4.1,7.6c-1,2.6-1.7,5.3-2.5,8c-0.9,2.7-2.3,5.2-3.6,7.8
				c-1.3,2.5-2.5,5.1-2.9,7.9c-0.5,3.3-1.5,6.4-2.5,9.6c-0.5,1.6-1.3,3.2-1.4,4.9c-0.1,1.3,0.2,2.6,0.4,4c0.2,1.3-0.2,2.7-0.4,4
				c-0.2,1.4-0.1,2.6,0.4,3.9c0.9,2.4,2.7,4.2,4.5,6c0.9,0.8,1.8,1.7,2.6,2.5c0.8,0.9,1.5,1.9,2.2,2.9c1.3,1.8,2.7,3.7,4.6,5
				c1.9,1.4,4.1,2.3,6.5,2.8c3.5,0.7,7.1,0.5,10.6,0.1c1.8-0.2,3.7-0.4,5.5-0.7c1.8-0.3,3.5-0.6,5.3-0.9c1.5-0.2,3-0.4,4.4-0.6
				c1.2-0.2,2.4-0.4,3.5-0.5c0-2.1-0.1-4.2-0.2-6.2C126.7,301.8,126.2,298.2,127.4,294.3z"/>
		</g>
		<g>
			<path class="st8" d="M90.8,260.4c-11.1-1.6-22.4-1.9-33.6-0.9l-0.1-1c11.3-1,22.7-0.7,33.9,0.9L90.8,260.4z"/>
		</g>
		<g>
			<path class="st5" d="M56.6,166.2c-2.8,2.6-2.6,7.4-0.3,10.5c3,4.2,16.7,11,20.9,5.8c3.9-4.7-2.3-14.5-6.5-16.8
				C66.9,163.6,60,163,56.6,166.2z"/>
		</g>
		<g>
			<path class="st20" d="M74.5,176c-1.3,0.3-2.6,0.8-3.8,1.2c-1,0.3-2,0.4-3.1,0.3c-1-0.1-2-0.4-3-0.4c-0.8,0-1.6,0-2.4,0
				c-1.6,0-3.3-0.1-4.7-0.7c-1.3-0.5-2.1-1.5-2.6-2.8c0.3,1.1,0.8,2.2,1.4,3.2c3,4.2,16.7,11,20.9,5.8c1.5-1.9,1.5-4.6,0.6-7.3
				C76.7,175.4,75.6,175.7,74.5,176z"/>
		</g>
		<g>
			<path class="st5" d="M112,175.8c-1.1-3.5-5.3-4.7-9-5.2c-6.2-0.8-12.6-0.9-18.5,1.1c-5.9,2-11.2,6.4-13,12.4
				c-1.3,4.2-0.8,8.9-2.8,12.9c-2.8,5.4-9.4,7.8-13,12.7c-1.5,2.1-2.5,4.7-2.6,7.4c-0.2,3.2,0.8,6.5-0.3,9.5c-1.1,3.1-4.1,5.2-6,7.8
				c-2.1,2.9-3.6,5.8-3.4,9.6c0.2,3,1.4,5.9,1.8,8.9s-1.5,7.3,0.5,10c1,1.3,2.8,1.7,4.4,1.7c1.6,0,3.3-0.2,4.9,0.1
				c2.9,0.7,5.3,3,8.3,3.3c3,0.3,6.2-1.3,7.4-4.1c0.9-2,0.9-4.4,2.2-6.1c1.6-2.1,4.9-2.5,6.2-4.8c1.6-2.8-0.5-6.5,0.8-9.4
				c0.9-2,3-3.1,4.5-4.7c2.7-2.9,2.9-7.4,1.9-11.2c-0.4-1.5-0.9-3-0.8-4.5c0.2-2.2,1.7-4,2.8-5.9c1.1-2,1.6-4,1.4-6.3
				c-0.1-2.5,0-5.1,0.3-7.6c0-0.2,0.1-0.4,0.2-0.6c0.3-0.5,1.6-0.5,2.1-0.6c2.9-0.5,5.6-1.9,8-3.6c1.1-0.8,2.4-1.6,3.1-2.8
				c0.8-1.2,1.7-2.3,2.4-3.5c1.5-2.4,2.4-5,3.4-7.6C110.7,181.8,113.1,179.1,112,175.8z"/>
		</g>
		<g>
			<path class="st18" d="M102.1,182.7c-1.1,0.5-2.2,1-3,2.1c-0.9,1.2-1,2.6-1.1,5.3c-0.1,2.6-0.2,5.3-0.5,7.9c0,0.2-0.1,0.4-0.2,0.6
				c-0.1,0.1-0.3,0.2-0.5,0.2c-0.6,0.1-1.2,0-1.8-0.2c-0.2-0.1-0.3-0.1-0.4-0.3c-0.2-0.2-0.2-0.4-0.2-0.5c-0.1-0.4-1-2.7-2.6-6.5
				c-0.2-0.1-2.4-0.9-4.3,0.3c-1.7,1.1-1.9,3.1-1.9,4.1c0,2.3,0.9,3.9,1.2,4.5c0.4,0.6,1,1.6,2.3,2.3c0.5,0.2,0.9,0.4,1.2,0.5
				c0.2,1.1,0.5,2.5,1,4.1c0.4,1.3,1,2.6,1.8,3.8c1.5,2.4,3.8,4.4,6.6,5c1.4,0.3,2.7,0.3,4.1,0.2c1.4,0,2.3-0.1,3.4-0.7
				c1.2-0.7,1.8-1.6,2.4-2.6c1.8-3.1,2.8-6.6,3.4-8.7c1.1-0.1,2.4-0.3,2.7-1.1c0.3-0.6-0.2-1.3-0.7-2.2c-0.5-1-1-2.4-1.2-4.5
				c0.1-2.8,0-5.1-0.1-6.8c-0.2-2.9-0.4-4.1-0.5-4.7c-0.4-2-1.1-3.6-1.6-4.7c-2,0.6-3.7,1-4.8,1.2C104.6,182,103.6,182,102.1,182.7z
				"/>
		</g>
		<g>
			<path class="st18" d="M94,305.1c0.8,3.8,2,7.5,4.5,10.3c2.2,2.5,5.4,4,8.6,4.7c3.3,0.7,6.6,0.6,9.9,0.3
				c30.2-2.5,46.9-18.7,46.9-18.7c3.1-2.6,5.7-5,7.7-7.2c0.7-0.6,1.8-1.4,3.1-2.5c2.7-2.1,2.6-1.9,2.8-2.2c2.1-2.1,2.8-4.8,3.5-7.2
				c0.3-0.9,0.4-1.7,0.5-2.2c0.1-0.3,0.1-0.8,0.2-1.3c0.1-0.8,0-1.5,0-2c0.1-0.3,0.1-0.6,0.1-1c0-0.6-0.1-1.1-0.2-1.4
				c0-0.1,0.1-0.3,0.1-0.6c0-0.5-0.2-0.9-0.3-1c-2.1,2.5-4.2,5-6.3,7.6c-0.3-2.4,0.2-7.6-1-7.3c-1.6,3.7-3.2,7.5-4.8,11.2
				c-0.7,0.4-1.4,0.9-2.2,1.4c-9.8,1.3-20.5,3.3-31.9,6.5c-4.1,1.1-7.9,2.3-11.7,3.6c-0.1,0.1-0.3-0.1-0.3-0.3
				c-1.5-6.2-1.8-12.5-3.4-18.7c-0.1-0.3-0.2-0.7-0.5-0.9c-0.2-0.2-0.5-0.2-0.8-0.2c-6-0.4-12.1-0.6-18,0.5
				c-1.8,0.4-3.6,0.9-5.4,1.5c-1.2,0.4-3.2,0.6-3.6,2c-0.1,0.3-0.1,0.7-0.1,1c0.1,6.2,0.6,12.5,1.6,18.6
				C93.3,301.2,93.6,303.1,94,305.1z"/>
		</g>
		<g>
			<g>
				<g>
					<path class="st19" d="M160.3,250.9l-0.1-0.4c0.8-0.1,1.6-0.2,2.4-0.3c0.8-0.1,1.6-0.1,2.3-0.2c0.1,0.1,0.1,0.2,0.2,0.4
						c-0.8,0.1-1.6,0.1-2.5,0.2C161.8,250.7,161,250.8,160.3,250.9z"/>
				</g>
			</g>
			<g>
				<g>
					<path class="st19" d="M158.5,249.9l-0.1-0.4c0.6-0.2,1.3-0.3,2-0.4c0.7-0.1,1.4-0.2,2.1-0.3c0,0.1,0.1,0.1,0.1,0.2
						c0,0.1,0.1,0.1,0.1,0.2c-0.7,0.1-1.5,0.2-2.2,0.3C159.8,249.6,159.1,249.8,158.5,249.9z"/>
				</g>
			</g>
			<g>
				<g>
					<path class="st19" d="M155.9,249.5l-0.1-0.4c0.6-0.2,1.2-0.4,1.8-0.6c0.7-0.2,1.3-0.4,1.9-0.6c0,0,0.1,0.1,0.1,0.1
						s0.1,0.1,0.1,0.2c-0.6,0.2-1.3,0.4-2,0.6C157.1,249,156.5,249.3,155.9,249.5z"/>
				</g>
			</g>
			<g>
				<g>
					<path class="st19" d="M179.7,280.1l-0.4-0.2c0.4-0.8,0.8-1.7,1.2-2.6c0.4-0.9,0.8-1.9,1.1-2.7c0,0.1,0.1,0.3,0.1,0.4
						c0,0.1,0,0.2,0.1,0.3c-0.3,0.7-0.5,1.4-0.8,2.1C180.5,278.4,180.1,279.3,179.7,280.1z"/>
				</g>
			</g>
			<g>
				<g>
					<path class="st19" d="M180.4,281.7l-0.4-0.1c0.3-0.7,0.5-1.3,0.8-2c0.3-0.8,0.6-1.6,0.9-2.4c0,0.2,0,0.3,0,0.4
						c0,0.1,0,0.2,0,0.2c-0.2,0.6-0.4,1.2-0.6,1.8C180.9,280.3,180.7,281,180.4,281.7z"/>
				</g>
			</g>
		</g>
		<g>
			<path class="st1" d="M103.1,235.3c-1.8,0.6-3.6,1.5-5.1,2.8c-1.9,1.7-3.1,4-4.1,6.3c-6,13.5-6.9,28.7-7.1,43.5
				c0,0.6,0,1.2,0.3,1.7c0.6,1,1.9,1.1,3,1.1c5.7,0,11.5-0.1,17.2-0.2c5.6-0.2,11.2-0.4,16.6-1.6c0.5-0.1,0.9-0.2,1.2-0.6
				c0.3-0.3,0.3-0.8,0.3-1.3c0-6.7,0-13.5,0-20.2c0-6,0-12.1-0.9-18.1c-0.4-3-1.1-6-2.7-8.6C118,233.7,109.7,233.1,103.1,235.3z"/>
		</g>
		<g>
			<g class="st21">
				<ellipse class="st1" cx="108.5" cy="195.4" rx="3.4" ry="4.7"/>
			</g>
			<g class="st21">
				<ellipse class="st1" cx="116.2" cy="194.2" rx="2.7" ry="4.1"/>
			</g>
		</g>
		<g>
			<g>
				<g>
					<path class="st1" d="M108.5,200.6c-2.2,0-4-2.3-4-5.2c0-2.9,1.8-5.2,4-5.2s4,2.3,4,5.2S110.7,200.6,108.5,200.6z M108.5,191.2
						c-1.6,0-2.9,1.9-2.9,4.1s1.3,4.1,2.9,4.1c1.6,0,2.9-1.9,2.9-4.1C111.5,193.1,110.2,191.2,108.5,191.2z"/>
				</g>
			</g>
			<g>
				<g>
					<path class="st1" d="M116.2,198.6c-1.7,0-3.1-2-3.1-4.5c0-2.5,1.4-4.5,3.1-4.5s3.1,2,3.1,4.5
						C119.3,196.7,117.9,198.6,116.2,198.6z M116.2,190.5c-1.2,0-2.2,1.7-2.2,3.6c0,2,1,3.6,2.2,3.6s2.2-1.7,2.2-3.6
						C118.4,192.2,117.4,190.5,116.2,190.5z"/>
				</g>
			</g>
			<g>
				<g>
					
						<rect x="111.8" y="193.8" transform="matrix(0.9905 -0.1374 0.1374 0.9905 -25.6247 17.3266)" class="st1" width="1.8" height="0.9"/>
				</g>
			</g>
			<g>
				<g>
					<path class="st1" d="M105.2,193.7c-4.5-0.7-9-1.5-13.5-2.2c-0.2-0.1-0.4-0.2-0.6-0.2c-0.4-0.1-0.8-0.2-1.1-0.2
						c0.2-0.1,0.4-0.2,0.7-0.3c0.4-0.1,0.8-0.1,1-0.1c4.5,0.7,9.1,1.5,13.6,2.2L105.2,193.7z"/>
				</g>
			</g>
		</g>
		<g>
			<g>
				<path class="st15" d="M97,338.1c-9.9,0-19.8-0.7-29.6-2l0.1-1c18.8,2.5,38,2.6,56.8,0.3l0.1,1C115.3,337.6,106.2,338.1,97,338.1
					z"/>
			</g>
			<g>
				<path class="st15" d="M126.5,403.5c-10.1-19.9-19.1-40.7-26.8-61.7l0.9-0.3c7.7,20.9,16.7,41.7,26.7,61.6L126.5,403.5z"/>
			</g>
			<g>
				<path class="st15" d="M110.2,366.3l-0.6-0.8c2.3-1.8,3.9-4,4.8-6.4c0.6-1.5,0.9-2.9,0.9-8.9l0.1-9l1,0l-0.1,9
					c-0.1,6.1-0.4,7.6-1,9.2C114.3,362.1,112.6,364.4,110.2,366.3z"/>
			</g>
		</g>
	</g>
	<g id="Lampochka_5_">
		<g>
			<path class="st5" d="M142,135.9h-5h-11.1c0.5,6.4,2.3,15,7.4,23.5c0.8,1.3,1.5,2.4,2.3,3.6c0.8,1.1,2,1.8,3.3,2
				c0.1,0,0.3,0,0.4,0c0.2,0,0.3,0,0.4,0c1.5-0.1,2.9-0.9,3.8-2.2c0.8-1.1,1.5-2.2,2.2-3.4c5.1-8.5,6.8-17,7.4-23.5L142,135.9
				L142,135.9z"/>
		</g>
		<g>
			<g>
				<path class="st16" d="M139.6,160.3c-0.1,0-0.2,0-0.2,0c-1.7,0-3.6-0.1-5.8-0.2c-0.1,0-1.1-0.2-1.5-1.1c-0.3-0.7-0.1-1.4-0.1-1.5
					c2.3,0.2,4.8,0.2,7.4,0.2c2.6,0,5.1-0.1,7.4-0.2c0.1,0.2,0.2,0.7,0,1.4c-0.4,1-1.5,1.3-1.5,1.3
					C143.6,160.2,141.7,160.3,139.6,160.3z"/>
			</g>
			<g>
				<path class="st16" d="M139.5,152.4C139.5,152.4,139.5,152.4,139.5,152.4c-3.2,0-6.5-0.1-10-0.4c-0.1,0-0.9-0.3-1.2-1.1
					c-0.3-0.8,0.1-1.5,0.2-1.6c3.4,0.3,7,0.4,10.9,0.4c3.9,0,7.5-0.1,10.9-0.4c0.1,0.1,0.4,0.7,0.2,1.4c-0.2,0.9-1.2,1.3-1.2,1.3
					C146.3,152.2,143,152.4,139.5,152.4z"/>
			</g>
			<g>
				<path class="st16" d="M139.5,144.4c0,0-0.1,0-0.1,0c-4.3,0-8.4-0.2-12.4-0.6c-0.5-0.2-0.9-0.7-1-1.2c-0.2-0.9,0.5-1.4,0.5-1.5
					c3.9,0.4,8.2,0.7,12.9,0.7c4.8,0,9.1-0.3,13-0.7c0,0,0.7,0.6,0.5,1.4c-0.1,0.6-0.5,1-1,1.2C147.6,144.2,143.4,144.4,139.5,144.4
					z"/>
			</g>
		</g>
		<g>
			<path class="st1" d="M170,41.7c-8.4-8.2-19.5-12.7-31.2-12.5C115.8,29.5,97,47.7,95.9,70.6c-0.6,12.8,4.4,25.2,13.7,34
				c1.4,1.5,2.3,2.2,3.1,2.9c0.9,0.7,1.7,1.4,3,2.9c5.5,6.5,8.9,14.1,8.6,19.4c0,0.3,0,0.5-0.1,0.8c-0.1,1.3-0.3,2.9,0.6,5.1l0,0.1
				c0.5,1.1,1.5,1.9,2.8,2c3.5,0.3,7,0.5,10.5,0.5c0.4,0,0.8,0,1.1,0c4.2,0,8.4-0.3,12.6-0.9c0.9-0.1,1.7-0.6,2.1-1.4
				c0.1-0.2,0.3-0.5,0.4-0.8c0.9-2.2,0.7-3.8,0.6-5.1c0-0.3-0.1-0.6-0.1-0.8c-0.3-5.3,3.1-13,8.6-19.4c1.3-1.5,2.1-2.2,2.9-2.9
				c0.6-0.5,1.3-1,2.1-1.9c9.2-8.3,14.5-20.1,14.5-32.4C183,61,178.4,50,170,41.7z"/>
		</g>
		<g>
			<path class="st5" d="M138.1,138.3c-3.5,0-7-0.2-10.5-0.5c-1.2-0.1-2.3-0.9-2.8-2l0-0.1c-0.9-2.2-0.7-3.8-0.6-5.1
				c0-0.3,0.1-0.6,0.1-0.8c0.3-5.3-3.1-13-8.6-19.4c-1.3-1.5-2.1-2.2-3-2.9c-0.8-0.7-1.7-1.4-3.1-2.9c-9.3-8.7-14.3-21.1-13.7-33.9
				c1.1-22.9,19.9-41.1,42.9-41.4c11.8-0.2,22.9,4.3,31.2,12.5c8.4,8.3,13,19.3,13,31c0,12.4-5.3,24.2-14.5,32.4
				c-0.9,0.8-1.5,1.4-2.1,1.9c-0.9,0.7-1.7,1.4-2.9,2.9c-5.5,6.5-8.9,14.1-8.6,19.4c0,0.3,0,0.5,0.1,0.8c0.1,1.3,0.3,2.9-0.6,5.1
				c-0.1,0.3-0.2,0.5-0.4,0.8c-0.5,0.8-1.2,1.2-2.1,1.4c-4.2,0.5-8.4,0.8-12.6,0.9C138.9,138.3,138.5,138.3,138.1,138.3z M139.4,31
				c-0.2,0-0.4,0-0.6,0c-22,0.3-40,17.7-41,39.7C97.2,83,102,94.8,111,103.2c1.4,1.4,2.2,2.1,3,2.8c0.9,0.8,1.8,1.5,3.2,3.1
				c5.9,6.9,9.3,14.9,9,20.7c0,0.3,0,0.6-0.1,0.9c-0.1,1.2-0.2,2.5,0.5,4.2c0.2,0.6,0.7,0.9,1.3,1c3.8,0.4,7.6,0.5,11.4,0.5
				c4.1,0,8.3-0.3,12.4-0.8c0.3,0,0.6-0.2,0.8-0.5c0.1-0.1,0.2-0.3,0.2-0.5c0.7-1.7,0.6-3,0.5-4.2c0-0.3-0.1-0.6-0.1-0.9
				c-0.3-5.9,3.2-13.8,9-20.7c1.4-1.7,2.3-2.4,3.2-3.1c0.6-0.5,1.2-1,2-1.8c8.8-7.9,13.9-19.3,13.9-31.1c0-11.3-4.4-21.8-12.4-29.7
				C160.9,35.3,150.5,31,139.4,31z"/>
		</g>
		<g>
			<path class="st15" d="M167.7,76.8c0-0.1,0-0.2,0-0.4c0-15.5-12.2-28.1-27.5-28.8c-0.4,0-0.8,0-1.2,0c0,0-0.1,0-0.1,0h0
				c-0.1,0-0.2,0-0.3,0c-0.3,0-0.5,0-0.8,0C122.4,48.2,110,60.9,110,76.4c0,4.6,1.1,8.8,2.9,12.7c1.6,3.3,3.7,6.4,6.5,8.9
				c0.9,1,1.5,1.5,2.1,1.9c0.6,0.5,1.1,0.9,2,1.9c5.4,6.4,5.8,13,5.8,13c0,0.2,0,0.4,0,0.5c0.1,2.4,0.1,4.8,0,7.3
				c0,2.5-0.1,4.9-0.2,7.3c-0.1,0.9-0.2,2,0.4,3.4l0,0.1c0.3,0.8,1,1.3,1.9,1.4c2.3,0.2,4.7,0.3,7,0.3c0.2,0,0.4,0,0.5,0
				s0.4,0,0.5,0c2.3,0,4.7-0.1,7-0.3c0.8-0.1,1.5-0.6,1.9-1.4l0-0.1c0.6-1.4,0.5-2.5,0.4-3.4c-0.1-2.4-0.2-4.8-0.2-7.3
				c0-2.5,0-5,0-7.3c0-0.1,0-0.2,0-0.5c0,0,0.3-6.6,5.8-13c0.9-1,1.4-1.5,2-1.9c0.5-0.4,1.1-0.9,2.1-1.9c5.6-5.2,8.9-12.5,9.2-20.1
				c0-0.1,0-0.2,0-0.3C167.7,77.4,167.7,77.1,167.7,76.8z"/>
		</g>
		<g>
			<path class="st5" d="M154,78.6c-0.1-0.1-0.8-0.7-2.1-0.4c-2.6,0.4-3.9,6.8-4.4,9.8c-0.1,0-0.1,0.1-0.2,0.1
				c-1.5,0.8-2.7,1-3.4,0.6c1.2-0.9,2.1-2.2,2.7-3.7c0.7-1.7,0.8-3.5,0.3-4.5c-0.1-0.3-0.5-1-1.4-1.3c-0.1,0-0.9-0.3-1.9,0.2
				c-1.3,0.7-2.1,3.3-2.2,5.5c-0.1,1.4,0.2,2.6,0.6,3.5c-0.2,0.1-0.3,0.2-0.5,0.2c-0.1,0-0.2,0.1-0.3,0.1c-0.5,0.1-1.1,0.2-1.8,0.2
				c-0.6,0-1.2-0.1-1.7-0.2c-0.1,0-0.2-0.1-0.3-0.1c-0.2-0.1-0.4-0.1-0.5-0.2c0.4-0.9,0.6-2.1,0.6-3.5c-0.1-2.2-0.9-4.9-2.2-5.5
				c-1-0.5-1.8-0.3-1.9-0.2c-0.9,0.3-1.3,1.1-1.4,1.3c-0.5,1-0.4,2.7,0.3,4.5c0.6,1.5,1.6,2.8,2.7,3.7c-0.7,0.4-1.9,0.2-3.4-0.6
				c-0.1,0-0.1-0.1-0.2-0.1c-0.5-3-1.8-9.3-4.4-9.8c-1.3-0.2-2.1,0.4-2.1,0.4c-0.9,0.7-0.9,2-0.8,2.4c0.1,2.3,3.3,5.8,6.3,7.6
				c1.1,4.8,2,9.8,2.8,14.7c1.8,11.3,2.8,22.8,3,34.2l1.2,0c-0.2-11.5-1.2-23.1-3-34.4c-0.7-4.6-1.6-9.2-2.6-13.7
				c1.6,0.7,3,0.8,4,0.2c0.1-0.1,0.3-0.2,0.4-0.3c0.2,0.1,0.4,0.2,0.7,0.3l0,0c0.2,0.1,0.4,0.1,0.6,0.2c0.7,0.2,1.4,0.3,2,0.3
				c0.7,0,1.4-0.1,2.1-0.3c0.2-0.1,0.4-0.1,0.5-0.2l0,0c0.2-0.1,0.4-0.2,0.7-0.3c0.1,0.1,0.2,0.2,0.4,0.3c1,0.6,2.4,0.5,4-0.2
				c-1,4.5-1.9,9.1-2.6,13.7c-1.8,11.3-2.8,22.9-3,34.4l1.2,0c0.2-11.4,1.2-23,3-34.2c0.8-4.9,1.7-9.8,2.8-14.7
				c3-1.9,6.2-5.4,6.3-7.6C154.8,80.6,154.9,79.3,154,78.6z M125.3,81c0-0.3,0-1.1,0.4-1.5c0,0,0.3-0.2,0.8-0.2c0.1,0,0.2,0,0.4,0
				c1.1,0.2,2.4,3.2,3.2,7.6C127.6,85.1,125.4,82.4,125.3,81z M135.8,87.7c-1.4-1.1-2.1-2.5-2.4-3.3c-0.7-1.6-0.6-2.9-0.4-3.5
				c0.1-0.2,0.3-0.6,0.7-0.7c0,0,0.1,0,0.2,0c0.2,0,0.4,0,0.7,0.2c0.7,0.3,1.4,2.3,1.5,4.5C136.3,86,136.1,87,135.8,87.7z M143,87.7
				c-0.3-0.7-0.4-1.7-0.4-2.8c0.1-2.2,0.9-4.2,1.5-4.5c0.3-0.2,0.6-0.2,0.7-0.2c0.1,0,0.2,0,0.2,0c0.4,0.1,0.6,0.6,0.7,0.7
				c0.3,0.5,0.3,1.9-0.4,3.5C145.1,85.1,144.4,86.6,143,87.7z M153.6,81c-0.1,1.5-2.3,4.2-4.7,6c0.8-4.4,2.1-7.4,3.2-7.6
				c0.1,0,0.2,0,0.4,0c0.5,0,0.8,0.2,0.8,0.2C153.6,79.9,153.6,80.7,153.6,81z"/>
			<path class="st5" d="M135.9,137.8v-0.2c-0.2-11.4-1.2-22.9-3-34.2c-0.8-4.9-1.7-9.8-2.8-14.6c-3-1.9-6.2-5.4-6.3-7.8
				c0-0.5-0.1-1.8,0.9-2.7c0.2-0.1,1-0.7,2.3-0.5c2.7,0.4,4,6.3,4.6,9.8l0.1,0.1c1.1,0.6,2.1,0.9,2.8,0.8c-1.1-0.9-1.9-2.1-2.5-3.6
				c-0.7-1.8-0.9-3.6-0.3-4.7c0.1-0.3,0.6-1.1,1.5-1.5c0.1,0,1-0.3,2.1,0.3c1.5,0.8,2.2,3.5,2.3,5.8c0.1,1.3-0.1,2.5-0.5,3.4
				c0.1,0,0.2,0.1,0.3,0.1c0.1,0,0.1,0,0.2,0.1l0.1,0c0.5,0.1,1.1,0.2,1.6,0.2c0.6,0,1.2-0.1,1.7-0.2l0.1,0c0.1,0,0.1,0,0.1,0
				c0.1,0,0.2-0.1,0.3-0.1c-0.4-0.9-0.5-2.1-0.5-3.4c0.1-2.2,0.9-5,2.3-5.8c1.1-0.6,2-0.3,2.1-0.3c1,0.3,1.4,1.2,1.5,1.5
				c0.5,1.1,0.4,2.9-0.3,4.7c-0.6,1.4-1.4,2.6-2.5,3.6c0.7,0.1,1.6-0.1,2.8-0.8l0.1-0.1c0.6-3.5,1.9-9.4,4.6-9.8
				c1.4-0.2,2.2,0.4,2.3,0.5c1,0.8,0.9,2.2,0.9,2.7c-0.1,2.4-3.3,5.9-6.3,7.8c-1.1,4.8-2,9.7-2.8,14.6c-1.8,11.3-2.8,22.8-3,34.2
				v0.2l-1.7,0v-0.2c0.2-11.5,1.2-23.1,3-34.4c0.7-4.4,1.5-8.9,2.5-13.3c-1.5,0.6-2.8,0.6-3.8,0c-0.1-0.1-0.2-0.1-0.3-0.2
				c-0.1,0.1-0.2,0.1-0.3,0.1v0l-0.2,0.1c-0.2,0.1-0.4,0.1-0.6,0.2c-0.7,0.2-1.4,0.3-2.2,0.3c0,0,0,0,0,0c-0.7,0-1.4-0.1-2-0.3
				c-0.2-0.1-0.4-0.1-0.6-0.2l-0.2-0.1l0,0c-0.1-0.1-0.2-0.1-0.3-0.1c-0.1,0.1-0.2,0.1-0.3,0.2c-1,0.6-2.3,0.6-3.8,0
				c0.9,4.4,1.8,8.8,2.5,13.3c1.8,11.3,2.8,22.9,3,34.4v0.2L135.9,137.8z M141.7,137.3l0.8,0c0.2-11.4,1.2-22.8,3-34
				c0.8-4.9,1.7-9.8,2.8-14.7l0-0.1l0.1-0.1c2.9-1.8,6.1-5.2,6.2-7.4c0-0.4,0.1-1.6-0.8-2.3l0,0c-0.1-0.1-0.8-0.6-2-0.4
				c-2.6,0.4-3.9,7.4-4.2,9.6l0,0.1l-0.3,0.2c-1.6,0.8-2.8,1.1-3.6,0.6l-0.3-0.2l0.3-0.2c1.1-0.9,2.1-2.2,2.7-3.6
				c0.7-1.7,0.8-3.3,0.3-4.3c-0.1-0.2-0.5-1-1.2-1.2c-0.1,0-0.8-0.2-1.7,0.2c-1.2,0.6-2,3.2-2.1,5.3c-0.1,1.3,0.1,2.5,0.6,3.4
				l0.1,0.2l-0.2,0.1c-0.2,0.1-0.4,0.2-0.5,0.2c-0.1,0-0.1,0-0.2,0.1l-0.1,0c-0.6,0.2-1.2,0.3-1.9,0.3c-0.6,0-1.2-0.1-1.8-0.2
				l-0.1,0c-0.1,0-0.1,0-0.2-0.1c-0.2-0.1-0.4-0.1-0.5-0.2l-0.2-0.1l0.1-0.2c0.4-0.9,0.6-2,0.5-3.4c-0.1-2.1-0.8-4.7-2.1-5.3
				c-0.9-0.5-1.7-0.3-1.7-0.2c-0.8,0.3-1.1,1-1.2,1.2c-0.5,1-0.3,2.6,0.3,4.3c0.6,1.5,1.5,2.7,2.7,3.6l0.3,0.2l-0.3,0.2
				c-0.8,0.4-2.1,0.2-3.6-0.6l-0.3-0.2l0-0.1c-0.9-5.7-2.5-9.3-4.2-9.6c-1.2-0.2-1.9,0.3-2,0.4c-0.8,0.7-0.8,1.9-0.8,2.3
				c0.1,2.2,3.2,5.6,6.2,7.4l0.1,0.1l0,0.1c1.1,4.9,2,9.8,2.8,14.7c1.8,11.2,2.8,22.6,3,34l0.8,0c-0.2-11.4-1.2-22.9-3-34.1
				c-0.7-4.6-1.6-9.2-2.6-13.7l-0.1-0.5l0.4,0.2c1.6,0.7,2.9,0.8,3.8,0.2c0.1-0.1,0.2-0.2,0.3-0.3l0.1-0.1l0.2,0.1
				c0.2,0.1,0.4,0.2,0.6,0.3l0.2,0.1v0c0.1,0,0.2,0.1,0.4,0.1c0.6,0.2,1.2,0.3,1.9,0.3c0.1,0,0.1,0,0.1,0c0.7,0,1.3-0.1,1.9-0.3
				c0.1,0,0.3-0.1,0.4-0.1l0.1-0.1c0.2-0.1,0.4-0.2,0.7-0.3l0.2-0.1l0.1,0.1c0.1,0.1,0.2,0.2,0.3,0.3c0.9,0.6,2.2,0.5,3.8-0.2
				l0.4-0.2l-0.1,0.5c-1,4.5-1.9,9.1-2.6,13.7C143,114.4,141.9,125.9,141.7,137.3z M135.9,88l-0.2-0.2c-1.4-1.1-2.1-2.6-2.5-3.4
				c-0.7-1.7-0.7-3-0.4-3.7c0.1-0.2,0.3-0.7,0.8-0.8c0.2,0,0.6-0.1,1.1,0.2c0.8,0.4,1.6,2.6,1.7,4.7c0.1,1.1-0.1,2.1-0.4,2.9
				L135.9,88z M134,80.5c-0.1,0-0.2,0-0.2,0c-0.3,0.1-0.4,0.5-0.5,0.6c-0.2,0.4-0.3,1.6,0.4,3.3c0.3,0.7,0.9,2,2.1,2.9
				c0.2-0.6,0.3-1.5,0.3-2.4c-0.1-2.2-0.9-4-1.4-4.3C134.3,80.5,134.1,80.5,134,80.5z M143,88l-0.1-0.3c-0.3-0.7-0.5-1.7-0.4-2.9
				c0.1-2.1,0.8-4.3,1.7-4.7c0.3-0.2,0.7-0.2,0.9-0.2c0.1,0,0.2,0,0.3,0c0.5,0.2,0.7,0.7,0.8,0.8c0.3,0.6,0.3,2-0.4,3.7
				c-0.3,0.8-1.1,2.3-2.5,3.4L143,88z M144.9,80.5c-0.1,0-0.4,0-0.6,0.2c-0.5,0.3-1.3,2.1-1.4,4.3c0,0.9,0.1,1.7,0.3,2.4
				c1.1-1,1.8-2.3,2.1-2.9c0.7-1.6,0.6-2.9,0.4-3.3c-0.1-0.1-0.3-0.5-0.5-0.6C145,80.5,145,80.5,144.9,80.5z M130.4,87.5l-0.5-0.4
				c-2.3-1.7-4.8-4.5-4.8-6.2l0,0c0-0.3,0-1.2,0.5-1.6c0,0,0.5-0.4,1.4-0.2c1.5,0.2,2.7,4.2,3.4,7.8L130.4,87.5z M125.5,81
				c0,1.2,1.9,3.6,4.1,5.4c-0.9-4.5-2.1-6.7-2.9-6.8c-0.6-0.1-1,0.1-1,0.1C125.5,80,125.5,80.7,125.5,81l-0.2,0L125.5,81z
				 M148.5,87.5l0.1-0.6c0.7-3.6,1.9-7.6,3.4-7.8c0.8-0.1,1.3,0.2,1.3,0.2c0.5,0.4,0.5,1.3,0.5,1.7l0,0c-0.1,1.7-2.5,4.4-4.8,6.2
				L148.5,87.5z M152.4,79.5c-0.1,0-0.2,0-0.3,0c-0.8,0.1-2,2.3-2.9,6.8c2.2-1.8,4.1-4.2,4.1-5.4l0.2,0l-0.2,0c0-0.2,0-1-0.3-1.3
				l0,0C153,79.7,152.8,79.5,152.4,79.5z"/>
		</g>
		<g>
			<g>
				<path class="st15" d="M102.9,67.5c0.1,0.1,0.3,0.1,0.4,0.1c2-13.8,11.8-25.1,24.7-29.5c-0.1-0.3-0.3-0.6-0.4-0.9
					c0-0.1-0.1-0.1-0.1-0.2c-13.2,4.5-23.2,16.1-25.4,30.2C102.3,67.3,102.6,67.4,102.9,67.5z"/>
				<path class="st15" d="M103.7,68.3l-0.9-0.3c-0.3-0.1-0.5-0.2-0.8-0.3l-0.4-0.1l0.1-0.4c2.2-14.2,12-25.9,25.7-30.5l0.4-0.1
					l0.3,0.7c0.1,0.3,0.2,0.5,0.3,0.7l0.3,0.6l-0.5,0.2c-12.8,4.3-22.4,15.7-24.4,29.1L103.7,68.3z M102.6,66.9
					c0.1,0,0.2,0.1,0.3,0.1c2.2-13.3,11.7-24.6,24.4-29.1c0-0.1-0.1-0.2-0.1-0.3C114.2,42.2,104.9,53.3,102.6,66.9z"/>
			</g>
			<g>
				<path class="st15" d="M175.6,71.5c0,0.1,0,0.1,0,0.2c0,11.6-5.4,22-13.9,28.8c0.2,0.4,0.4,0.8,0.7,1c8.8-7,14.4-17.7,14.4-29.8
					c0,0,0,0,0-0.1C176.4,71.6,176,71.5,175.6,71.5z"/>
				<path class="st15" d="M162.4,102.1l-0.3-0.3c-0.3-0.3-0.6-0.7-0.8-1.2l-0.2-0.3l0.3-0.2c8.7-6.9,13.7-17.3,13.7-28.4V71l0.5,0
					c0.4,0,0.9,0.1,1.3,0.1l0.4,0.1v0.4c0,11.9-5.3,22.8-14.6,30.2L162.4,102.1z M162.3,100.6c0.1,0.1,0.1,0.2,0.1,0.2
					c8.7-7.1,13.8-17.5,13.9-28.8c-0.1,0-0.2,0-0.3,0C176,83.2,171,93.5,162.3,100.6z M175.6,71.5h0.5H175.6z"/>
			</g>
			<g>
				<g>
					<path class="st15" d="M120.4,46.5c5-3.6,11-5.8,17.6-6.1c-0.1-0.4-0.1-0.7-0.1-1.1c-6.7,0.3-12.9,2.6-18,6.2
						C119.9,45.8,120.1,46.1,120.4,46.5C120.3,46.4,120.3,46.4,120.4,46.5z"/>
					<path class="st15" d="M120.2,47.2l-0.3-0.4l0.4-0.3l-0.4,0.2l-0.2-0.4c-0.1-0.2-0.2-0.4-0.3-0.6l-0.2-0.4l0.4-0.3
						c5.4-3.8,11.7-6,18.3-6.3l0.5,0l0,0.5c0,0.4,0.1,0.7,0.1,1.1l0.1,0.5l-0.5,0c-6.2,0.3-12.2,2.4-17.3,6L120.2,47.2z M120.4,45.7
						c0,0,0.1,0.1,0.1,0.1c5-3.4,10.8-5.5,16.9-5.9c0-0.1,0-0.1,0-0.2C131.3,40.2,125.4,42.2,120.4,45.7z"/>
				</g>
			</g>
		</g>
		<g>
			<g>
				<path class="st17" d="M139,21L139,21c-1,0-1.8-0.8-1.8-1.8V4.1c0-1,0.8-1.8,1.8-1.8l0,0c1,0,1.8,0.8,1.8,1.8v15.1
					C140.8,20.2,140,21,139,21z"/>
			</g>
			<g>
				<path class="st17" d="M103,37.6L103,37.6c-0.7,0.7-1.8,0.7-2.6,0L89.8,26.9c-0.7-0.7-0.7-1.8,0-2.6l0,0c0.7-0.7,1.8-0.7,2.6,0
					L103,35C103.7,35.7,103.7,36.9,103,37.6z"/>
			</g>
			<g>
				<path class="st17" d="M88.4,73.9L88.4,73.9c0,1-0.8,1.8-1.8,1.8H71.5c-1,0-1.8-0.8-1.8-1.8l0,0c0-1,0.8-1.8,1.8-1.8h15.1
					C87.6,72.1,88.4,72.9,88.4,73.9z"/>
			</g>
			<g>
				<path class="st17" d="M175.3,37.6L175.3,37.6c0.7,0.7,1.8,0.7,2.6,0l10.6-10.6c0.7-0.7,0.7-1.8,0-2.6l0,0
					c-0.7-0.7-1.8-0.7-2.6,0L175.3,35C174.6,35.7,174.6,36.9,175.3,37.6z"/>
			</g>
			<g>
				<path class="st17" d="M189.9,73.9L189.9,73.9c0,1,0.8,1.8,1.8,1.8h15.1c1,0,1.8-0.8,1.8-1.8l0,0c0-1-0.8-1.8-1.8-1.8h-15.1
					C190.7,72.1,189.9,72.9,189.9,73.9z"/>
			</g>
		</g>
	</g>
	<g id="Sheternya_14_">
		<g>
			<path class="st16" d="M302.6,177.7c2.2-0.1,4.3-0.3,6.5-0.4c0.1-1.3,0.2-2.8,0.2-4.5c0-1.7-0.2-3.2-0.3-4.6
				c-2.2-0.1-4.3-0.1-6.5-0.2c-0.5-2.9-1.3-5.7-2.4-8.4c1.8-1.2,3.6-2.4,5.4-3.6c-0.5-1.2-1.2-2.6-2.1-4c-0.9-1.4-1.7-2.7-2.6-3.8
				c-1.9,1-3.8,2.1-5.7,3.1c-1.8-2.3-3.9-4.3-6.2-6c1-1.9,1.9-3.9,2.9-5.8c-1.1-0.8-2.3-1.6-3.8-2.4c-1.5-0.8-2.9-1.5-4.1-2
				c-1.1,1.8-2.2,3.7-3.4,5.5c-2.7-1-5.5-1.8-8.4-2.1c-0.1-2.1-0.3-4.3-0.4-6.4c-1.4-0.1-2.9-0.2-4.6-0.2c-1.6,0-3.1,0.2-4.5,0.3
				c-0.1,2.1-0.1,4.3-0.2,6.4c-2.9,0.4-5.7,1.3-8.4,2.4c-1.2-1.8-2.4-3.6-3.5-5.3c-1.2,0.6-2.6,1.3-4.1,2.1
				c-1.4,0.9-2.6,1.7-3.7,2.5c1,1.9,2,3.8,3,5.6c-2.3,1.8-4.3,3.9-6.1,6.3c-1.9-0.9-3.8-1.9-5.7-2.8c-0.8,1.1-1.6,2.4-2.4,3.9
				c-0.8,1.4-1.4,2.8-1.9,4c1.8,1.1,3.6,2.2,5.4,3.3c-1,2.7-1.8,5.5-2.1,8.5c-2.1,0.1-4.3,0.3-6.4,0.4c-0.1,1.4-0.2,2.9-0.2,4.6
				c0,1.6,0.2,3.1,0.3,4.5c2.1,0.1,4.3,0.1,6.4,0.2c0.5,2.9,1.3,5.8,2.4,8.4c-1.8,1.2-3.5,2.4-5.3,3.5c0.6,1.2,1.3,2.6,2.1,4.1
				c0.9,1.4,1.7,2.6,2.5,3.7c1.9-1,3.8-2,5.6-3c1.8,2.3,3.9,4.3,6.3,6c-1,1.9-1.9,3.8-2.9,5.8c1.1,0.8,2.4,1.6,3.9,2.4
				c1.4,0.8,2.8,1.4,4,1.9c1.1-1.8,2.2-3.6,3.4-5.5c2.7,1,5.5,1.7,8.5,2.1c0.1,2.1,0.3,4.3,0.4,6.4c1.3,0.1,2.8,0.2,4.5,0.2
				c1.7,0,3.2-0.2,4.6-0.3c0.1-2.2,0.1-4.3,0.2-6.5c2.9-0.5,5.7-1.3,8.4-2.4c1.2,1.8,2.4,3.6,3.6,5.4c1.2-0.5,2.6-1.2,4-2.1
				c1.4-0.9,2.7-1.7,3.8-2.6c-1-1.9-2.1-3.8-3.1-5.7c2.3-1.8,4.3-3.9,6-6.2c1.9,1,3.9,1.9,5.8,2.9c0.8-1.1,1.6-2.3,2.4-3.8
				c0.8-1.5,1.5-2.9,2-4.1c-1.8-1.1-3.7-2.3-5.5-3.4C301.5,183.5,302.2,180.6,302.6,177.7z M264.9,186.9
				c-7.4-1.6-12.2-8.8-10.6-16.3c1.6-7.4,8.8-12.2,16.3-10.6c7.4,1.6,12.2,8.8,10.6,16.3C279.6,183.8,272.3,188.5,264.9,186.9z"/>
		</g>
		<g>
			<g>
				<path class="st5" d="M272.3,203.7c-1.3,0.2-2.6,0.3-3.9,0.3c-8.5,0-16.2-3.8-21.4-9.8c-0.3,0.3-0.7,0.7-1,1.1
					c5.5,6.2,13.4,10.1,22.3,10.1c1.3,0,2.6-0.1,3.8-0.3C272.2,204.7,272.3,204.2,272.3,203.7z"/>
			</g>
			<g>
				<path class="st5" d="M291.1,158.8c0.4-0.3,0.7-0.6,1.1-0.9c-4.8-6.4-12.1-10.8-20.4-11.8c-0.2,0.5-0.4,0.9-0.5,1.4
					C279.4,148.4,286.5,152.6,291.1,158.8z"/>
			</g>
			<g>
				<g>
					<path class="st5" d="M285.5,162.2c0.4-0.3,0.7-0.6,1.1-0.9c-3.1-4-7.5-6.9-12.6-8.1c-0.2,0.5-0.3,0.9-0.5,1.4
						C278.3,155.7,282.5,158.4,285.5,162.2z"/>
				</g>
			</g>
			<g>
				<path class="st5" d="M268.4,217.9c-1.3,0-2.6-0.1-3.9-0.2l-0.6-0.1l-0.4-6.4c-2.6-0.3-5.1-1-7.5-1.8l-3.4,5.5l-0.6-0.2
					c-1.4-0.6-2.8-1.2-4.1-2c-1.4-0.8-2.7-1.6-3.9-2.5l-0.5-0.4l2.9-5.8c-2-1.6-3.9-3.4-5.5-5.3l-5.6,3.1l-0.4-0.5
					c-0.9-1.2-1.8-2.5-2.6-3.8c-0.8-1.3-1.5-2.7-2.2-4.1l-0.3-0.6l5.3-3.5c-1-2.4-1.7-4.9-2.1-7.4l-6.4-0.2l-0.1-0.6
					c-0.2-1.5-0.3-3-0.4-4.6c0-1.6,0-3.1,0.2-4.7l0.1-0.6l6.4-0.4c0.3-2.6,1-5.1,1.9-7.5l-5.5-3.4l0.2-0.6c0.6-1.4,1.2-2.8,2-4.1
					c0.8-1.4,1.6-2.7,2.5-3.9l0.4-0.5l5.8,2.9c1.6-2,3.4-3.9,5.4-5.5l-3.1-5.6l0.5-0.4c1.2-0.9,2.5-1.8,3.8-2.6
					c1.3-0.8,2.7-1.5,4.1-2.2l0.6-0.3l3.6,5.4c2.4-1,4.9-1.7,7.4-2.1l0.2-6.4l0.6-0.1c1.5-0.2,3-0.3,4.6-0.4c1.6,0,3.1,0,4.7,0.2
					l0.6,0.1l0.4,6.4c2.6,0.4,5,1,7.5,1.9l3.4-5.5l0.6,0.2c1.4,0.6,2.9,1.3,4.2,2c1.3,0.7,2.6,1.6,3.9,2.4l0.5,0.4l-2.9,5.8
					c2,1.6,3.9,3.4,5.5,5.3l5.7-3.1l0.4,0.5c1,1.2,1.8,2.5,2.6,3.9c0.8,1.3,1.5,2.7,2.1,4.1l0.3,0.6l-5.4,3.6c1,2.4,1.7,4.8,2.1,7.4
					l6.5,0.2l0.1,0.6c0.2,1.5,0.3,3.1,0.4,4.7c0,1.5,0,3-0.2,4.6l-0.1,0.6l-6.5,0.4c-0.3,2.5-1,5-1.8,7.4l5.5,3.4l-0.2,0.6
					c-0.6,1.4-1.3,2.9-2,4.2c-0.7,1.3-1.6,2.6-2.4,3.9l-0.4,0.5l-5.8-2.9c-1.6,2-3.4,3.9-5.3,5.5l3.1,5.7l-0.5,0.4
					c-1.2,1-2.5,1.8-3.9,2.6c-1.3,0.8-2.7,1.5-4.1,2.1l-0.6,0.3l-3.6-5.4c-2.4,1-4.8,1.7-7.4,2.1l-0.2,6.5l-0.6,0.1
					c-1.5,0.2-3.1,0.3-4.7,0.4C268.9,217.9,268.7,217.9,268.4,217.9z M265.3,216.3c1.3,0.1,2.5,0.2,3.8,0.1c1.3,0,2.6-0.1,3.9-0.3
					l0.2-6.4l0.6-0.1c2.8-0.4,5.6-1.2,8.2-2.3l0.5-0.2l3.6,5.4c1.1-0.5,2.3-1.1,3.3-1.8c1.1-0.7,2.2-1.4,3.2-2.2l-3.1-5.7l0.5-0.4
					c2.2-1.8,4.2-3.9,5.9-6.1l0.4-0.5l5.8,2.9c0.7-1,1.4-2.1,2-3.2c0.6-1.1,1.2-2.3,1.7-3.5l-5.5-3.4l0.2-0.6c1-2.6,1.7-5.4,2.1-8.2
					l0.1-0.6l6.5-0.4c0.1-1.3,0.2-2.5,0.1-3.8c0-1.3-0.1-2.6-0.3-3.9l-6.5-0.2l-0.1-0.6c-0.4-2.8-1.2-5.6-2.3-8.2l-0.2-0.5l5.4-3.6
					c-0.5-1.1-1.1-2.3-1.8-3.3c-0.7-1.1-1.4-2.2-2.2-3.2l-5.7,3.1l-0.4-0.5c-1.8-2.2-3.8-4.2-6.1-5.9l-0.5-0.4l2.9-5.8
					c-1-0.7-2.1-1.4-3.2-2c-1.1-0.6-2.3-1.2-3.5-1.7l-3.4,5.5l-0.6-0.2c-2.7-1-5.4-1.7-8.3-2.1l-0.6-0.1l-0.4-6.4
					c-1.3-0.1-2.6-0.2-3.9-0.1c-1.3,0-2.5,0.1-3.8,0.3l-0.2,6.4l-0.6,0.1c-2.8,0.4-5.6,1.2-8.2,2.3l-0.5,0.2l-3.5-5.3
					c-1.2,0.5-2.3,1.2-3.4,1.8c-1.1,0.7-2.1,1.4-3.1,2.1l3,5.6l-0.5,0.4c-2.2,1.8-4.2,3.9-5.9,6.1l-0.4,0.5l-5.7-2.8
					c-0.7,1.1-1.4,2.2-2.1,3.3c-0.6,1.1-1.2,2.2-1.7,3.4l5.4,3.3l-0.2,0.6c-1,2.7-1.7,5.5-2.1,8.3l-0.1,0.6l-6.4,0.4
					c-0.1,1.3-0.2,2.6-0.1,3.9c0,1.3,0.1,2.5,0.3,3.8l6.4,0.2l0.1,0.6c0.4,2.8,1.2,5.6,2.4,8.2l0.2,0.5l-5.3,3.5
					c0.5,1.2,1.2,2.3,1.8,3.4c0.7,1.1,1.4,2.1,2.1,3.1l5.6-3l0.4,0.5c1.8,2.2,3.9,4.2,6.1,5.9l0.5,0.4l-2.8,5.7
					c1.1,0.7,2.2,1.4,3.3,2.1c1.1,0.6,2.3,1.2,3.4,1.7l3.4-5.5l0.6,0.2c2.7,1,5.4,1.7,8.3,2l0.6,0.1L265.3,216.3z M268.4,190.1
					c-0.4,0-0.8,0-1.1-0.1l0,0c-4.5-0.4-8.5-2.8-11-6.5c-2.4-3.8-3-8.4-1.5-12.7c2.1-6.1,8.3-10.1,14.8-9.6c4.5,0.4,8.5,2.8,11,6.5
					c2.4,3.8,3,8.4,1.5,12.7C280,186.2,274.4,190.1,268.4,190.1z M268.4,162.7c-5.4,0-10.4,3.5-12.2,8.7c-1.3,3.9-0.8,8,1.4,11.4
					c2.2,3.4,5.8,5.5,9.9,5.9l0,0c5.8,0.5,11.4-3.1,13.3-8.6c1.3-3.9,0.8-8-1.4-11.4c-2.2-3.4-5.8-5.5-9.9-5.9
					C269.1,162.7,268.7,162.7,268.4,162.7z"/>
			</g>
		</g>
	</g>
	<g id="Robot_3_">
		<g>
			<g>
				
					<rect x="378" y="294.6" transform="matrix(0.4346 -0.9006 0.9006 0.4346 -25.6588 573.3621)" class="st17" width="131.7" height="25.1"/>
			</g>
			<g>
				
					<rect x="451.5" y="125.6" transform="matrix(0.9117 -0.4109 0.4109 0.9117 -38.076 205.7892)" class="st17" width="16.3" height="131.7"/>
			</g>
			<g>
				
					<rect x="342.5" y="129.4" transform="matrix(0.9591 -0.283 0.283 0.9591 -22.4048 117.4628)" class="st17" width="105.7" height="13.7"/>
			</g>
		</g>
		<g>
			<g>
				<g>
					
						<rect x="449.6" y="261.5" transform="matrix(0.4346 -0.9006 0.9006 0.4346 10.4683 569.3438)" class="st22" width="18.3" height="29.7"/>
				</g>
				<g>
					
						<rect x="459.8" y="240.2" transform="matrix(0.4346 -0.9006 0.9006 0.4346 35.3748 566.5678)" class="st22" width="18.3" height="29.7"/>
				</g>
				<g>
					
						<rect x="408.7" y="346.1" transform="matrix(0.4346 -0.9006 0.9006 0.4346 -88.8802 580.4075)" class="st22" width="18.3" height="29.7"/>
				</g>
				<g>
					
						<rect x="418.9" y="325" transform="matrix(0.4346 -0.9006 0.9006 0.4346 -64.0648 577.6533)" class="st22" width="18.3" height="29.7"/>
				</g>
				<g>
					
						<rect x="429.1" y="303.8" transform="matrix(0.4346 -0.9006 0.9006 0.4346 -39.2645 574.8871)" class="st22" width="18.3" height="29.7"/>
				</g>
				<g>
					
						<rect x="439.4" y="282.6" transform="matrix(0.4346 -0.9006 0.9006 0.4346 -14.3444 572.1094)" class="st22" width="18.3" height="29.7"/>
				</g>
			</g>
			<g>
				<g>
					
						<rect x="435.5" y="151.2" transform="matrix(0.9117 -0.4109 0.4109 0.9117 -26.5263 197.2462)" class="st22" width="20.2" height="18.3"/>
				</g>
				<g>
					
						<rect x="425.8" y="129.7" transform="matrix(0.9117 -0.4109 0.4109 0.9117 -18.5527 191.3706)" class="st22" width="20.2" height="18.3"/>
				</g>
				<g>
					
						<rect x="475.1" y="236.9" transform="matrix(0.9117 -0.4109 0.4109 0.9117 -58.3076 220.6982)" class="st22" width="18.3" height="18.3"/>
				</g>
				<g>
					
						<rect x="464.4" y="215.5" transform="matrix(0.9117 -0.4109 0.4109 0.9117 -50.3837 214.83)" class="st22" width="20.2" height="18.3"/>
				</g>
				<g>
					
						<rect x="454.8" y="194.1" transform="matrix(0.9117 -0.4109 0.4109 0.9117 -42.4406 208.9767)" class="st22" width="20.2" height="18.3"/>
				</g>
				<g>
					
						<rect x="445.1" y="172.6" transform="matrix(0.9117 -0.4109 0.4109 0.9117 -34.4677 203.0962)" class="st22" width="20.2" height="18.3"/>
				</g>
			</g>
			<g>
				<g>
					
						<rect x="341" y="141.2" transform="matrix(0.9591 -0.283 0.283 0.9591 -28.04 105.2115)" class="st23" width="18.3" height="17"/>
				</g>
				<g>
					
						<rect x="408.6" y="121.2" transform="matrix(0.9591 -0.283 0.283 0.9591 -19.6314 123.5336)" class="st22" width="18.3" height="17"/>
				</g>
				<g>
					
						<rect x="386.1" y="127.9" transform="matrix(0.9591 -0.283 0.283 0.9591 -22.43 117.4348)" class="st22" width="18.3" height="17"/>
				</g>
				<g>
					
						<rect x="363.5" y="134.5" transform="matrix(0.9591 -0.2829 0.2829 0.9591 -25.2276 111.2747)" class="st23" width="18.3" height="17"/>
				</g>
			</g>
		</g>
		<g>
			<path class="st17" d="M490,407.8H328.9v-24.2c0-0.7,0.6-1.3,1.3-1.3h158.5c0.7,0,1.3,0.6,1.3,1.3L490,407.8L490,407.8z"/>
		</g>
		<g>
			<path class="st13" d="M484.4,393.6h-30.5c-0.1,0-0.1-0.1-0.1-0.1v-1.8c0-0.1,0.1-0.1,0.1-0.1h30.5c0.1,0,0.1,0.1,0.1,0.1v1.8
				C484.5,393.5,484.5,393.6,484.4,393.6z"/>
		</g>
		<g>
			<g>
				<path class="st1" d="M473.3,390.5h-2.7c-0.1,0-0.1-0.1-0.1-0.1v-4.2c0-0.1,0.1-0.1,0.1-0.1h2.7c0.1,0,0.1,0.1,0.1,0.1v4.2
					C473.4,390.5,473.3,390.5,473.3,390.5z"/>
			</g>
			<g>
				<path class="st13" d="M478.8,390.5h-2.7c-0.1,0-0.1-0.1-0.1-0.1v-4.2c0-0.1,0.1-0.1,0.1-0.1h2.7c0.1,0,0.1,0.1,0.1,0.1v4.2
					C479,390.5,478.9,390.5,478.8,390.5z"/>
			</g>
			<g>
				<path class="st13" d="M484.4,390.5h-2.7c-0.1,0-0.1-0.1-0.1-0.1v-4.2c0-0.1,0.1-0.1,0.1-0.1h2.7c0.1,0,0.1,0.1,0.1,0.1v4.2
					C484.5,390.5,484.5,390.5,484.4,390.5z"/>
			</g>
		</g>
		<g>
			<g>
				<path class="st17" d="M398.5,382.2L398.5,382.2c0-6,4.9-10.9,10.9-10.9s10.9,4.9,10.9,10.9v0h18.2v0c0-16.1-13-29.1-29.1-29.1
					c-16.1,0-29.1,13-29.1,29.1v0H398.5z"/>
			</g>
			<g>
				<circle class="st17" cx="475.9" cy="240.9" r="22.1"/>
			</g>
			<g>
				<circle class="st17" cx="431.3" cy="127.8" r="18.2"/>
			</g>
		</g>
		<g>
			<g>
				<path class="st1" d="M422,382.2L422,382.2c0-6.9-5.6-12.6-12.6-12.6c-6.9,0-12.6,5.6-12.6,12.6v0H422z"/>
			</g>
			<g>
				<circle class="st1" cx="475.9" cy="240.9" r="11.5"/>
			</g>
			<g>
				<circle class="st1" cx="431.3" cy="127.8" r="9.5"/>
			</g>
		</g>
		<g>
			
				<rect x="347.8" y="129.4" transform="matrix(0.9611 -0.2762 0.2762 0.9611 -27.4612 102.9132)" class="st17" width="7.6" height="39.1"/>
		</g>
		<g>
			<path class="st24" d="M353.4,168.8c-3.6-12.5-7.2-25-10.8-37.5c-5.8-7.9-11.7-15.7-17.5-23.6c-14.2,8.5-28.5,17-42.7,25.6
				c-0.2,1.8-0.4,3.5-0.5,5.3c13.9-7.1,27.8-14.1,41.7-21.2c3.6,5.6,7.2,11.2,10.7,16.9c3.5,12.2,7,24.4,10.5,36.6
				c-0.1,6.7-0.1,13.3-0.1,20c-15.5,1.4-31.1,2.8-46.6,4.2c1.1,1.4,2.2,2.8,3.3,4.2c16.6-0.3,33.2-0.7,49.8-1
				C351.8,188.3,352.6,178.5,353.4,168.8z"/>
		</g>
		<g>
			<path class="st24" d="M338.4,159.7l10.4-6.6c-0.6-2.1-1.2-4.1-1.8-6.2l-12.3,0l-45.1,16.9l-0.9,3.2l0,0l0,0l0,0l0,0l2.4,2.2
				L338.4,159.7z"/>
		</g>
		<g class="st25">
			<polygon class="st1" points="338.5,159.6 348.8,153.1 347,146.9 334.8,146.9 			"/>
		</g>
	</g>
	<g id="Element_50_">
		<g>
			
				<rect x="415.1" y="227.9" transform="matrix(7.370864e-03 -1 1 7.370864e-03 180.7097 646.3393)" class="st5" width="1.6" height="8.5"/>
		</g>
		<g>
			
				<rect x="426.8" y="227.9" transform="matrix(7.269152e-03 -1 1 7.269152e-03 192.3483 658.1748)" class="st5" width="1.6" height="8.5"/>
		</g>
		<g>
			
				<rect x="417.6" y="225.5" transform="matrix(6.852400e-03 -1 1 6.852400e-03 192.6302 646.5663)" class="st5" width="8.5" height="1.6"/>
		</g>
		<g>
			
				<rect x="417.5" y="237.2" transform="matrix(6.852400e-03 -1 1 6.852400e-03 180.8168 658.1681)" class="st5" width="8.5" height="1.6"/>
		</g>
	</g>
	<g id="Element_49_">
		<polygon class="st5" points="317.9,357.6 310.8,350.5 304.3,357 303.2,355.8 310.8,348.2 317.9,355.2 324.9,348.2 332,355.2 
			339,348.2 346.7,355.8 345.6,356.9 339,350.5 332,357.5 324.9,350.5 		"/>
	</g>
	<g id="Sheternya_13_">
		<g>
			<path class="st16" d="M374.4,279.8c3.2,0.5,6.4,1,9.6,1.5c0.6-1.9,1.2-4.1,1.7-6.5c0.5-2.5,0.8-4.8,1-6.8
				c-3.1-0.8-6.3-1.6-9.4-2.3c0.3-4.4,0-8.8-0.8-13c3-1.2,6-2.3,9-3.5c-0.4-2-1-4.1-1.8-6.5c-0.8-2.4-1.7-4.5-2.6-6.4
				c-3.1,0.9-6.2,1.8-9.3,2.7c-1.9-3.9-4.3-7.5-7.2-10.8c2-2.5,4-5,6.1-7.5c-1.3-1.5-2.9-3.1-4.8-4.7c-1.9-1.7-3.7-3.1-5.4-4.2
				c-2.2,2.3-4.5,4.6-6.7,6.9c-3.6-2.4-7.5-4.3-11.7-5.8c0.5-3.2,1-6.3,1.5-9.5c-1.9-0.6-4.2-1.2-6.6-1.7c-2.4-0.5-4.6-0.8-6.6-0.9
				c-0.8,3.1-1.5,6.2-2.3,9.3c-4.4-0.3-8.8,0-13,0.8c-1.2-3-2.3-6-3.5-8.9c-2,0.4-4.2,1-6.6,1.8c-2.3,0.8-4.4,1.7-6.2,2.5
				c0.9,3.1,1.8,6.1,2.6,9.2c-3.9,2-7.6,4.4-10.9,7.2c-2.5-2-5-4-7.5-6c-1.5,1.4-3.2,3-4.8,4.9c-1.6,1.8-3,3.6-4.1,5.3
				c2.3,2.2,4.6,4.4,6.9,6.6c-2.4,3.6-4.3,7.5-5.8,11.7c-3.1-0.5-6.3-1-9.4-1.5c-0.6,1.9-1.2,4.2-1.7,6.6c-0.5,2.4-0.8,4.6-0.9,6.6
				c3.1,0.8,6.2,1.5,9.3,2.3c-0.3,4.4,0,8.8,0.8,13c-3,1.1-5.9,2.3-8.9,3.5c0.4,2,1,4.2,1.8,6.6c0.8,2.3,1.7,4.4,2.5,6.2
				c3.1-0.9,6.1-1.8,9.2-2.6c2,3.9,4.4,7.5,7.2,10.9c-2,2.5-4,5-6,7.5c1.4,1.5,3,3.2,4.9,4.8c1.8,1.6,3.6,3,5.3,4.1
				c2.2-2.3,4.4-4.6,6.7-6.9c3.6,2.4,7.5,4.3,11.7,5.8c-0.5,3.2-1,6.3-1.5,9.5c1.9,0.6,4.1,1.2,6.5,1.7c2.5,0.5,4.8,0.8,6.8,1
				c0.8-3.1,1.6-6.2,2.3-9.4c4.4,0.3,8.8,0,13-0.8c1.2,3,2.3,6,3.5,9c2-0.4,4.1-1,6.5-1.8c2.4-0.8,4.5-1.7,6.4-2.6
				c-0.9-3.1-1.8-6.2-2.7-9.3c3.9-1.9,7.5-4.4,10.8-7.2c2.5,2,5,4.1,7.5,6.1c1.5-1.3,3.1-2.9,4.7-4.8c1.7-1.9,3.1-3.7,4.2-5.4
				c-2.3-2.2-4.6-4.5-7-6.7C371,287.9,372.9,284,374.4,279.8z M316.4,281.2c-10.3-4.7-14.9-16.8-10.2-27.2
				c4.7-10.3,16.8-14.9,27.2-10.2c10.3,4.7,14.9,16.8,10.2,27.2C338.8,281.3,326.7,285.8,316.4,281.2z"/>
		</g>
		<g>
			<g>
				<path class="st5" d="M319.7,328.7l-0.6-0.1c-2.3-0.2-4.6-0.5-6.9-1c-2.2-0.4-4.4-1-6.6-1.7l-0.6-0.2l1.5-9.5
					c-3.8-1.4-7.4-3.1-10.8-5.3l-6.7,6.9l-0.5-0.3c-1.9-1.3-3.7-2.7-5.4-4.2c-1.7-1.5-3.4-3.2-4.9-4.9l-0.4-0.5l6-7.5
					c-2.6-3.1-4.8-6.4-6.7-10l-9.2,2.7l-0.3-0.5c-1-2-1.8-4.2-2.6-6.3c-0.7-2.2-1.4-4.4-1.8-6.7l-0.1-0.6l8.9-3.5c-0.7-4-1-8-0.8-12
					l-9.3-2.3l0.1-0.6c0.2-2.3,0.5-4.5,0.9-6.7c0.5-2.3,1-4.5,1.8-6.7l0.2-0.6l9.5,1.5c1.4-3.8,3.2-7.4,5.4-10.8l-6.9-6.6l0.3-0.5
					c1.3-1.9,2.7-3.7,4.2-5.4c1.5-1.7,3.2-3.4,4.9-4.9l0.5-0.4l7.5,6c3.1-2.6,6.5-4.8,10-6.7l-2.7-9.2l0.5-0.3c2-1,4.2-1.8,6.3-2.6
					c2.2-0.7,4.4-1.4,6.7-1.8l0.6-0.1l3.5,9c4-0.7,8-0.9,12-0.7l2.3-9.3l0.6,0.1c2.3,0.2,4.5,0.5,6.7,0.9c2.3,0.5,4.5,1,6.7,1.8
					l0.6,0.2l-1.5,9.5c3.8,1.4,7.4,3.2,10.7,5.3l6.7-6.9l0.5,0.3c1.9,1.3,3.7,2.8,5.5,4.3c1.7,1.5,3.3,3.1,4.8,4.8l0.4,0.5l-6.1,7.5
					c2.6,3.1,4.8,6.4,6.6,10l9.3-2.7l0.3,0.5c1,2.1,1.9,4.2,2.6,6.4c0.7,2.1,1.3,4.3,1.8,6.6l0.1,0.6l-9,3.5
					c0.7,3.9,0.9,7.9,0.7,11.9l9.4,2.3l-0.1,0.6c-0.2,2.3-0.5,4.6-1,6.9c-0.4,2.2-1,4.4-1.7,6.6l-0.2,0.6l-9.6-1.5
					c-1.4,3.8-3.1,7.4-5.3,10.7l7,6.7l-0.3,0.5c-1.3,1.9-2.8,3.7-4.3,5.5c-1.5,1.7-3.1,3.3-4.8,4.8l-0.5,0.4l-7.6-6.1
					c-3.1,2.6-6.4,4.8-10,6.6l2.7,9.3l-0.5,0.3c-2.1,1-4.2,1.9-6.4,2.6c-2.1,0.7-4.3,1.3-6.6,1.8l-0.6,0.1l-3.5-9
					c-3.9,0.7-8,1-12,0.8L319.7,328.7z M306.7,324.8c1.9,0.6,3.9,1.1,5.8,1.5c2,0.4,4.1,0.7,6.1,0.9l2.3-9.3l0.6,0
					c4.3,0.3,8.6,0,12.8-0.8l0.6-0.1l3.5,9c2-0.4,3.9-1,5.8-1.6c1.9-0.7,3.9-1.4,5.7-2.3l-2.7-9.3l0.5-0.3c3.8-1.9,7.4-4.3,10.7-7.1
					l0.5-0.4l7.5,6.1c1.5-1.4,2.9-2.8,4.2-4.3c1.4-1.5,2.6-3.1,3.8-4.8l-6.9-6.7l0.3-0.5c2.4-3.6,4.3-7.4,5.7-11.5l0.2-0.6l9.6,1.5
					c0.6-1.9,1.1-3.9,1.5-5.8c0.4-2,0.7-4.1,0.9-6.1l-9.4-2.3l0-0.6c0.3-4.3,0-8.6-0.8-12.8l-0.1-0.6l9-3.5c-0.4-2-1-3.9-1.6-5.8
					c-0.7-1.9-1.4-3.9-2.3-5.7l-9.3,2.7l-0.3-0.5c-1.9-3.8-4.3-7.4-7.1-10.7l-0.4-0.5l6-7.5c-1.3-1.5-2.8-2.9-4.3-4.2
					c-1.5-1.4-3.1-2.6-4.8-3.8l-6.7,6.9l-0.5-0.3c-3.6-2.4-7.4-4.3-11.5-5.7l-0.6-0.2l1.5-9.5c-2-0.6-4-1.1-6-1.5
					c-2-0.4-4-0.7-6-0.9l-2.3,9.3l-0.6,0c-4.3-0.3-8.6,0-12.8,0.8l-0.6,0.1l-3.5-8.9c-2,0.4-4,1-5.9,1.6c-1.9,0.6-3.8,1.4-5.6,2.2
					l2.6,9.2l-0.5,0.3c-3.9,1.9-7.5,4.3-10.7,7.1l-0.5,0.4l-7.4-6c-1.5,1.4-3,2.9-4.3,4.4c-1.3,1.5-2.6,3.1-3.7,4.7l6.9,6.6
					l-0.3,0.5c-2.4,3.6-4.3,7.5-5.7,11.5l-0.2,0.6l-9.4-1.5c-0.6,2-1.1,4-1.5,6c-0.4,2-0.7,4-0.9,6l9.3,2.3l0,0.6
					c-0.3,4.3,0,8.6,0.8,12.9l0.1,0.6l-8.9,3.5c0.4,2,1,4,1.6,5.9c0.6,1.9,1.4,3.8,2.2,5.6l9.2-2.6l0.3,0.5
					c1.9,3.9,4.3,7.4,7.1,10.7l0.4,0.5l-6,7.5c1.4,1.5,2.9,3,4.4,4.3c1.5,1.3,3.1,2.6,4.7,3.7l6.7-6.9l0.5,0.3
					c3.6,2.4,7.4,4.3,11.5,5.7l0.6,0.2L306.7,324.8z M324.7,287.4c-3,0-6-0.6-8.7-1.9l0,0c-5.2-2.3-9.1-6.6-11.1-11.9
					s-1.8-11.1,0.5-16.2c2.3-5.2,6.6-9.1,11.9-11.1c5.3-2,11.1-1.8,16.2,0.5c5.2,2.3,9.1,6.6,11.1,11.9c2,5.3,1.8,11.1-0.5,16.2
					s-6.6,9.1-11.9,11.1C329.8,287,327.2,287.4,324.7,287.4z M324.7,246.4c-2.4,0-4.7,0.4-7,1.3c-4.9,1.9-8.9,5.5-11.1,10.4
					c-2.2,4.8-2.4,10.2-0.5,15.1c1.9,4.9,5.5,8.9,10.4,11.1l0,0c4.8,2.2,10.2,2.4,15.1,0.5c4.9-1.9,8.9-5.5,11.1-10.4
					c2.2-4.8,2.4-10.2,0.5-15.1c-1.9-4.9-5.5-8.9-10.4-11.1C330.3,246.9,327.5,246.4,324.7,246.4z"/>
			</g>
		</g>
		<g>
			<g>
				<path class="st5" d="M299.6,269.3c-0.1-1-0.2-2.1-0.2-3.1c0-11.6,7.8-21.4,18.4-24.4c-0.2-0.5-0.3-0.9-0.3-1.4
					c-11.3,3.2-19.5,13.5-19.5,25.8c0,1.1,0.1,2.2,0.2,3.2C298.6,269.4,299.1,269.3,299.6,269.3z"/>
			</g>
		</g>
		<g>
			<g>
				<path class="st5" d="M360,268.8c-0.9,12.1-7.9,22.5-17.9,28.1c0.2,0.4,0.4,0.9,0.6,1.3c10.4-5.9,17.7-16.6,18.7-29.1
					C360.9,268.9,360.4,268.9,360,268.8z"/>
			</g>
		</g>
		<g>
			<g>
				<path class="st5" d="M369.1,262.2c0.1,1.3,0.2,2.6,0.2,3.9c0,23.7-18.5,43-41.8,44.5c0,0.5,0,1,0.1,1.4
					c24.1-1.5,43.2-21.5,43.2-45.9c0-1.3-0.1-2.6-0.2-3.9C370.1,262.2,369.6,262.2,369.1,262.2z"/>
			</g>
		</g>
	</g>
</g>
</svg>
