<?xml version="1.0" encoding="utf-8"?>
<!-- Generator: Adobe Illustrator 24.1.0, SVG Export Plug-In . SVG Version: 6.00 Build 0)  -->
<svg version="1.1" id="Layer_1" xmlns="http://www.w3.org/2000/svg" xmlns:xlink="http://www.w3.org/1999/xlink" x="0px" y="0px"
	 width="600px" height="410px" viewBox="0 0 600 410" style="enable-background:new 0 0 600 410;" xml:space="preserve">
<style type="text/css">
	.st0{fill:#383838;}
	.st1{fill:#FFFFFF;}
	.st2{opacity:0.1;}
	.st3{opacity:0;fill:#383838;}
	.st4{opacity:4.761905e-02;fill:#383838;enable-background:new    ;}
	.st5{opacity:9.523810e-02;fill:#383838;enable-background:new    ;}
	.st6{opacity:0.1429;fill:#383838;enable-background:new    ;}
	.st7{opacity:0.1905;fill:#383838;enable-background:new    ;}
	.st8{opacity:0.2381;fill:#383838;enable-background:new    ;}
	.st9{opacity:0.2857;fill:#383838;enable-background:new    ;}
	.st10{opacity:0.3333;fill:#383838;enable-background:new    ;}
	.st11{opacity:0.381;fill:#383838;enable-background:new    ;}
	.st12{opacity:0.4286;fill:#383838;enable-background:new    ;}
	.st13{opacity:0.4762;fill:#383838;enable-background:new    ;}
	.st14{opacity:0.5238;fill:#383838;enable-background:new    ;}
	.st15{opacity:0.5714;fill:#383838;enable-background:new    ;}
	.st16{opacity:0.619;fill:#383838;enable-background:new    ;}
	.st17{opacity:0.6667;fill:#383838;enable-background:new    ;}
	.st18{opacity:0.7143;fill:#383838;enable-background:new    ;}
	.st19{opacity:0.7619;fill:#383838;enable-background:new    ;}
	.st20{opacity:0.8095;fill:#383838;enable-background:new    ;}
	.st21{opacity:0.8571;fill:#383838;enable-background:new    ;}
	.st22{opacity:0.9048;fill:#383838;enable-background:new    ;}
	.st23{opacity:0.9524;fill:#383838;enable-background:new    ;}
	.st24{fill:#55ACEE;}
	.st25{fill:#CCD6DD;}
	.st26{fill:#CCCBCB;}
	.st27{fill:#2A4361;}
	.st28{fill:#F37D70;}
	.st29{fill-rule:evenodd;clip-rule:evenodd;fill:#383838;}
	.st30{fill-rule:evenodd;clip-rule:evenodd;fill:#E1E8ED;}
	.st31{fill-rule:evenodd;clip-rule:evenodd;fill:#55ACEE;}
	.st32{fill-rule:evenodd;clip-rule:evenodd;fill:#66757F;}
	.st33{fill-rule:evenodd;clip-rule:evenodd;fill:#D1D8E4;}
	.st34{fill-rule:evenodd;clip-rule:evenodd;fill:#CCD6DD;}
	.st35{fill:none;}
	.st36{fill:#202729;}
</style>
<path class="st0" d="M231.4,250.9h104.7c2,0,3.6-1.8,3.6-3.9v-67.7c0-2.2-1.6-3.9-3.6-3.9l-62.3,0.3c-0.9,0-1.9-0.4-2.5-1.1
	l-6.4-6.9c-0.7-0.7-1.6-1.1-2.5-1.1h-30.9c-2,0-3.6,1.8-3.6,3.9V247C227.8,249.2,229.4,250.9,231.4,250.9z"/>
<rect x="363.5" y="211.6" class="st0" width="37" height="23.8"/>
<path class="st1" d="M333.8,232h-99.2c-1.6,0-3-1.3-3-3v-48.6c0-1.6,1.3-3,3-3h99.2c1.6,0,3,1.3,3,3V229
	C336.7,230.6,335.4,232,333.8,232z"/>
<g class="st2">
	<path class="st3" d="M333.9,232.5h-99.2c-1.6,0-3-1.3-3-3V181c0-1.6,1.3-3,3-3h99.2c1.6,0,3,1.3,3,3v48.6
		C336.8,231.2,335.5,232.5,333.9,232.5z"/>
	<path class="st4" d="M334,232.5h-99.2c-1.6,0-3-1.3-3-3V181c0-1.6,1.3-3,3-3H334c1.6,0,3,1.3,3,3v48.6
		C336.9,231.3,335.6,232.5,334,232.5z"/>
	<path class="st5" d="M334.1,232.6h-99.2c-1.6,0-3-1.3-3-3V181c0-1.6,1.3-3,3-3h99.2c1.6,0,3,1.3,3,3v48.6
		C337,231.3,335.7,232.6,334.1,232.6z"/>
	<path class="st6" d="M334.2,232.7H235c-1.6,0-3-1.3-3-3v-48.6c0-1.6,1.3-3,3-3h99.2c1.6,0,3,1.3,3,3v48.6
		C337.1,231.4,335.8,232.7,334.2,232.7z"/>
	<path class="st7" d="M334.3,232.8h-99.2c-1.6,0-3-1.3-3-3v-48.6c0-1.6,1.3-3,3-3h99.2c1.6,0,3,1.3,3,3v48.6
		C337.2,231.5,335.9,232.8,334.3,232.8z"/>
	<path class="st8" d="M334.4,232.9h-99.2c-1.6,0-3-1.3-3-3v-48.6c0-1.6,1.3-3,3-3h99.2c1.6,0,3,1.3,3,3v48.6
		C337.3,231.6,336,232.9,334.4,232.9z"/>
	<path class="st9" d="M334.4,232.9h-99.2c-1.6,0-3-1.3-3-3v-48.5c0-1.6,1.3-3,3-3h99.2c1.6,0,3,1.3,3,3V230
		C337.4,231.7,336.1,232.9,334.4,232.9z"/>
	<path class="st10" d="M334.5,233h-99.2c-1.6,0-3-1.3-3-3v-48.6c0-1.6,1.3-3,3-3h99.2c1.6,0,3,1.3,3,3V230
		C337.5,231.7,336.2,233,334.5,233z"/>
	<path class="st11" d="M334.7,233.1h-99.2c-1.6,0-3-1.3-3-3v-48.6c0-1.6,1.3-3,3-3h99.2c1.6,0,3,1.3,3,3v48.6
		C337.6,231.8,336.2,233.1,334.7,233.1z"/>
	<path class="st12" d="M334.7,233.2h-99.2c-1.6,0-3-1.3-3-3v-48.6c0-1.6,1.3-3,3-3h99.2c1.6,0,3,1.3,3,3v48.6
		C337.7,231.9,336.3,233.2,334.7,233.2z"/>
	<path class="st13" d="M334.8,233.3h-99.2c-1.6,0-3-1.3-3-3v-48.6c0-1.6,1.3-3,3-3h99.2c1.6,0,3,1.3,3,3v48.6
		C337.7,232,336.5,233.3,334.8,233.3z"/>
	<path class="st14" d="M334.9,233.3h-99.2c-1.6,0-3-1.3-3-3v-48.5c0-1.6,1.3-3,3-3h99.2c1.6,0,3,1.3,3,3v48.6
		C337.9,232.1,336.6,233.3,334.9,233.3z"/>
	<path class="st15" d="M335,233.4h-99.2c-1.6,0-3-1.3-3-3v-48.6c0-1.6,1.3-3,3-3H335c1.6,0,3,1.3,3,3v48.6
		C338,232.1,336.6,233.4,335,233.4z"/>
	<path class="st16" d="M335.1,233.5h-99.2c-1.6,0-3-1.3-3-3V182c0-1.6,1.3-3,3-3h99.2c1.6,0,3,1.3,3,3v48.6
		C338.1,232.2,336.7,233.5,335.1,233.5z"/>
	<path class="st17" d="M335.2,233.6H236c-1.6,0-3-1.3-3-3V182c0-1.6,1.3-3,3-3h99.2c1.6,0,3,1.3,3,3v48.6
		C338.1,232.3,336.8,233.6,335.2,233.6z"/>
	<path class="st18" d="M335.3,233.7h-99.2c-1.6,0-3-1.3-3-3v-48.6c0-1.6,1.3-3,3-3h99.2c1.6,0,3,1.3,3,3v48.6
		C338.2,232.4,336.9,233.7,335.3,233.7z"/>
	<path class="st19" d="M335.4,233.8h-99.2c-1.6,0-3-1.3-3-3v-48.6c0-1.6,1.3-3,3-3h99.2c1.6,0,3,1.3,3,3v48.6
		C338.3,232.5,337,233.8,335.4,233.8z"/>
	<path class="st20" d="M335.5,233.8h-99.2c-1.6,0-3-1.3-3-3v-48.6c0-1.6,1.3-3,3-3h99.2c1.6,0,3,1.3,3,3v48.6
		C338.4,232.5,337.1,233.8,335.5,233.8z"/>
	<path class="st21" d="M335.6,233.9h-99.2c-1.6,0-3-1.3-3-3v-48.6c0-1.6,1.3-3,3-3h99.2c1.6,0,3,1.3,3,3V231
		C338.5,232.6,337.2,233.9,335.6,233.9z"/>
	<path class="st22" d="M335.7,234h-99.2c-1.6,0-3-1.3-3-3v-48.6c0-1.6,1.3-3,3-3h99.2c1.6,0,3,1.3,3,3V231
		C338.6,232.7,337.3,234,335.7,234z"/>
	<path class="st23" d="M335.8,234.1h-99.2c-1.6,0-3-1.3-3-3v-48.6c0-1.6,1.3-3,3-3h99.2c1.6,0,3,1.3,3,3v48.6
		C338.7,232.8,337.4,234.1,335.8,234.1z"/>
	<path class="st0" d="M335.9,234.2h-99.2c-1.6,0-3-1.3-3-3v-48.6c0-1.6,1.3-3,3-3h99.2c1.6,0,3,1.3,3,3v48.6
		C338.8,232.9,337.5,234.2,335.9,234.2z"/>
</g>
<path class="st0" d="M388.9,205.2c2.4,12.1,2.4,24.6,0.2,36.7l41.8-19L388.9,205.2z"/>
<rect x="142.7" y="211.6" class="st0" width="37" height="23.8"/>
<path class="st0" d="M168.1,205.2c2.4,12.1,2.4,24.6,0.2,36.7l41.8-19L168.1,205.2z"/>
<path class="st1" d="M335.4,234.2h-99.2c-1.6,0-3-1.3-3-3v-48.6c0-1.6,1.3-3,3-3h99.2c1.6,0,3,1.3,3,3v48.6
	C338.4,232.9,337,234.2,335.4,234.2z"/>
<g class="st2">
	<path class="st3" d="M335.7,234.7h-99.2c-1.6,0-3-1.3-3-3v-48.6c0-1.6,1.3-3,3-3h99.2c1.6,0,3,1.3,3,3v48.6
		C338.6,233.4,337.3,234.7,335.7,234.7z"/>
	<path class="st4" d="M335.8,234.7h-99.2c-1.6,0-3-1.3-3-3v-48.5c0-1.6,1.3-3,3-3h99.2c1.6,0,3,1.3,3,3v48.6
		C338.7,233.5,337.4,234.7,335.8,234.7z"/>
	<path class="st5" d="M335.9,234.8h-99.2c-1.6,0-3-1.3-3-3v-48.6c0-1.6,1.3-3,3-3h99.2c1.6,0,3,1.3,3,3v48.6
		C338.8,233.5,337.5,234.8,335.9,234.8z"/>
	<path class="st6" d="M336,234.9h-99.2c-1.6,0-3-1.3-3-3v-48.6c0-1.6,1.3-3,3-3H336c1.6,0,3,1.3,3,3V232
		C338.9,233.6,337.6,234.9,336,234.9z"/>
	<path class="st7" d="M336.1,235h-99.2c-1.6,0-3-1.3-3-3v-48.6c0-1.6,1.3-3,3-3h99.2c1.6,0,3,1.3,3,3V232
		C339,233.7,337.7,235,336.1,235z"/>
	<path class="st8" d="M336.2,235.1H237c-1.6,0-3-1.3-3-3v-48.6c0-1.6,1.3-3,3-3h99.2c1.6,0,3,1.3,3,3v48.6
		C339.1,233.8,337.8,235.1,336.2,235.1z"/>
	<path class="st9" d="M336.2,235.1H237c-1.6,0-3-1.3-3-3v-48.5c0-1.6,1.3-3,3-3h99.2c1.6,0,3,1.3,3,3v48.6
		C339.2,233.9,337.9,235.1,336.2,235.1z"/>
	<path class="st10" d="M336.3,235.2h-99.2c-1.6,0-3-1.3-3-3v-48.6c0-1.6,1.3-3,3-3h99.2c1.6,0,3,1.3,3,3v48.6
		C339.3,233.9,338,235.2,336.3,235.2z"/>
	<path class="st11" d="M336.5,235.3h-99.2c-1.6,0-3-1.3-3-3v-48.6c0-1.6,1.3-3,3-3h99.2c1.6,0,3,1.3,3,3v48.6
		C339.4,234,338.1,235.3,336.5,235.3z"/>
	<path class="st12" d="M336.6,235.4h-99.2c-1.6,0-3-1.3-3-3v-48.6c0-1.6,1.3-3,3-3h99.2c1.6,0,3,1.3,3,3v48.6
		C339.5,234.1,338.2,235.4,336.6,235.4z"/>
	<path class="st13" d="M336.6,235.5h-99.2c-1.6,0-3-1.3-3-3V184c0-1.6,1.3-3,3-3h99.2c1.6,0,3,1.3,3,3v48.6
		C339.6,234.2,338.3,235.5,336.6,235.5z"/>
	<path class="st14" d="M336.7,235.6h-99.2c-1.6,0-3-1.3-3-3V184c0-1.6,1.3-3,3-3h99.2c1.6,0,3,1.3,3,3v48.6
		C339.7,234.3,338.4,235.6,336.7,235.6z"/>
	<path class="st15" d="M336.8,235.6h-99.2c-1.6,0-3-1.3-3-3V184c0-1.6,1.3-3,3-3h99.2c1.6,0,3,1.3,3,3v48.6
		C339.8,234.3,338.5,235.6,336.8,235.6z"/>
	<path class="st16" d="M336.9,235.7h-99.2c-1.6,0-3-1.3-3-3v-48.6c0-1.6,1.3-3,3-3h99.2c1.6,0,3,1.3,3,3v48.6
		C339.9,234.4,338.5,235.7,336.9,235.7z"/>
	<path class="st17" d="M337,235.8h-99.2c-1.6,0-3-1.3-3-3v-48.6c0-1.6,1.3-3,3-3H337c1.6,0,3,1.3,3,3v48.6
		C340,234.5,338.6,235.8,337,235.8z"/>
	<path class="st18" d="M337.1,235.9h-99.2c-1.6,0-3-1.3-3-3v-48.6c0-1.6,1.3-3,3-3h99.2c1.6,0,3,1.3,3,3v48.6
		C340,234.6,338.7,235.9,337.1,235.9z"/>
	<path class="st19" d="M337.2,236H238c-1.6,0-3-1.3-3-3v-48.6c0-1.6,1.3-3,3-3h99.2c1.6,0,3,1.3,3,3V233
		C340.1,234.7,338.8,236,337.2,236z"/>
	<path class="st20" d="M337.3,236h-99.2c-1.6,0-3-1.3-3-3v-48.6c0-1.6,1.3-3,3-3h99.2c1.6,0,3,1.3,3,3V233
		C340.2,234.7,338.9,236,337.3,236z"/>
	<path class="st21" d="M337.4,236.1h-99.2c-1.6,0-3-1.3-3-3v-48.6c0-1.6,1.3-3,3-3h99.2c1.6,0,3,1.3,3,3v48.6
		C340.3,234.8,339,236.1,337.4,236.1z"/>
	<path class="st22" d="M337.5,236.2h-99.2c-1.6,0-3-1.3-3-3v-48.6c0-1.6,1.3-3,3-3h99.2c1.6,0,3,1.3,3,3v48.6
		C340.4,234.9,339.1,236.2,337.5,236.2z"/>
	<path class="st23" d="M337.6,236.3h-99.2c-1.6,0-3-1.3-3-3v-48.6c0-1.6,1.3-3,3-3h99.2c1.6,0,3,1.3,3,3v48.6
		C340.5,235,339.2,236.3,337.6,236.3z"/>
	<path class="st0" d="M337.7,236.4h-99.2c-1.6,0-3-1.3-3-3v-48.6c0-1.6,1.3-3,3-3h99.2c1.6,0,3,1.3,3,3v48.6
		C340.6,235.1,339.3,236.4,337.7,236.4z"/>
</g>
<path class="st1" d="M337.7,236.4h-99.2c-1.6,0-3-1.3-3-3v-48.6c0-1.6,1.3-3,3-3h99.2c1.6,0,3,1.3,3,3v48.6
	C340.6,235.1,339.3,236.4,337.7,236.4z"/>
<g>
	<path class="st24" d="M339,263.7H227.9c-2.1,0-3.8-1.7-3.8-3.8v-66.7c0-2.1,1.7-3.9,3.8-3.8h55.9c1,0,1.4-0.1,2.1-0.8l6.8-6.8
		c0.7-0.7,1.7-1.1,2.7-1.1H339c2.1,0,3.8,1.7,3.8,3.8v75.4C342.8,262,341.1,263.7,339,263.7z"/>
</g>
<g>
	<path class="st1" d="M320.3,249h-73.7c-3.7,0-6.7-3-6.7-6.7v-35.7c0-3.7,3-6.7,6.7-6.7h73.7c3.7,0,6.7,3,6.7,6.7v35.7
		C327,246,324,249,320.3,249z M246.6,200.4c-3.4,0-6.3,2.8-6.3,6.3v35.6c0,3.4,2.8,6.3,6.3,6.3h73.7c3.4,0,6.3-2.8,6.3-6.3v-35.7
		c0-3.4-2.8-6.3-6.3-6.3L246.6,200.4L246.6,200.4z"/>
</g>
<g>
	<ellipse class="st25" cx="98.7" cy="379.6" rx="40" ry="3"/>
	<path id="XMLID_308_" class="st24" d="M99.3,364.4c0-0.2-0.6-3.7-0.6-3.8c0,0.1-3.8,6.3-5.8,8.5c-1,1.1-2,2.3-3,3.4
		c-0.6,0.7-1.5,1.1-2.1,1.8c-0.8,1-1.4,2.2-1.7,3.5c-0.1,0.4-0.2,1.3,0.2,1.7h8.9c1.4-0.4,2.6-1.5,3.1-2.9l0,0
		c0.5-1.4,0.8-2.7,0.8-4.1s0.1-2.8,0.1-4.2C99.3,367,99.4,365.7,99.3,364.4z"/>
	<path id="XMLID_307_" class="st25" d="M98.8,363.3c0-0.3,0-0.7,0-1c0-2.3-0.6-4.8-0.9-7.1c-0.6-4.8-1.2-9.6-1.3-14.3
		c0-0.9,0-1.8,0-2.7c0.5-10.3,0.4-41.5,0.4-41.5h-9.8c0,0,0.5,2.5,0.1,5.6c-0.4,3-3.2,7.8-2.8,18.7c0.4,10.4,7.1,30.3,7.9,34.8
		c-0.4,2.4-2.4,11.7-3.1,14.8c-0.1,0.7-1,3-0.1,3.6c0.5,0.3,6,0.4,7.3-1c1.1-1.2,1.2-2.1,1.5-3.7C98.5,367.5,98.7,365.4,98.8,363.3z
		"/>
	<path id="XMLID_302_" class="st25" d="M87.1,296.7c0,0,0.3,1.3,0.3,3.2H97c0-2,0-3.2,0-3.2H87.1z"/>
	<path id="XMLID_247_" class="st25" d="M101.3,362.3C101.2,362.2,101.2,362.2,101.3,362.3"/>
	<path id="XMLID_230_" class="st24" d="M98.7,364.4c0-0.2,0.7-3.9,0.6-3.9c0,0.1,3.8,6.4,5.8,8.7c1,1.1,2,2.3,3,3.4
		c0.6,0.7,1.5,1.1,2.1,1.8c0.8,1,1.4,2.2,1.7,3.5c0.1,0.4,0.2,1.3-0.2,1.7h-8.9c-1.4-0.4-2.6-1.5-3.1-2.9l0,0
		c-0.5-1.4-0.8-2.7-0.8-4.1s-0.1-2.8-0.1-4.2C98.7,367,98.7,365.7,98.7,364.4z"/>
	<path id="XMLID_165_" class="st25" d="M99.3,363.3c0-0.3,0-0.7,0-1c0-2.3,0.6-4.8,0.9-7.1c0.6-4.8,1.2-9.6,1.3-14.3
		c0-0.9,0-1.8,0-2.7c-0.5-10.3-0.4-41.5-0.4-41.5h9.8c0,0-0.5,2.5-0.1,5.6c0.4,3,3.2,7.8,2.8,18.7c-0.4,10.4-7.1,30.3-7.9,34.8
		c0.4,2.4,2.4,11.7,3.1,14.8c0.1,0.7,1,3,0.1,3.6c-0.5,0.3-6,0.4-7.3-1c-1.1-1.2-1.2-2.1-1.5-3.7C99.6,367.5,99.3,365.4,99.3,363.3z
		"/>
	<path id="XMLID_163_" class="st25" d="M110.9,296.7c0,0-0.3,1.3-0.3,3.2h-9.5c0-2,0-3.2,0-3.2H110.9z"/>
	<path id="XMLID_162_" class="st25" d="M96.7,362.3C96.8,362.2,96.8,362.2,96.7,362.3"/>
	<path id="XMLID_112_" class="st0" d="M84.8,162c0,0,2.6,2.3,8.3,2.6c0,0,8.1,0.5,13.2-0.5c0,0,4.3,0.3,7.2-1c2.8-1.3,3-2.1,3-2.1
		s1.6-4.1,0.9-9.9c-1.4-10.8-6.3-26.7-13.1-27.1c-10.4-0.5-15.9,5.7-17,12.2s-3.2,18.7-3.3,21.2C83.8,159.8,84.8,162,84.8,162z"/>
	<path id="XMLID_111_" class="st0" d="M114.7,211.3c-0.5-2.7-1.1-5.6-0.7-8.4c-0.9,0.1-1.8,0.2-2.7,0.4c-4.3,0.5-8.6,0.8-12.9,1.1
		c-2.9,0.3-5.9,0.3-8.8,0.5c-0.6,0-1.8,0-3,0.1c0.1,8-4,15.6-7,22.9c-5,12.3-4.6,26.3-1.1,40s6.4,28.8,6.4,28.8h28.5
		c0,0-0.4-4.9,0.3-9.5c0.6-4.6,8.2-33.4,8.4-43.2c0.1-6.1-0.9-12.1-2.9-17.9C117.4,221.3,115.7,216.4,114.7,211.3z"/>
	<path id="XMLID_109_" class="st24" d="M121.5,221.5c-0.1,0-0.4-0.3-0.5-0.3c-2.4-1.8-4.1-4.4-5.2-7.1c-1-2.4-1.5-5-1.7-7.6
		c-0.2-3.1-0.5-6.6,0.9-9.5c1.2-2.5,3.3-4.5,4.4-7.1c1.6-3.8,1.2-7.7-0.2-11.4c-0.2-0.4-0.4-0.9-0.5-1.4c-0.2-0.9,0-1.8,0.3-2.7
		c0.4-1,0.9-2,1.6-2.9c0.4-0.5,1-1.5,1.5-1.9c-4.7-1.8-9.1-4.1-13.7-6.2c-2.5-1.1-5-2.2-7.6-3.3c-3,1.1-6.1,2.2-9.1,3.4
		c-2.2,0.8-4.5,1.5-6.6,2.4c-2.7,1.2-5.7,1.9-8.4,3.2c0.3-0.1,2.5,3.8,2.7,4.1c1.4,2.2,3.5,4.6,2.9,7.4c-0.6,3.1-1.8,5.7-0.9,8.9
		c1.2,4.5,4.6,8.1,5.1,12.8c0.4,3.9-0.6,7.9-2,11.5c-0.6,1.6-1.3,3.1-2.3,4.4c-0.5,0.7-1,1.3-1.6,1.9c-0.2,0.2-1.7,1.8-1.9,1.7
		c0,0,7.2,3.7,18.6,4c1-2.2,3-7.1,3-13c0,0,0,7.8,3.8,12.8C109.3,225.3,115.2,224,121.5,221.5z"/>
	<polygon id="XMLID_101_" class="st0" points="100.4,160.1 117.6,166.4 109.6,175.8 104.5,175.8 107.6,178.2 99.9,194.3 90.5,177.7 
		94.3,175.8 88,174.5 83,166 	"/>
	<polygon id="XMLID_98_" class="st1" points="94.4,161.7 89.8,163.8 95.3,171.7 99.3,185 103,170.9 110.4,163.7 99.7,159.9 	"/>
	<path id="XMLID_97_" class="st25" d="M110.6,163.8l-5-2.1l-0.8-0.4c-0.6-1.2-0.9-10.5-0.9-10.5h-7.8c0,0-0.3,8-0.9,9.7
		c-0.2,0.5-0.6,0.9-1,1.3l-4.4,2l5.5,7.8l4-4c0.9,0.1-0.9,0.1,0,0l3.7,3.3L110.6,163.8z"/>
	<polygon id="XMLID_96_" class="st26" points="106.9,162.8 99.3,167.6 102.6,172.6 103,170.9 110,164.1 	"/>
	<polygon id="XMLID_95_" class="st26" points="88.4,164.2 95.3,171.7 95.8,173.1 99.3,167.6 91.8,162.9 	"/>
	<polygon id="XMLID_94_" class="st1" points="105.6,161.7 110.9,163.6 103.6,172.3 99.3,167.5 	"/>
	<polygon id="XMLID_93_" class="st1" points="91.8,162.8 88,164 95,172.3 99.3,167.5 	"/>
	<path id="XMLID_92_" class="st25" d="M95.7,157.5l8.9,2.5c-0.4-2.9-0.6-9.1-0.6-9.1h-7.8C96.1,150.8,96,154.6,95.7,157.5z"/>
	<path id="XMLID_91_" class="st24" d="M79.2,222.1C79.2,222.1,79.3,222.1,79.2,222.1c0.1,0,0.2,0.1,0.2,0.1l0,0l0,0
		c0.1,0,0.1,0.1,0.2,0.1h0.1c0.1,0,0.1,0.1,0.2,0.1l0,0c0.4,0.2,0.9,0.3,1.4,0.5c0.2,0.1,0.3,0.1,0.5,0.2l0,0
		c0.3,0.1,0.5,0.2,0.8,0.3h0.1c0.3,0.1,0.6,0.2,0.9,0.3c0,0,0,0,0.1,0l0,0c0.2,0.1,0.4,0.1,0.6,0.2h0.1c0.2,0.1,0.4,0.1,0.6,0.2h0.1
		c0.2,0.1,0.4,0.1,0.7,0.2l0,0c0,0,0,0,0.1,0c0.2,0.1,0.5,0.1,0.7,0.2c0,0,0,0,0.1,0c0.3,0.1,0.5,0.1,0.8,0.2l0,0
		c-1.1-1-1.7-2.4-1.9-3.9c-0.2-1.9,0.1-3.8,0.5-5.7c0.2-1,0.5-2.1,0.7-3.2c0.6,0.7,1.3,1.4,2.2,2c-0.7-0.9-1.4-1.9-1.9-3
		c0.2-1.1,0.4-2.2,0.5-3.2c0.3,0.6,0.8,1.1,1.2,1.6c0.9,1,1.8,2,2.8,3c-1.6-2.2-2.6-4.9-3.4-7.6c0.6-1.5,1.7-2.9,2.7-3.9
		c5.1-4.5,14.6-4.7,21.5-4.4c-2.2-0.1-4.6-0.7-6.8-0.9c-1.1-0.1-2.2,0-3.2-0.1c-0.7-0.1-1.9-0.8-2.5-0.7c-0.2,0-0.3,0.1-0.5,0.2
		c-0.7,0.4-1.6,0.6-2.4,0.7c-3.3,0.4-6.8,0.4-9.9-0.9c-1.9-0.8,0.3-7.8-1.3-14c-0.5-1.8-3.6-4.2-4.7-5.6c-0.3-0.4-0.9-0.8-1.4-1.3
		c1.3,2,3,4.2,2.5,6.7c-0.6,3.1-1.8,5.7-0.9,8.9c0.8,3,2.6,5.6,3.8,8.3c0.2,0.3,0.4,0.7,0.5,1c0.3,0.7,0.5,1.5,0.6,2.3
		c0.5,1.8,0.3,4,0,6c-0.2,1.4-0.6,2.8-1,4.2c-0.4,1.2-0.8,2.3-1.3,3.5c0,0,0,0,0,0.1l0,0c-0.1,0.1-0.1,0.3-0.2,0.4l0,0
		c-0.1,0.2-0.1,0.3-0.2,0.5c-0.2,0.4-0.5,0.9-0.7,1.3l0,0c-0.2,0.4-0.4,0.7-0.7,1.1l0,0c0,0,0,0,0,0.1l0,0c0,0.1-0.1,0.1-0.1,0.2
		c-0.1,0.1-0.2,0.3-0.3,0.4c0,0,0,0.1-0.1,0.1l0,0c-0.1,0.2-0.3,0.4-0.4,0.5c-0.2,0.2-0.4,0.5-0.6,0.7l-0.1,0.1
		c-0.1,0.1-0.2,0.2-0.3,0.3l0,0c-0.1,0.1-0.3,0.3-0.4,0.4c0,0,0,0-0.1,0.1s-0.3,0.3-0.4,0.4c0,0,0,0-0.1,0c-0.2,0.1-0.3,0.3-0.4,0.3
		h-0.1c0,0,0,0-0.1,0c0.1,0.1,0.3,0.1,0.4,0.2C79.1,222.1,79.2,222.1,79.2,222.1z"/>
	<path id="XMLID_90_" class="st27" d="M113.9,200.3c0.1,0,0.1-0.1,0.2-0.1c0.1-1.1,0.4-2.3,0.9-3.3c1.2-2.5,3.3-4.6,4.4-7.1
		c1.6-3.8,1.2-7.7-0.2-11.4c-0.2-0.4-0.4-0.9-0.5-1.4c-0.2-0.9,0-1.8,0.3-2.7c0.2-0.5,0.4-1.1,0.7-1.6c-0.3,0.4-0.6,0.7-0.9,1.1
		c-0.6,0.9-1.1,1.9-1.4,2.9c-0.4,1.9,1.2,3.3,1.6,5c0.5,1.9,0.6,4.1,0.2,6c-0.6,2.6-2.1,4.3-4.2,5.7c-1.3,0.9-2.6,1.5-3.3,3
		c-0.7,1.4-0.8,3-0.9,4.5C110.8,201.3,113.6,200.5,113.9,200.3z"/>
	<path id="XMLID_89_" class="st28" d="M113.2,143.1c-0.4,1.1-1.5,2.2-2.8,2.3c-1.7,0.2-1.7-2.3-1.7-3.4c0-0.8,0.2-1.7,0.3-2.5
		c0.2-1.1,0.4-2.8,2-2.7c0.8,0.1,1.4,0.6,1.8,1.3s0.5,1.5,0.6,2.2C113.5,141.2,113.5,142.2,113.2,143.1z"/>
	<path id="XMLID_88_" class="st28" d="M86.6,143.1c0.4,1.1,1.5,2.2,2.8,2.3c1.7,0.2,1.7-2.3,1.7-3.4c0-0.8-0.2-1.7-0.3-2.5
		c-0.2-1.1-0.4-2.8-2-2.7c-0.8,0.1-1.4,0.6-1.8,1.3s-0.5,1.5-0.6,2.2C86.3,141.2,86.2,142.2,86.6,143.1z"/>
	<path id="XMLID_87_" class="st1" d="M101.9,154.8c-0.5,0.4-1.2,0.6-1.8,0.6c-0.7,0-1.5-0.2-2.1-0.6c0,0-8-3.8-8.9-12.7v-8.9
		c0-5.7,4.8-10.4,10.8-10.4l0,0c4.1,0,7.6,2.2,9.5,5.4c0.8,1.5,1.3,3.1,1.3,4.9v8.9C110.3,151.2,101.9,154.8,101.9,154.8z"/>
	<g id="XMLID_405_">
		<path id="XMLID_74_" class="st0" d="M117.1,148.6c-0.5-2.2-0.6-4.4-1-6.6c-0.9-5.3-2.6-10.4-5.3-15.1c-0.8-1.5-1.6-3.1-2.9-4.2
			c-0.5-0.5-1.2-0.9-1.9-1c-0.7-0.1-1.5,0.1-2,0.6c-0.2-1.3-1.6-2.1-2.9-2.2c-2.6-0.1-5.4,1.2-7.5,2.6c-2.7,1.7-5.4,4-6.7,7
			c-0.5,1.1-0.7,2.2-1,3.4c-1.4,6.5-2.4,13.1-3.4,19.7c-0.3,2.3-0.7,4.7,0.3,6.8c0.4,1,1.1,1.8,2,2.4c0-1,0.1-2.1,0.1-3.1
			c0,1.2,0.3,2.4,0.5,3.6c0.6,0.4,1.2,0.7,1.8,0.9c0.6,0.2,1.2,0.4,1.8,0.6c-0.6-1.9-0.9-4-0.6-5.9c0.3,2.1,0.9,4.2,1.8,6.2
			c0.9,0.2,1.9,0.3,2.8,0.3c-2.5-4.7-3.6-9.9-3.8-15.2c-0.2-4.2,0.1-8.5,0.5-12.7c2-2.2,4.7-3.9,7.3-5.4c-1.2,1.4-2.6,2.6-4.1,3.7
			c-0.5,0.3-1.1,0.7-1.7,0.8c2,0.6,4.2,0.4,6.1-0.4s3.6-2.1,4.9-3.7c0.7-0.8,1.1-1.7,1.4-2.7c1.2,0.9,2.5,1.7,3.5,2.8
			c1.4,1.5,2.3,3.3,2.9,5.3c1,3.1,1,6.3,0.7,9.5c-0.2,1.8-0.6,3.6-1,5.4c-0.2,1.1-0.5,2.2-0.7,3.2c-0.7,3-1.3,6.1-2.7,8.9
			c1.8,0,3.8,0,5.5-0.5c1.4-2.1,2.2-4.4,2.3-6.9c0.1,2.1-0.1,4.3-0.7,6.3c0.2-0.1,0.3-0.1,0.4-0.2c0.6-0.3,1.2-0.7,1.8-1.2
			c0.5-1.2,0.8-2.5,1-3.9c-0.1,1.1-0.1,2.1-0.2,3.2c1-1,1.8-2.3,2.1-3.8C119.3,154.2,117.7,151.4,117.1,148.6z"/>
		<path id="XMLID_73_" class="st0" d="M117.1,148.6c-0.5-2.2-0.6-4.4-1-6.6c-0.9-5.3-2.6-10.4-5.3-15.1c-0.8-1.5-1.6-3.1-2.9-4.2
			c-0.5-0.5-1.2-0.9-1.9-1c-0.7-0.1-1.5,0.1-2,0.6c-0.2-1.3-1.6-2.1-2.9-2.2c-2.6-0.1-5.4,1.2-7.5,2.6c-2.7,1.7-5.4,4-6.7,7
			c-0.5,1.1-0.7,2.2-1,3.4c-1.4,6.5-2.4,13.1-3.4,19.7c-0.3,2.3-0.7,4.7,0.3,6.8c0.4,1,1.1,1.8,2,2.4c0-1,0.1-2.1,0.1-3.1
			c0,1.2,0.3,2.4,0.5,3.6c0.6,0.4,1.2,0.7,1.8,0.9c0.6,0.2,1.2,0.4,1.8,0.6c-0.6-1.9-0.9-4-0.6-5.9c0.3,2.1,0.9,4.2,1.8,6.2
			c0.9,0.2,1.9,0.3,2.8,0.3c-2.5-4.7-2.5-9.5-2.8-14.7c-0.2-4.2-1-9-0.6-13.2c2-2.2,4.7-3.9,7.3-5.4c-1.2,1.4-2.6,2.6-4.1,3.7
			c-0.5,0.3-1.1,0.7-1.7,0.8c2,0.6,4.2,0.4,6.1-0.4s3.6-2.1,4.9-3.7c0.7-0.8,1.1-1.7,1.4-2.7c1.2,0.9,2.5,1.7,3.5,2.8
			c1.4,1.5,2.3,3.3,2.9,5.3c1,3.1,0.4,6.3,0,9.5c-0.2,1.8-0.4,3.6-0.8,5.4c-0.2,1.1-0.7,2.4-0.9,3.5c-0.7,3-0.7,5.8-2,8.6
			c1.8,0,3.8,0,5.5-0.5c1.4-2.1,2.2-4.4,2.3-6.9c0.1,2.1-0.1,4.3-0.7,6.3c0.2-0.1,0.3-0.1,0.4-0.2c0.6-0.3,1.2-0.7,1.8-1.2
			c0.5-1.2,0.8-2.5,1-3.9c-0.1,1.1-0.1,2.1-0.2,3.2c1-1,1.8-2.3,2.1-3.8C119.3,154.2,117.7,151.4,117.1,148.6z"/>
	</g>
	<path id="XMLID_66_" class="st24" d="M112.4,204C112.4,204.1,112.4,204.1,112.4,204c0.5,1.2,4,2.2,5.1,2.7c1.7,0.7,3.5,1.2,5.3,1.6
		c1.9,0.4,5.5,1,6-1.3c0.2-0.7,0.1-1.5,0.1-2.2c-0.4-5.7-0.8-11.5-1.5-17.2c-0.3-2.9-0.7-5.8-1.2-8.7c-0.4-2.4-1.7-6.7-3.2-8.7
		c-0.9-1.2-2.8-1-4.1-0.2c-1.3,0.8-1.5,2.4-1.7,3.9c-0.4,5-0.7,10-0.8,15c0,1.4-0.1,2.9-0.3,4.3c-0.3,1.9-1,3.8-1.7,5.6
		C113.8,199.8,112,203,112.4,204z"/>
	<path id="XMLID_65_" class="st24" d="M119.6,176.6c0,0,2.6-0.6,3.5,2.3c0.8,2.9-0.6,19-0.6,19s-6.7-1.5-6.7-1.8s1.8-16.1,1.8-16.1
		L119.6,176.6z"/>
	<g id="XMLID_389_">
		<path id="XMLID_64_" class="st25" d="M122.7,183.3c-0.2,0.7-0.9,2.3-1.2,2.9c-0.3,0.6-1.2,1.6-1.5,2.1c0,1,0.6,6.2-0.5,7.2
			c-0.6,0.5-4.6,2.3-9,4.3c-3,1.3-6.2,2.7-8.4,3.7c-1,0.4-1.9,0.8-2.4,1.1c-3.1,1.5-10.8,3.7-15,5.1c-0.3-0.9-0.5-1.8-0.8-2.7
			c-0.4-1.5-1.1-3.2-1.5-4.9c0-0.1,0-0.1,0-0.2c2.8-0.5,10.4-2.3,13.5-2.8c0.1,0,0.2,0,0.3-0.1c2.9-0.5,5.8-1.1,8.6-2.1
			c0.8-0.3,1.6-0.6,2.3-0.9c0.1,0,0.1-0.1,0.2-0.1c2.5-1.2,5-2.4,7.4-3.7c0,0,0.1-9,0.8-10.4c0.7-1.4,2.5-4.9,3.1-4.7
			c0,0,0.5,0.1,0,1.4c-0.5,1.3-1.9,3.8-1.9,4.4c0,0.4,0.8,0.3,1.2-0.5c0.5-0.8,2.5-4.2,2.8-4.3c0.3-0.2,0.9,0.1,0.8,0.5
			c0,0.5-0.2,0.8-0.2,0.8s0.6-0.6,1-0.3s0,1.1-0.3,1.7c-0.4,0.7-1.8,3.3-1.9,3.6s-0.6,1.4-0.4,1.6s2.4-3.9,2.7-4.1
			C122.7,181.5,122.9,182.6,122.7,183.3z"/>
		<path id="XMLID_62_" class="st25" d="M83.2,195.3c0.3-0.5,7.4-3.8,10.1-3.8c1.1,0.2,30.1,6.7,30.1,6.7l-4.8,8.1
			c-2.3-0.9-4.6-1.7-6.8-2.6c-3.8-1.5-7.7-2.9-11.5-4.4c-2.5-1-6.1-2.9-8.3-0.4c-0.1,0.1-0.5,0.8-0.6,0.8l-8.5,1.5
			c0.1-1,0.1-2.1,0.2-3.1c0-0.7,0.1-1.4,0.1-2c0-0.2,0-0.5,0-0.6C83.2,195.4,83.2,195.4,83.2,195.3z"/>
		<path id="XMLID_61_" class="st24" d="M111.4,194.8c-1.3,2.4-2.1,5.1-2.9,7.8c5.1,2.2,10,4.2,10,4.2l6-8.7
			C124.5,198.1,118.2,196.5,111.4,194.8z"/>
	</g>
	<polygon id="XMLID_60_" class="st24" points="122.5,197.6 125.6,198.3 110.4,196.8 111.4,194.8 	"/>
	<path id="XMLID_59_" class="st24" d="M76.6,169.1c0,0-8.1,23.7,0,41.4c6.2,2.3,13.2-1.7,13.2-1.7s-0.4-6.1-1.7-9.2
		c-3.8-0.6-5,0.8-5,0.8l0.7-5.4c0.7-5.5,0.6-11.2-0.3-16.7c-0.7-3.9-1.4-7.6-1.7-7.6C80.8,170.7,76.6,169.1,76.6,169.1z"/>
	<path id="XMLID_58_" class="st0" d="M109.9,193.6c0.2-0.2,3.8,0.7,4,1.3c0.3,0.6-3,10-4,10.2s-4.5-1.3-4.9-1.7
		C104.7,202.9,109.1,194.3,109.9,193.6z"/>
	<path id="XMLID_57_" class="st0" d="M85.9,199.1c1.6,2.2,2.4,9.2,2.4,10.7c1.4,0,4.9-0.9,4.9-1.5c0-2.6-1.6-9-2.5-10.2
		C90.5,197.7,85.9,199.1,85.9,199.1z"/>
</g>
<g>
	<ellipse class="st25" cx="485.4" cy="379.6" rx="40" ry="3"/>
	<path class="st29" d="M501.4,228.2l0.9,3.1c0,0,3,2,3.1,3c0.2,1,1,3.1,1.3,4.6c0.3,1.4,1.5,8.2,1.9,9.2c0.5,1.1,0.3,50.4,0.3,56.7
		s0.2,6,0.5,10.8l0,0l-1.2,54.2c0,0,0.3,1.8-1.7,2.2c-2,0.5-6.7,0.1-8.1-0.2c-1-0.4-1.8-0.7-2.1-1c-0.9-0.8-0.7-14.2-0.8-16.3
		c-0.2-2.1-4.3-43.6-5.4-50.5c-1.1-7-10.6-54.9-12.3-61.6c-1.7-6.8-5.6-9.9-5.6-9.9L501.4,228.2z"/>
	<path class="st30" d="M514.3,244.4c-2,3.2-3.2,9.8-5.9,10c-3.4,0.3-4.8-12-4.8-12s4-2,4.3-1.9C508.3,240.6,514.3,244.4,514.3,244.4
		z"/>
	<path class="st31" d="M467.1,162.4c0,0-6,3-7.8,8.4s-7.6,38.1-7.6,38.1s-1,7,1.4,14.6s8.1,23.1,8.1,23.1s0.6,1.2,2.4,0.1
		c1.7-1,6.8-4.4,6.8-4.4l0.1-6.9l-0.8-3.5l-7.4-21.3l7.8-19.8C470.2,190.8,473.3,173.4,467.1,162.4z"/>
	<path class="st31" d="M463.5,213.8l-1.1-3.2l3.7-9.4l2.1-31l-2.3-2.5l-7,35.3l-2.8,2l2.8-0.2L463.5,213.8L463.5,213.8z M455.3,230
		c1.1,3.2,2.3,6.6,3.3,9.5l6.7-20.4l-0.6-1.7l-3.1-2.6L455.3,230z"/>
	<path class="st29" d="M465.3,227.8l-2,4.2l-0.5,6.5c0,0-2.3,3.6-2.6,4.7c-0.4,1.1,0.6,9.2,0.5,10.8s7.1,68.8,7.6,81.7
		c0.8,18.6,3.1,31.9,2.9,33.1c-0.1,1.3,1.1,3.4,2.9,3.5s3.6-0.7,5.7-1.2l0,0l0,0c0.8-0.2,0.9-1.3,0.9-1.3l1-22.2l0,0
		c-0.1-3.4-0.1-12.8,0.1-16.7c0.1-4.1,2.1-75.7,2.1-75.7l-5.7-25.6L465.3,227.8z"/>
	<path class="st32" d="M461.9,237.2c0,0,11.4,3,24.5,1.8s-9.7-9.1-16-6.9C464.2,234.2,461.9,237.2,461.9,237.2z"/>
	<path class="st33" d="M492.7,158.4c1.1,0,2.1,0.2,3.1,0.5l13.8,4.7c0,0-4.1,6.2-2.1,23.9c0,0-4.3,20.9-4.3,23.7s2.3,14.8,2.3,16.6
		s-24.5,13.6-44.8,3.6c0,0-0.4-0.4-0.5-1.7s3.5-28.5,4.1-32.3s-1-10.3-1-10.3l3.8-24.5l10.2-4.2c0.3-0.1,0.6-0.2,0.8-0.2
		L492.7,158.4"/>
	<path class="st34" d="M485.1,164h1.4c3.3,0,6-2.7,6-6c0-1.9,0-3.8,0-5.8c0-0.4,0-0.9,0-1.3c0-0.3,0.1-0.6,0-0.9
		c-0.1-0.3-0.4-0.4-0.5-0.6c-0.3-0.4-0.5-0.6-1-0.7c-1.1-0.4-2.2-0.6-3.3-0.8c-0.4-0.1-0.7-0.1-1.1,0c-0.9,0.1-1.6,0.2-2.4,0.4
		c-1,0.3-1.9,0.6-2.9,1c-0.6,0.2-1.1,0.5-1.5,1c-0.3,0.4-0.5,0.8-0.6,1.2c-0.3,0.8,0,1.5,0,2.3c0,0.6,0-2.8,0-2.2c0,1.4,0-0.5,0,0.9
		v5.7C479.1,161.4,481.8,164,485.1,164z"/>
	<g>
		<path class="st24" d="M486.5,164.5h-1.4c-3.6,0-6.5-2.9-6.5-6.5h1c0,3,2.5,5.5,5.5,5.5h1.4c2.9,0,5.3-2.3,5.5-5.2l1,0.1
			C492.7,161.9,489.9,164.5,486.5,164.5z"/>
	</g>
	<g>
		<path class="st34" d="M473.3,137.3c-0.1,0-0.2,0-0.3,0l0,0l0,0c-1.7,0.4-3,1.9-3,3.7c0,2.1,1.7,3.8,3.7,3.8c2.1,0,3.8-1.7,3.8-3.7
			c0-1.2-0.5-2.3-1.4-3c0.1,1.1-0.1,2.5-1.5,2.7v-2.2C474.7,137.7,473.9,137.3,473.3,137.3z"/>
		<path class="st34" d="M498.2,137.3c0.1,0,0.2,0,0.3,0l0,0l0,0c1.7,0.3,3,1.8,3,3.6c0.1,2.1-1.6,3.8-3.7,3.9
			c-2.1,0.1-3.8-1.6-3.9-3.7c0-1.2,0.5-2.3,1.4-3c-0.1,1.1,0.1,2.5,1.5,2.6l-0.1-2.2C496.8,137.7,497.6,137.3,498.2,137.3z"/>
	</g>
	<path class="st30" d="M485.8,156.3c7.1,0,13-8.7,13-15.6v-9.2c0-7.1-5.8-13-13-13l0,0c-7.1,0-13,5.8-13,13v9
		C472.8,148,478,156.3,485.8,156.3z"/>
	<path class="st31" d="M509,163.3c0,0,6.3,1.5,8.1,6.9s8,39.6,8,39.6s1,7-1.4,14.6s-8.1,23.1-8.1,23.1s-0.6,1.2-2.4,0.1l0,0
		c-1.4-1.9-4.9-6-5.2-7.3c-0.3-1.3-0.5-5-0.6-5.6c-0.1-0.7,0.1-1.3-0.4-1.8l0,0l7.4-21.3l-6.9-23.9
		C507.5,187.5,502.8,174.3,509,163.3z"/>
	<path class="st31" d="M524.6,220.4c-0.2,1.3-0.6,2.6-1,3.9c-2.4,7.6-8.1,23.1-8.1,23.1s-0.6,1.2-2.4,0.1l0,0
		c-1.4-1.9-4.9-6-5.2-7.3c-0.3-1.3-0.5-5-0.6-5.6c-0.1-0.7,0.1-1.3-0.4-1.8l0,0l1.7-5l0,0l2,9.3c0,0,1.2,3.8,3.8,0.4
		C516.7,234.6,522.6,223.9,524.6,220.4z"/>
	<path class="st31" d="M480.1,239.5c0,3.4,1.9,4.2,1.9,4.2c4.8,3.8,23.3,4.4,28.4,6.6c-0.4-2.9-0.9-5.8-1.4-8.7
		c-0.4-2-1.2-4.3-1.2-6.4c0-3,0.7-6.1,0.6-9.1c-0.1-2.9-0.4-5.7-0.6-8.6c-0.9-10.7-1.2-21.4-1-32.1c0.1-4.7,0.3-9.4,1-14
		c0.1-0.5,1.2-7.9,1.8-7.7c0,0-11.3-4.7-11.9-4.8c-1.8-0.2-1.4,2.2-1.6,3.2c-0.1,0.4-0.1,0.8-0.2,1.2c-1,9.1-3.9,18.5-5.8,27.5
		c-2.4,11.8-4.4,24-7,35.5c-0.6,2.8-1.3,5.6-1.9,8.5C480.9,236.3,480.5,237.9,480.1,239.5z"/>
	<path class="st31" d="M477.1,158.6c-0.2,0-0.5-0.1-0.8,0c-0.4,0.1-8.9,3.7-9.2,3.8c-0.2,0.1-0.4,0.2-0.8,2.1
		c-0.4,1.9-3.2,20.3-3.3,20.9c-0.1,0.7-0.2,1.6,0.3,4.4c0.4,2.8,0.9,5.5,0.8,6.1c-0.1,0.7-4.5,33.5-4.7,34.9
		c-0.2,1.4-2.3,14.8-2.3,16s2.6,2.6,3.2,3.2c0.7,0.5,1,0.5,2.4-0.1s8.6-7.4,8.6-7.4s1.4-1.6,1.3-4.2c-0.3-9-0.2-18-0.6-27
		c-0.4-9.1-0.2-18.2,0.7-27.3c0.5-5.4,1.3-10.7,2.2-16C475.3,166.4,475.3,159.1,477.1,158.6z"/>
	<path class="st31" d="M497.4,370.3c0,0,0.2-2.9,1.9-2.9c1.7,0,2.2,0,3.3,0c1.1,0,2.2,1.8,2.6,3.1c0,0,1.1,0.3,1.3,1.4
		c0.2,1.1,0.8,5.3,0.8,5.7c0.1,0.4,0.4,1.9-1.3,1.9s-11.1,0-12.2,0s-0.9-0.8-0.9-1.2c0-0.5,0.2-2.1,0.8-3
		C494.3,374.3,497.4,370.3,497.4,370.3z"/>
	<path class="st34" d="M507.4,377.2c0,0.2,0,0.3,0.1,0.4c0.1,0.4,0.4,1.9-1.3,1.9s-11.1,0-12.2,0s-0.9-0.8-0.9-1.3
		c0-0.2,0-0.6,0.1-1.1h14.2L507.4,377.2L507.4,377.2z"/>
	<path class="st31" d="M470.4,367.8c0,0-5.5,4.8-7.5,5.2c-2,0.4-6.3,0.8-7.3,1.3c-0.9,0.5-1.8,2.8-1.9,3.2c-0.1,0.4-0.3,1.9,1,1.9
		s23.5,0,24.6,0s1.2-0.6,1.2-1.4s-0.6-1.7-0.6-1.7s0-3.7,0-4.7s-0.5-1.9-1.7-2c-2.1-0.1-4.3,1.1-5.7-1.1
		C471.9,367.6,471.6,366.9,470.4,367.8z"/>
	<path class="st34" d="M454.2,376.4c-0.2,0.5-0.4,1-0.5,1.2c-0.1,0.4-0.3,1.9,1,1.9s23.5,0,24.6,0c1,0,1.2-0.6,1.2-1.4
		s-0.6-1.7-0.6-1.7H454.2z"/>
	<path class="st29" d="M472.8,140.3l1.3-5.1c0,0,4-3,2.6-7.1s-1.7-3.7-1.7-3.7s-5.4,2.4-3,13.3L472.8,140.3z"/>
	<path class="st29" d="M498.7,140.3l-1.3-5.1c0,0-4-3-2.6-7.1s1.7-3.7,1.7-3.7s5.4,2.4,3,13.3L498.7,140.3z"/>
	<path class="st29" d="M476.5,132.6c6.1,0.8,14.7-6.6,17.3-5.9c3,0.8,2.4,4.3,2.4,4.3l3.3-5.5c4.7-7.8-3.2-9.7-2.9-6.7
		c0,0-5.4-7.4-8.9-8.7c-3.4-1.4-3.8,3.3-3.8,3.3C465.9,110.9,465.7,131.1,476.5,132.6z"/>
</g>
<g>
	<g>
		<path class="st0" d="M283.4,236h-12.9c0.4,1.2,1.5,2.2,2.8,2.2h10.1h10.1c1.4,0,2.5-0.9,2.8-2.2H283.4z"/>
		<path class="st0" d="M270.5,220.8v14.1h13h12.9v-14.1c0-1-0.8-1.8-1.8-1.8h-1.8v-4c0-3.1-1.7-6-4.4-7.5c-1.7-0.9-3.3-1.3-4.9-1.3
			c-5.1,0-9.4,4.2-9.4,9.3l0,0v3.4l0,0h-1.8C271.3,219,270.5,219.8,270.5,220.8z M281.2,226.8c0-1.3,1-2.3,2.3-2.3
			c0.4,0,1,0.2,1.5,0.5c0.1,0.1,0.3,0.2,0.4,0.4c0.9,1.4,0.4,2.8-0.6,3.4v2.2h-1.2h-1.2v-2.2C281.6,228.3,281.1,227.6,281.2,226.8z
			 M278.2,219v-4.1c0.3-2.6,2.6-4.6,5.2-4.6c1,0,2.1,0.3,3.2,1c1.2,0.8,2,2.2,2,3.7v4h-5.2L278.2,219L278.2,219z"/>
	</g>
	<g>
		<path class="st35" d="M283.4,210.3v8.7h5.2v-4c0-1.5-0.7-2.9-2-3.7C285.6,210.6,284.5,210.3,283.4,210.3z"/>
		<path class="st36" d="M283.4,236v2.2h10.1c1.4,0,2.5-0.9,2.8-2.2H283.4z"/>
		<path class="st36" d="M283.4,231v3.9h12.9v-14.1c0-1-0.8-1.8-1.8-1.8h-1.8v-4c0-3.1-1.7-6-4.4-7.5c-1.7-0.9-3.3-1.3-4.9-1.3v4.1
			c1,0,2.1,0.3,3.2,1c1.2,0.8,2,2.2,2,3.7v4h-5.2v5.5c0.4,0,1,0.2,1.5,0.5c0.1,0.1,0.3,0.2,0.4,0.4c0.9,1.4,0.4,2.8-0.6,3.4v2.2
			L283.4,231L283.4,231z"/>
		<path class="st0" d="M273.3,238.2h10.1V236h-12.9C270.8,237.3,272,238.2,273.3,238.2z"/>
		<path class="st0" d="M283.5,210.3v-4.1c-5.1,0-9.4,4.2-9.4,9.3l0,0v3.4l0,0h-1.8c-1,0-1.8,0.8-1.8,1.8v14.1h13V231h-1.2v-2.2
			c-0.7-0.4-1.1-1.1-1.1-1.9c0-1.3,1-2.3,2.3-2.3V219h-5.2v-4C278.5,212.3,280.7,210.3,283.5,210.3z"/>
	</g>
</g>
</svg>
